<?xml version="1.0"?>
<svg xmlns="http://www.w3.org/2000/svg" xmlns:xlink="http://www.w3.org/1999/xlink" xmlns:svgjs="http://svgjs.com/svgjs" version="1.1" width="512" height="512" x="0" y="0" viewBox="0 0 64 64" style="enable-background:new 0 0 512 512" xml:space="preserve" class=""><g><path xmlns="http://www.w3.org/2000/svg" d="M7.316,45,10,54.667a6.207,6.207,0,0,0,2.413-1.5l.879-.879a1,1,0,0,1,1.414,0l.879.879a6.243,6.243,0,0,0,8.828,0l.879-.879a1,1,0,0,1,1.414,0l.879.879a6.243,6.243,0,0,0,8.828,0l.879-.879a1,1,0,0,1,1.414,0l.879.879a6.243,6.243,0,0,0,8.828,0l.879-.879a1,1,0,0,1,1.414,0l.879.879a6.223,6.223,0,0,0,.669.572L54.684,45H28.311a7.992,7.992,0,0,1-14.822,0Z" fill="#4e408c" data-original="#000000" style=""/><path xmlns="http://www.w3.org/2000/svg" d="M19.9,47.91V45.858A3.993,3.993,0,0,1,17.042,43H14.991A6.006,6.006,0,0,0,19.9,47.91Z" fill="#4e408c" data-original="#000000" style=""/><path xmlns="http://www.w3.org/2000/svg" d="M56.9,41H28.831a7.281,7.281,0,0,1,0,2H56.9Z" fill="#4e408c" data-original="#000000" style=""/><path xmlns="http://www.w3.org/2000/svg" d="M40.293,32.707,36,28.414,34.414,30l6.293,6.293A1,1,0,0,1,41,37v2h6V37a1,1,0,0,1,.293-.707L53.586,30,52,28.414l-4.293,4.293A1,1,0,0,1,47,33H41A1,1,0,0,1,40.293,32.707Z" fill="#4e408c" data-original="#000000" style=""/><circle xmlns="http://www.w3.org/2000/svg" cx="20.9" cy="42" r="2" fill="#4e408c" data-original="#000000" style=""/><path xmlns="http://www.w3.org/2000/svg" d="M21.9,36.09v2.052A3.991,3.991,0,0,1,24.758,41H26.81A6.006,6.006,0,0,0,21.9,36.09Z" fill="#4e408c" data-original="#000000" style=""/><path xmlns="http://www.w3.org/2000/svg" d="M21.9,45.858V47.91A6.006,6.006,0,0,0,26.81,43H24.758A3.991,3.991,0,0,1,21.9,45.858Z" fill="#4e408c" data-original="#000000" style=""/><path xmlns="http://www.w3.org/2000/svg" d="M14.991,41h2.051A3.993,3.993,0,0,1,19.9,38.142V36.09A6.006,6.006,0,0,0,14.991,41Z" fill="#4e408c" data-original="#000000" style=""/><path xmlns="http://www.w3.org/2000/svg" d="M12.9,42a8.046,8.046,0,0,1,.07-1H4.9v2h8.07A8.046,8.046,0,0,1,12.9,42Z" fill="#4e408c" data-original="#000000" style=""/><path xmlns="http://www.w3.org/2000/svg" d="M56,57a8.187,8.187,0,0,1-5.828-2.414L50,54.414l-.172.172a8.242,8.242,0,0,1-11.656,0L38,54.414l-.172.172a8.242,8.242,0,0,1-11.656,0L26,54.414l-.172.172a8.242,8.242,0,0,1-11.656,0L14,54.414l-.172.172A8.245,8.245,0,0,1,3,55.312v3.274l.586.586a6.243,6.243,0,0,0,8.828,0l.879-.879a1,1,0,0,1,1.414,0l.879.879a6.243,6.243,0,0,0,8.828,0l.879-.879a1,1,0,0,1,1.414,0l.879.879a6.243,6.243,0,0,0,8.828,0l.879-.879a1,1,0,0,1,1.414,0l.879.879a6.243,6.243,0,0,0,8.828,0l.879-.879a1,1,0,0,1,1.414,0l.879.879a6.243,6.243,0,0,0,8.828,0L61,58.586V55.312A8.182,8.182,0,0,1,56,57Z" fill="#4e408c" data-original="#000000" style=""/><path xmlns="http://www.w3.org/2000/svg" d="M20.9,34a7.951,7.951,0,0,1,3.749.937L29.586,30,28,28.414l-4.293,4.293A1,1,0,0,1,23,33H17a1,1,0,0,1-.707-.293L12,28.414,10.414,30l5.646,5.646A7.947,7.947,0,0,1,20.9,34Z" fill="#4e408c" data-original="#000000" style=""/><path xmlns="http://www.w3.org/2000/svg" d="M46,27V25a2,2,0,0,0-4,0v2a2,2,0,0,0,4,0Z" fill="#4e408c" data-original="#000000" style=""/><path xmlns="http://www.w3.org/2000/svg" d="M20,29a2,2,0,0,0,2-2V25a2,2,0,0,0-4,0v2A2,2,0,0,0,20,29Z" fill="#4e408c" data-original="#000000" style=""/><path xmlns="http://www.w3.org/2000/svg" d="M30.962,17.725,32,21.36l1.038-3.635A1,1,0,0,1,34,17H46V3H18V17H30A1,1,0,0,1,30.962,17.725ZM38,7a1,1,0,0,1,1-1h2a3,3,0,0,1,0,6H40v2H38ZM33,6h2v6h2v2H34a1,1,0,0,1-1-1Zm-7,8H24V11H22v3H20V6h2V9h2V6h2Zm1-1V7a1,1,0,0,1,1-1h4V8H29V9h2v2H29v1h3v2H28A1,1,0,0,1,27,13Z" fill="#4e408c" data-original="#000000" style=""/><path xmlns="http://www.w3.org/2000/svg" d="M42,9a1,1,0,0,0-1-1H40v2h1A1,1,0,0,0,42,9Z" fill="#4e408c" data-original="#000000" style=""/></g></svg>
