<svg height="512" viewBox="0 0 128 128" width="512" xmlns="http://www.w3.org/2000/svg"><g id="number"><text fill="#24253a" font-family="MyriadPro-Regular, Myriad Pro" font-size="40" letter-spacing=".002em" transform="translate(61.012 -510.265)">8<tspan x="-10.3" y="228">18</tspan><tspan x="-10.3" y="456">28</tspan><tspan x="-10.3" y="684">38</tspan><tspan x="-10.3" y="912">48</tspan><tspan x="-10.3" y="1140">58</tspan><tspan x="-10.3" y="1368">68</tspan><tspan x="-10.3" y="1596">78</tspan><tspan x="-10.3" y="1824">88</tspan><tspan x="-10.3" y="2052">98</tspan><tspan x="-20.599" y="2280">108</tspan><tspan x="-20.599" y="2508">118</tspan><tspan x="-20.599" y="2736">128</tspan><tspan x="-20.599" y="2964">138</tspan><tspan x="-20.599" y="3192">148</tspan><tspan x="-20.599" y="3420">158</tspan><tspan x="-20.599" y="3648">168</tspan><tspan x="-20.599" y="3876">178</tspan><tspan x="-20.599" y="4104">188</tspan><tspan x="-20.599" y="4332">198</tspan><tspan x="-20.599" y="4560">208</tspan><tspan x="-20.599" y="4788">218</tspan><tspan x="-20.599" y="5016">228</tspan><tspan x="-20.599" y="5244">238</tspan><tspan x="-20.599" y="5472">248</tspan></text></g><g id="Circle_Grid" data-name="Circle Grid"><circle cx="64" cy="64" fill="#ef5261" r="64"/></g><g id="icon"><path d="m56.268 101.045v.722a3.234 3.234 0 0 0 3.232 3.233h9.025a3.234 3.234 0 0 0 3.234-3.234v-.722z" fill="#414451"/><path d="m51.271 89.321v7.587a5.32 5.32 0 0 0 5.32 5.32h14.847a5.32 5.32 0 0 0 5.32-5.32v-7.587z" fill="#575b6d"/><path d="m76.855 91.8h-26.055a1.485 1.485 0 1 0 0 2.969h26.055a1.485 1.485 0 1 0 0-2.969z" fill="#414451"/><path d="m76.237 97.252h-24.445a1.485 1.485 0 0 0 0 2.969h24.445a1.485 1.485 0 0 0 0-2.969z" fill="#414451"/><path d="m93.427 49.469a29.59 29.59 0 1 0 -52.447 21.714 38.834 38.834 0 0 1 7.646 16.166 2.987 2.987 0 0 0 2.92 2.347h24.986a2.982 2.982 0 0 0 2.906-2.288 45.529 45.529 0 0 1 8.144-16.965 29.489 29.489 0 0 0 5.845-20.974z" fill="#f6c863"/><g fill="#eab54e"><path d="m71.761 55.915a7.751 7.751 0 1 1 -7.751-7.751 7.747 7.747 0 0 1 7.751 7.751z"/><path d="m61.93 58.33h4.16v31.367h-4.16z"/></g></g></svg>