<?xml version="1.0"?>
<svg xmlns="http://www.w3.org/2000/svg" xmlns:xlink="http://www.w3.org/1999/xlink" xmlns:svgjs="http://svgjs.com/svgjs" version="1.1" width="512" height="512" x="0" y="0" viewBox="0 0 128 128" style="enable-background:new 0 0 512 512" xml:space="preserve" class=""><g><g xmlns="http://www.w3.org/2000/svg" id="Circle_Grid" data-name="Circle Grid"><circle cx="64" cy="64" fill="#ef5261" r="64" data-original="#3b5059" style=""/></g><g xmlns="http://www.w3.org/2000/svg" id="icon"><path d="m33.5 31.785h20.94a4.063 4.063 0 0 1 3.808 2.646l1.894 5.09h41.487a3.378 3.378 0 0 1 3.371 3.374l-.04 50.626-5.96-40.357a4.179 4.179 0 0 0 -4.1-3.388h-65.464v-13.928a4.063 4.063 0 0 1 4.064-4.063z" fill="#eab54e" data-original="#eab54e" style=""/><path d="m100.008 62.67v-16.693a1 1 0 0 0 -1-1h-64.829a1 1 0 0 0 -1 1v16.693z" fill="#eeefee" data-original="#eeefee" style=""/><path d="m104.96 93.521-5.96-40.357c-.259-1.369-2.715-3.393-4.108-3.393h-69a2.9 2.9 0 0 0 -2.848 3.438l6.4 40.646a2.9 2.9 0 0 0 2.848 2.36h70.429a2.271 2.271 0 0 0 2.239-2.694z" fill="#f4b458" data-original="#f4b458" style=""/><path d="m104.96 93.521-5.96-40.357a3.945 3.945 0 0 0 -4.1-3.393h-69a2.9 2.9 0 0 0 -2.848 3.438l6.4 40.646a2.9 2.9 0 0 0 2.848 2.36h70.429a2.271 2.271 0 0 0 2.231-2.694z" fill="#f6c863" data-original="#f6c863" style=""/></g></g></svg>
