<?xml version="1.0"?>
<svg xmlns="http://www.w3.org/2000/svg" xmlns:xlink="http://www.w3.org/1999/xlink" xmlns:svgjs="http://svgjs.com/svgjs" version="1.1" width="512" height="512" x="0" y="0" viewBox="0 0 512 512" style="enable-background:new 0 0 512 512" xml:space="preserve" class=""><g>
<path xmlns="http://www.w3.org/2000/svg" style="" d="M60,420.663C22.564,376.15,0,318.714,0,256C0,114.615,114.615,0,256,0s256,114.615,256,256  c0,62.784-22.615,120.277-60.125,164.811V420c-4.5-10.5-17.96-20-29.006-20h-11.211H97.34H86.004C74.958,400,61,413.167,60,420  V420.663z" fill="#ef5261" data-original="#ffe67d" class=""/>
<path xmlns="http://www.w3.org/2000/svg" style="" d="M452,94.75v325.914c-9.846,11.708-20.734,22.508-32.5,32.288V451c0-2.761-2.239-5-5-5h-317  c-2.761,0-5,2.239-5,5v1.951c-11.766-9.78-22.653-20.579-32.5-32.288V140V91.336V80c0-11.046,8.954-20,20-20h11.337h329.327h11.211  c11.046,0,20,8.954,20,20v6.708L452,94.75z" fill="#727f98" data-original="#b9783d" class=""/>
<path xmlns="http://www.w3.org/2000/svg" style="" d="M110,443.94c0,9.392-10.966,14.498-18.169,8.471C80.317,442.778,69.662,432.153,60,420.664V140  V91.336V80c0-11.046,8.954-20,20-20h11.337H128c-11.046,0-20,8.954-20,20v11.336V140v280.664c0.657,0.782,1.333,1.548,2,2.321  V443.94z" fill="#727f98" data-original="#aa6432" class=""/>
<path xmlns="http://www.w3.org/2000/svg" style="" d="M419.5,103v349.984C375.152,489.834,318.167,512,256,512s-119.152-22.166-163.5-59.016V103  c0-2.761,2.239-5,5-5h317C417.262,98,419.5,100.239,419.5,103z" fill="#ffebdc" data-original="#ffebdc" class=""/>
<path xmlns="http://www.w3.org/2000/svg" style="" d="M97.5,98H118c-2.761,0-5,2.239-5,5v365.345c-7.092-4.786-13.938-9.908-20.5-15.361V103  C92.5,100.239,94.739,98,97.5,98z M166.837,341.923h-3v14.265h3c24.088,0,46.696-9.966,63.662-28.062  c12.671-13.517,21.16-30.679,24.501-49.221c3.341,18.542,11.83,35.705,24.501,49.221c16.965,18.096,39.574,28.062,63.662,28.062h3  v-14.265h-3c-38.332,0-70.715-31.297-75.011-71.832h89.032v-14.265h-89.032c4.296-40.535,36.679-71.832,75.011-71.832h3v-14.266h-3  c-24.088,0-46.697,9.966-63.662,28.062c-12.671,13.517-21.16,30.679-24.501,49.221c-3.341-18.542-11.83-35.705-24.501-49.221  c-16.965-18.096-39.574-28.062-63.662-28.062h-3v14.266h3c38.332,0,70.715,31.297,75.011,71.832h-89.032v14.265h89.032  C237.552,310.626,205.169,341.923,166.837,341.923z M216,390c-2.761,0-5,2.239-5,5v10c0,2.761,2.239,5,5,5h80c2.761,0,5-2.239,5-5  v-10c0-2.761-2.239-5-5-5H216z M296,470h-80c-2.761,0-5,2.239-5,5v10c0,2.761,2.239,5,5,5h80c2.761,0,5-2.239,5-5v-10  C301,472.239,298.761,470,296,470z M357,430H155c-2.761,0-5,2.239-5,5v10c0,2.761,2.239,5,5,5h202c2.761,0,5-2.239,5-5v-10  C362,432.239,359.761,430,357,430z" fill="#ffaf82" data-original="#ffd7aa" class=""/>
<path xmlns="http://www.w3.org/2000/svg" style="" d="M342,50v60c0,5.523-4.477,10-10,10H180c-5.523,0-10-4.477-10-10V50c0-5.523,4.477-10,10-10h41.361  c2.427-16.96,17.007-30,34.639-30s32.212,13.04,34.639,30H332C337.523,40,342,44.477,342,50z" fill="#727f98" data-original="#5f82c3" class=""/>
<path xmlns="http://www.w3.org/2000/svg" style="" d="M200,120h-20c-5.523,0-10-4.477-10-10V50c0-5.523,4.477-10,10-10h20c-5.523,0-10,4.477-10,10v60  C190,115.523,194.477,120,200,120z" fill="#575b6d" data-original="#506ea0" class=""/>
<path xmlns="http://www.w3.org/2000/svg" style="" d="M271,45c0,8.284-6.716,15-15,15s-15-6.716-15-15s6.716-15,15-15S271,36.716,271,45z" fill="#414451" data-original="#414669" class=""/>
<path xmlns="http://www.w3.org/2000/svg" style="" d="M150.306,292.714c-16.738,0-30.306-13.569-30.306-30.306s13.569-30.306,30.306-30.306  s30.306,13.568,30.306,30.306S167.044,292.714,150.306,292.714z M166.837,150c-16.738,0-30.306,13.568-30.306,30.306  s13.568,30.306,30.306,30.306s30.306-13.569,30.306-30.306S183.574,150,166.837,150z M166.837,315.306  c-16.738,0-30.306,13.569-30.306,30.306s13.568,30.306,30.306,30.306s30.306-13.568,30.306-30.306S183.574,315.306,166.837,315.306z   M359.694,232.102c-16.738,0-30.306,13.568-30.306,30.306s13.569,30.306,30.306,30.306S390,279.146,390,262.408  S376.431,232.102,359.694,232.102z M343.163,210.612c16.738,0,30.306-13.569,30.306-30.306S359.901,150,343.163,150  s-30.306,13.568-30.306,30.306S326.426,210.612,343.163,210.612z M343.163,315.306c-16.738,0-30.306,13.569-30.306,30.306  s13.568,30.306,30.306,30.306s30.306-13.568,30.306-30.306S359.901,315.306,343.163,315.306z" fill="#ffaf82" data-original="#ffaf82" class=""/>
<path xmlns="http://www.w3.org/2000/svg" style="" d="M295.306,262.408c0,22.26-18.046,40.306-40.306,40.306s-40.306-18.046-40.306-40.306  S232.74,222.102,255,222.102S295.306,240.148,295.306,262.408z M359.694,247.959c-8.284,0-15,6.716-15,15c0,8.284,6.716,15,15,15  s15-6.716,15-15C374.694,254.675,367.978,247.959,359.694,247.959z M165.306,262.959c0-8.284-6.716-15-15-15s-15,6.716-15,15  s6.716,15,15,15S165.306,271.243,165.306,262.959z M166.837,165.306c-8.284,0-15,6.716-15,15s6.716,15,15,15s15-6.716,15-15  S175.121,165.306,166.837,165.306z M166.837,330c-8.284,0-15,6.716-15,15s6.716,15,15,15s15-6.716,15-15S175.121,330,166.837,330z   M343.163,195.306c8.284,0,15-6.716,15-15s-6.716-15-15-15s-15,6.716-15,15S334.879,195.306,343.163,195.306z M343.163,330  c-8.284,0-15,6.716-15,15s6.716,15,15,15s15-6.716,15-15S351.448,330,343.163,330z" fill="#ff4b6e" data-original="#ff4b6e" class=""/>
<path xmlns="http://www.w3.org/2000/svg" style="" d="M256.812,239.79l6.117,12.395c0.294,0.596,0.863,1.01,1.522,1.106l13.679,1.988  c1.658,0.241,2.32,2.278,1.12,3.447l-9.898,9.648c-0.476,0.464-0.694,1.133-0.581,1.789l2.337,13.624  c0.283,1.651-1.45,2.91-2.932,2.131l-12.235-6.432c-0.589-0.31-1.292-0.31-1.881,0l-12.235,6.432  c-1.483,0.779-3.216-0.48-2.932-2.131l2.337-13.624c0.112-0.656-0.105-1.325-0.581-1.789l-9.898-9.648  c-1.2-1.169-0.538-3.206,1.12-3.447l13.679-1.988c0.658-0.096,1.227-0.509,1.522-1.106l6.117-12.395  C253.929,238.288,256.071,238.288,256.812,239.79z" fill="#ffff91" data-original="#ffff91" class=""/>
<g xmlns="http://www.w3.org/2000/svg">
</g>
<g xmlns="http://www.w3.org/2000/svg">
</g>
<g xmlns="http://www.w3.org/2000/svg">
</g>
<g xmlns="http://www.w3.org/2000/svg">
</g>
<g xmlns="http://www.w3.org/2000/svg">
</g>
<g xmlns="http://www.w3.org/2000/svg">
</g>
<g xmlns="http://www.w3.org/2000/svg">
</g>
<g xmlns="http://www.w3.org/2000/svg">
</g>
<g xmlns="http://www.w3.org/2000/svg">
</g>
<g xmlns="http://www.w3.org/2000/svg">
</g>
<g xmlns="http://www.w3.org/2000/svg">
</g>
<g xmlns="http://www.w3.org/2000/svg">
</g>
<g xmlns="http://www.w3.org/2000/svg">
</g>
<g xmlns="http://www.w3.org/2000/svg">
</g>
<g xmlns="http://www.w3.org/2000/svg">
</g>
</g></svg>
