<?xml version="1.0"?>
<svg xmlns="http://www.w3.org/2000/svg" xmlns:xlink="http://www.w3.org/1999/xlink" xmlns:svgjs="http://svgjs.com/svgjs" version="1.1" width="512" height="512" x="0" y="0" viewBox="0 0 128 128" style="enable-background:new 0 0 512 512" xml:space="preserve"><g><g xmlns="http://www.w3.org/2000/svg" id="Circle_Grid" data-name="Circle Grid"><circle cx="64" cy="64" fill="#ef5261" r="64" data-original="#ea8953" style=""/></g><g xmlns="http://www.w3.org/2000/svg" id="icon"><circle cx="51.828" cy="51.828" fill="#575b6d" r="28.827" transform="matrix(.707 -.707 .707 .707 -21.468 51.828)" data-original="#575b6d" style=""/><path d="m68.849 68.849a24.07 24.07 0 1 1 0-34.04 24.1 24.1 0 0 1 0 34.04z" fill="#69b0ee" data-original="#69b0ee" style=""/><path d="m69.178 69.037h11.561v11.844h-11.561z" fill="#575b6d" transform="matrix(.707 -.707 .707 .707 -31.049 74.959)" data-original="#575b6d" style=""/><path d="m102.334 102.334a9.1 9.1 0 0 1 -13.306-.467l-19.134-22.024a.775.775 0 0 1 .037-1.056l8.856-8.856a.775.775 0 0 1 1.056-.037l22.025 19.135a9.1 9.1 0 0 1 .466 13.305z" fill="#f6b863" data-original="#f6b863" style=""/><g fill="#eeefee"><path d="m60.656 39.144h5.172v23.369h-5.172z" fill="#eeefee" data-original="#eeefee" style=""/><path d="m52.38 43.282h5.172v19.231h-5.172z" fill="#eeefee" data-original="#eeefee" style=""/><path d="m44.104 48.454h5.172v14.059h-5.172z" fill="#eeefee" data-original="#eeefee" style=""/><path d="m35.828 54.144h5.172v8.369h-5.172z" fill="#eeefee" data-original="#eeefee" style=""/></g></g></g></svg>
