<?xml version="1.0"?>
<svg xmlns="http://www.w3.org/2000/svg" xmlns:xlink="http://www.w3.org/1999/xlink" xmlns:svgjs="http://svgjs.com/svgjs" version="1.1" width="512" height="512" x="0" y="0" viewBox="0 0 128 128" style="enable-background:new 0 0 512 512" xml:space="preserve"><g><g xmlns="http://www.w3.org/2000/svg" id="Circle_Grid" data-name="Circle Grid"><circle cx="64" cy="64" fill="#ef5261" r="64" data-original="#ea8953" /></g><g xmlns="http://www.w3.org/2000/svg" id="icon"><path d="m48.125 41.144v22.449a8.827 8.827 0 0 0 8.831 8.831h24.9l13.269 11.993v-11.993h3.044a8.831 8.831 0 0 0 8.831-8.831v-22.449a8.834 8.834 0 0 0 -8.831-8.831h-41.212a8.831 8.831 0 0 0 -8.832 8.831z" fill="#575b6d" data-original="#575b6d" style=""/><path d="m79.875 52.414v22.449a8.827 8.827 0 0 1 -8.831 8.831h-21.372l-13.265 11.993v-11.993h-6.576a8.831 8.831 0 0 1 -8.831-8.831v-22.449a8.834 8.834 0 0 1 8.831-8.831h41.212a8.831 8.831 0 0 1 8.832 8.831z" fill="#eeefee" data-original="#eeefee" style=""/><g fill="#bbbbcd"><rect height="2.639" rx="1.319" width="44.481" x="28.197" y="52.99" fill="#bbbbcd" data-original="#bbbbcd" style=""/><rect height="2.639" rx="1.319" width="44.481" x="28.197" y="62.319" fill="#bbbbcd" data-original="#bbbbcd" style=""/><rect height="2.639" rx="1.319" width="44.481" x="28.197" y="71.649" fill="#bbbbcd" data-original="#bbbbcd" style=""/></g></g></g></svg>
