<svg xmlns="http://www.w3.org/2000/svg" viewBox="0 0 446.18 293.75"><defs><style>.cls-1{fill:#fc0;}.cls-2,.cls-3,.cls-4{fill:none;}.cls-2{stroke:#666;}.cls-2,.cls-4{stroke-linecap:round;stroke-linejoin:round;stroke-width:8.49px;}.cls-4{stroke:#fff;}.cls-5{fill:#06c;}</style></defs><g id="Capa_2" data-name="Capa 2"><g id="Capa_1-2" data-name="Capa 1"><path class="cls-1" d="M446.18,165.32a125.2,125.2,0,1,1-250.39,0C195.79,96.18,246.26,29,315.4,29S446.18,96.18,446.18,165.32Z"/><path class="cls-1" d="M197.64,287.47c5,7,15.5,7.61,23.5,4.46,15.14-6,37.07-46.34,11.65-52.9C215.67,234.61,187.27,272.91,197.64,287.47Z"/><path class="cls-2" d="M293.06,162.21A54.45,54.45,0,0,1,244.23,231"/><path class="cls-3" d="M357.7,121.81a28.34,28.34,0,1,1,30.07,27"/><path class="cls-2" d="M347.45,121.17C345,110.09,350.61,97.82,360.38,92s22.87-5,32.27,1.34,14.9,17.89,14.57,29.25S401,144.9,392,151.91"/><path class="cls-4" d="M301.71,207.92c6.94,4.78,7.15,4.85,14.09,9.63"/><path class="cls-4" d="M337,238.72c3.77,5.94,3.73,5.59,7.5,11.52"/><path class="cls-4" d="M354,270.69l3.58,14.16"/><path class="cls-2" d="M277.42,64.89a52,52,0,0,0,65.14,51.3"/><path class="cls-2" d="M215.39,76.14a46.86,46.86,0,0,0,65.08,8.62"/><path class="cls-2" d="M190.52,130.19a54.93,54.93,0,0,0,64.9-30.31"/><path class="cls-2" d="M175.27,164.89c16.79,7.55,38,4,51.32-8.73"/><path class="cls-2" d="M232.11,37.27a61.32,61.32,0,0,1,83.41,8.06"/><path class="cls-2" d="M294.38,16.67a61.59,61.59,0,0,1,90.28,25.15"/><path class="cls-2" d="M390.72,43.61a67.05,67.05,0,0,1,48.47,66.46"/><path class="cls-5" d="M11.92,12H4.74v4.53h8.48V20H.17V1H13.25V4.57H4.74v4h7.18Z"/><path class="cls-5" d="M19.51,20h-4.4V0h4.4Z"/><path class="cls-5" d="M33,5.91l.14,1.65a4.86,4.86,0,0,1,4-1.91,3.58,3.58,0,0,1,3.61,2.12,4.69,4.69,0,0,1,4.14-2.12c2.85,0,4.32,1.73,4.39,5.18V20H44.91V11.1a2.69,2.69,0,0,0-.37-1.57A1.54,1.54,0,0,0,43.21,9a2.1,2.1,0,0,0-1.94,1.16l0,.18V20h-4.4V11.13a2.85,2.85,0,0,0-.35-1.6A1.57,1.57,0,0,0,35.2,9a2.1,2.1,0,0,0-1.93,1.16V20H28.88V5.91Z"/><path class="cls-5" d="M60.2,18.47a4.51,4.51,0,0,1-3.76,1.78,4.45,4.45,0,0,1-3.51-1.34A5.7,5.7,0,0,1,51.74,15V5.91h4.39v9.15c0,1.21.58,1.81,1.75,1.81A2.3,2.3,0,0,0,60,15.79V5.91h4.41V20H60.33Z"/><path class="cls-5" d="M70.87,5.91,71,7.56a4.78,4.78,0,0,1,4-1.91A4,4,0,0,1,78.32,7a6.27,6.27,0,0,1,1.13,4V20h-4.4V11.1a2.37,2.37,0,0,0-.43-1.57A2,2,0,0,0,73.06,9a2.08,2.08,0,0,0-1.91,1V20H66.76V5.91Z"/><path class="cls-5" d="M81.32,12.85a8.61,8.61,0,0,1,1.45-5.27,4.74,4.74,0,0,1,4-1.93A4,4,0,0,1,90,7.13V0h4.4V20H90.44l-.23-1.51a4.14,4.14,0,0,1-3.43,1.77,4.77,4.77,0,0,1-4-1.92A8.89,8.89,0,0,1,81.32,12.85Zm4.39.27q0,3.75,2.19,3.75A2.17,2.17,0,0,0,90,15.65V10.28A2.1,2.1,0,0,0,87.92,9c-1.35,0-2.08,1.1-2.2,3.28Z"/><path class="cls-5" d="M96.32,12.82a8.24,8.24,0,0,1,.82-3.75,5.9,5.9,0,0,1,2.35-2.54,7.13,7.13,0,0,1,3.61-.88,6.48,6.48,0,0,1,5,2,7.52,7.52,0,0,1,1.82,5.33v.15a7.3,7.3,0,0,1-1.83,5.23,6.49,6.49,0,0,1-5,1.93,6.56,6.56,0,0,1-4.83-1.8,7,7,0,0,1-2-4.89Zm4.39.27a5.23,5.23,0,0,0,.61,2.87,2.06,2.06,0,0,0,1.81.91q2.34,0,2.39-3.61v-.44c0-2.52-.81-3.79-2.42-3.79s-2.26,1.09-2.38,3.27Z"/><path class="cls-5" d="M122.51,5.91l.14,1.65a4.78,4.78,0,0,1,4-1.91A4,4,0,0,1,130,7a6.27,6.27,0,0,1,1.12,4V20h-4.39V11.1a2.43,2.43,0,0,0-.43-1.57,2,2,0,0,0-1.57-.5,2.09,2.09,0,0,0-1.91,1V20h-4.39V5.91Z"/><path class="cls-5" d="M133,12.82a8.24,8.24,0,0,1,.82-3.75,5.9,5.9,0,0,1,2.35-2.54,7.13,7.13,0,0,1,3.61-.88,6.48,6.48,0,0,1,5,2,7.52,7.52,0,0,1,1.82,5.33v.15a7.3,7.3,0,0,1-1.83,5.23,6.49,6.49,0,0,1-4.95,1.93,6.56,6.56,0,0,1-4.83-1.8,7,7,0,0,1-2-4.89Zm4.39.27A5.23,5.23,0,0,0,138,16a2.06,2.06,0,0,0,1.81.91q2.34,0,2.39-3.61v-.44c0-2.52-.81-3.79-2.42-3.79s-2.26,1.09-2.38,3.27Z"/><path class="cls-5" d="M161.93,20.25a7.21,7.21,0,0,1-5.24-1.93,6.67,6.67,0,0,1-2-5v-.37a8.68,8.68,0,0,1,.8-3.81,6,6,0,0,1,2.34-2.56,7.07,7.07,0,0,1,3.64-.9,6.1,6.1,0,0,1,4.69,1.84,7.23,7.23,0,0,1,1.72,5.14v1.7h-8.72a3.12,3.12,0,0,0,1,1.86,3.05,3.05,0,0,0,2,.68,4,4,0,0,0,3.26-1.46l2,2.37a5.61,5.61,0,0,1-2.32,1.8A7.8,7.8,0,0,1,161.93,20.25ZM161.44,9c-1.29,0-2.05.85-2.29,2.55h4.42v-.33A2.18,2.18,0,0,0,163,9.61,2.15,2.15,0,0,0,161.44,9Z"/><path class="cls-5" d="M177,16a1,1,0,0,0-.59-.9,8.89,8.89,0,0,0-2.23-.71,10.19,10.19,0,0,1-2.7-.95A4.54,4.54,0,0,1,169.86,12a3.45,3.45,0,0,1-.56-1.94,3.9,3.9,0,0,1,1.6-3.2,6.65,6.65,0,0,1,4.19-1.25,7.32,7.32,0,0,1,4.48,1.26,3.94,3.94,0,0,1,1.69,3.32h-4.4c0-1.13-.59-1.69-1.78-1.69a1.8,1.8,0,0,0-1.16.38,1.21,1.21,0,0,0-.47,1,1.09,1.09,0,0,0,.57.95,5.71,5.71,0,0,0,1.83.6,14.47,14.47,0,0,1,2.21.56c2.12.73,3.18,2,3.18,3.92A3.66,3.66,0,0,1,179.52,19a7.46,7.46,0,0,1-4.43,1.21,7.61,7.61,0,0,1-3.23-.65,5.37,5.37,0,0,1-2.21-1.77,4,4,0,0,1-.79-2.35H173a1.66,1.66,0,0,0,.65,1.42,2.66,2.66,0,0,0,1.6.45,2.13,2.13,0,0,0,1.35-.36A1.17,1.17,0,0,0,177,16Z"/><path class="cls-5" d="M188.39,2.41v3.5h2.32V9h-2.32V15.4a1.61,1.61,0,0,0,.29,1.1,1.52,1.52,0,0,0,1.13.32,6.71,6.71,0,0,0,1.1-.08v3.14a8.18,8.18,0,0,1-2.48.37,4.59,4.59,0,0,1-3.34-1.06A4.41,4.41,0,0,1,184,15.94V9h-1.8V5.91H184V2.41Z"/><path class="cls-5" d="M200.37,20a4.58,4.58,0,0,1-.42-1.26,4,4,0,0,1-3.38,1.52,5,5,0,0,1-3.39-1.2,3.85,3.85,0,0,1-1.39-3,4,4,0,0,1,1.69-3.46,8.64,8.64,0,0,1,4.92-1.17h1.36v-.75q0-2-1.68-2a1.38,1.38,0,0,0-1.56,1.55h-4.39a3.94,3.94,0,0,1,1.74-3.32,7.29,7.29,0,0,1,4.43-1.27A6.46,6.46,0,0,1,202.56,7a4.6,4.6,0,0,1,1.6,3.61V16.8a6.17,6.17,0,0,0,.6,3V20ZM198.72,0h4.63l-3.62,4.09h-3.58Zm-1.1,17.13a2.47,2.47,0,0,0,1.36-.35,2.27,2.27,0,0,0,.78-.8V13.73h-1.28c-1.53,0-2.29.69-2.29,2.06a1.29,1.29,0,0,0,.4,1A1.46,1.46,0,0,0,197.62,17.13Z"/><path class="cls-5" d="M13,38.54a8.62,8.62,0,0,1-1.43,5.32,4.79,4.79,0,0,1-4,1.86A4.18,4.18,0,0,1,4.11,44l-.18,1.44H0v-20H4.39v7a4,4,0,0,1,3.16-1.39A4.81,4.81,0,0,1,11.61,33,8.66,8.66,0,0,1,13,38.31Zm-4.4-.28a5.71,5.71,0,0,0-.54-2.89,1.81,1.81,0,0,0-1.66-.87,2.09,2.09,0,0,0-2.05,1.13v5.59a2.11,2.11,0,0,0,2.08,1.12,1.86,1.86,0,0,0,2-1.51A10.7,10.7,0,0,0,8.64,38.26Z"/><path class="cls-5" d="M14.94,27.75a2,2,0,0,1,.68-1.54,2.56,2.56,0,0,1,1.76-.6,2.53,2.53,0,0,1,1.75.6,2.07,2.07,0,0,1,0,3.07,2.53,2.53,0,0,1-1.75.6,2.56,2.56,0,0,1-1.76-.6A2,2,0,0,1,14.94,27.75ZM19.6,45.46H15.2V31.38h4.4Z"/><path class="cls-5" d="M29.12,45.72a7.25,7.25,0,0,1-5.25-1.93,6.67,6.67,0,0,1-2-5v-.37a8.54,8.54,0,0,1,.8-3.81A5.85,5.85,0,0,1,25,32a7.11,7.11,0,0,1,3.65-.9A6.06,6.06,0,0,1,33.33,33a7.22,7.22,0,0,1,1.72,5.13V39.8H26.33a3.17,3.17,0,0,0,1,1.86,3.06,3.06,0,0,0,2.06.68,4,4,0,0,0,3.25-1.46l2,2.37a5.62,5.62,0,0,1-2.32,1.8A7.79,7.79,0,0,1,29.12,45.72Zm-.5-11.22c-1.28,0-2.05.85-2.29,2.55h4.43v-.34a2.18,2.18,0,0,0-.54-1.63A2.09,2.09,0,0,0,28.62,34.5Z"/><path class="cls-5" d="M40.84,31.38,41,33a4.76,4.76,0,0,1,4-1.91,4,4,0,0,1,3.29,1.31,6.27,6.27,0,0,1,1.12,4v9.07H45V36.57A2.37,2.37,0,0,0,44.59,35,2,2,0,0,0,43,34.5a2.08,2.08,0,0,0-1.91,1v9.94H36.73V31.38Z"/><path class="cls-5" d="M65.3,45.72a7.21,7.21,0,0,1-5.24-1.93,6.67,6.67,0,0,1-2-5v-.37a8.68,8.68,0,0,1,.8-3.81A5.87,5.87,0,0,1,61.19,32a7.07,7.07,0,0,1,3.64-.9A6.1,6.1,0,0,1,69.52,33a7.26,7.26,0,0,1,1.72,5.13V39.8H62.52a3.16,3.16,0,0,0,1,1.86,3.08,3.08,0,0,0,2.06.68,3.94,3.94,0,0,0,3.25-1.46l2,2.37a5.69,5.69,0,0,1-2.32,1.8A7.83,7.83,0,0,1,65.3,45.72ZM64.81,34.5c-1.29,0-2.05.85-2.29,2.55h4.42v-.34a2.17,2.17,0,0,0-.53-1.63A2.11,2.11,0,0,0,64.81,34.5Z"/><path class="cls-5" d="M77,31.38,77.17,33a4.76,4.76,0,0,1,4-1.91,4,4,0,0,1,3.29,1.31,6.27,6.27,0,0,1,1.13,4v9.07h-4.4V36.57A2.43,2.43,0,0,0,80.78,35a2,2,0,0,0-1.56-.5,2.1,2.1,0,0,0-1.92,1v9.94H72.92V31.38Z"/><path class="cls-5" d="M94,42.34a2,2,0,0,0,1.43-.5,1.88,1.88,0,0,0,.5-1.4H100a4.86,4.86,0,0,1-1.66,3.8,6.17,6.17,0,0,1-4.28,1.48,6.24,6.24,0,0,1-4.84-1.93,7.57,7.57,0,0,1-1.77-5.33v-.18a8.5,8.5,0,0,1,.79-3.77A5.66,5.66,0,0,1,90.54,32a6.73,6.73,0,0,1,3.51-.88,6.06,6.06,0,0,1,4.36,1.52A5.4,5.4,0,0,1,100,36.77H95.92a2.39,2.39,0,0,0-.54-1.68A1.83,1.83,0,0,0,94,34.5c-1.14,0-1.8.73-2,2.18a15.49,15.49,0,0,0-.09,1.9,6,6,0,0,0,.51,2.94A1.75,1.75,0,0,0,94,42.34Z"/><path class="cls-5" d="M109.82,45.46a4.83,4.83,0,0,1-.42-1.26A4.1,4.1,0,0,1,106,45.72a5,5,0,0,1-3.39-1.2,3.84,3.84,0,0,1-1.39-3A3.92,3.92,0,0,1,102.93,38a8.64,8.64,0,0,1,4.92-1.17h1.36v-.75q0-1.95-1.68-2A1.38,1.38,0,0,0,106,35.71h-4.38a4,4,0,0,1,1.73-3.32,7.32,7.32,0,0,1,4.44-1.27A6.43,6.43,0,0,1,112,32.43,4.57,4.57,0,0,1,113.6,36v6.23a6.47,6.47,0,0,0,.6,3v.22Zm-2.75-2.86a2.47,2.47,0,0,0,1.36-.35,2.27,2.27,0,0,0,.78-.8V39.2h-1.28c-1.53,0-2.29.69-2.29,2.06a1.25,1.25,0,0,0,.4,1A1.49,1.49,0,0,0,107.07,42.6Z"/><path class="cls-5" d="M120.18,31.38l.14,1.65a4.83,4.83,0,0,1,4-1.91A3.57,3.57,0,0,1,128,33.24a4.66,4.66,0,0,1,4.14-2.12c2.85,0,4.32,1.72,4.4,5.18v9.16h-4.4V36.57a2.61,2.61,0,0,0-.37-1.57,1.53,1.53,0,0,0-1.32-.5,2.08,2.08,0,0,0-1.94,1.16v9.8h-4.4V36.6a2.85,2.85,0,0,0-.35-1.6,1.55,1.55,0,0,0-1.34-.5,2.11,2.11,0,0,0-1.93,1.16v9.8h-4.39V31.38Z"/><path class="cls-5" d="M139,27.75a2,2,0,0,1,.68-1.54,2.53,2.53,0,0,1,1.75-.6,2.56,2.56,0,0,1,1.76.6,2.07,2.07,0,0,1,0,3.07,2.56,2.56,0,0,1-1.76.6,2.53,2.53,0,0,1-1.75-.6A2,2,0,0,1,139,27.75Zm4.66,17.71h-4.4V31.38h4.4Z"/><path class="cls-5" d="M150.35,31.38l.14,1.65a4.76,4.76,0,0,1,4-1.91,4,4,0,0,1,3.29,1.31,6.33,6.33,0,0,1,1.13,4v9.07h-4.4V36.57A2.43,2.43,0,0,0,154.1,35a2,2,0,0,0-1.56-.5,2.1,2.1,0,0,0-1.92,1v9.94h-4.38V31.38Z"/><path class="cls-5" d="M169.29,45.46a4.83,4.83,0,0,1-.42-1.26,4.09,4.09,0,0,1-3.38,1.52,5,5,0,0,1-3.39-1.2,3.84,3.84,0,0,1-1.39-3A3.92,3.92,0,0,1,162.4,38a8.64,8.64,0,0,1,4.92-1.17h1.36v-.75q0-1.95-1.68-2a1.38,1.38,0,0,0-1.57,1.55h-4.38a3.94,3.94,0,0,1,1.74-3.32,7.27,7.27,0,0,1,4.43-1.27,6.43,6.43,0,0,1,4.25,1.31,4.57,4.57,0,0,1,1.6,3.61v6.23a6.47,6.47,0,0,0,.6,3v.22Zm-2.75-2.86a2.47,2.47,0,0,0,1.36-.35,2.27,2.27,0,0,0,.78-.8V39.2H167.4c-1.53,0-2.29.69-2.29,2.06a1.25,1.25,0,0,0,.4,1A1.49,1.49,0,0,0,166.54,42.6Z"/><path class="cls-5" d="M175,38.31A8.63,8.63,0,0,1,176.39,33a4.78,4.78,0,0,1,4-1.92,4,4,0,0,1,3.17,1.48V25.47H188v20h-3.94L183.84,44a4.15,4.15,0,0,1-3.44,1.77,4.74,4.74,0,0,1-4-1.93A8.87,8.87,0,0,1,175,38.31Zm4.39.28c0,2.5.72,3.75,2.18,3.75a2.15,2.15,0,0,0,2.08-1.23V35.75a2.09,2.09,0,0,0-2-1.25c-1.36,0-2.09,1.09-2.2,3.28Z"/><path class="cls-5" d="M189.94,38.29a8.42,8.42,0,0,1,.82-3.76A6,6,0,0,1,193.12,32a7.09,7.09,0,0,1,3.6-.88,6.46,6.46,0,0,1,5,2,7.52,7.52,0,0,1,1.82,5.33v.15a7.3,7.3,0,0,1-1.83,5.23,6.49,6.49,0,0,1-4.95,1.93,6.59,6.59,0,0,1-4.83-1.8A7,7,0,0,1,190,39Zm4.39.27a5.26,5.26,0,0,0,.61,2.87,2.06,2.06,0,0,0,1.81.91q2.34,0,2.4-3.61v-.44q0-3.8-2.43-3.79c-1.46,0-2.26,1.09-2.38,3.27Z"/><path class="cls-5" d="M13,64a8.47,8.47,0,0,1-1.48,5.24,4.71,4.71,0,0,1-4,2,4,4,0,0,1-3.19-1.42v6.57H0V56.85H4.1l.13,1.3a4.06,4.06,0,0,1,3.32-1.56,4.79,4.79,0,0,1,4.05,1.92A8.59,8.59,0,0,1,13,63.78Zm-4.38-.27Q8.66,60,6.47,60a2.05,2.05,0,0,0-2.08,1.12v5.54A2.12,2.12,0,0,0,6.5,67.81c1.39,0,2.11-1.21,2.16-3.62Z"/><path class="cls-5" d="M22.91,70.93a4.83,4.83,0,0,1-.42-1.26,4.09,4.09,0,0,1-3.38,1.52A5,5,0,0,1,15.72,70a3.85,3.85,0,0,1-1.39-3A3.92,3.92,0,0,1,16,63.5a8.64,8.64,0,0,1,4.92-1.17H22.3v-.75q0-1.95-1.68-1.95a1.37,1.37,0,0,0-1.56,1.54H14.67a3.92,3.92,0,0,1,1.74-3.31,7.27,7.27,0,0,1,4.43-1.27,6.37,6.37,0,0,1,4.25,1.31,4.57,4.57,0,0,1,1.61,3.61v6.23a6.36,6.36,0,0,0,.59,3v.22Zm-2.75-2.86a2.39,2.39,0,0,0,1.36-.36,2.17,2.17,0,0,0,.78-.79V64.67H21c-1.53,0-2.29.68-2.29,2.06a1.23,1.23,0,0,0,.4,1A1.47,1.47,0,0,0,20.16,68.07Z"/><path class="cls-5" d="M37.64,60.82l-1.44-.11c-1.38,0-2.27.44-2.66,1.3v8.92H29.16V56.85h4.11l.14,1.81a3.4,3.4,0,0,1,3.09-2.07,4.42,4.42,0,0,1,1.22.15Z"/><path class="cls-5" d="M46.77,70.93a4.83,4.83,0,0,1-.42-1.26A4.09,4.09,0,0,1,43,71.19,5,5,0,0,1,39.58,70a3.85,3.85,0,0,1-1.39-3,3.92,3.92,0,0,1,1.69-3.46,8.64,8.64,0,0,1,4.92-1.17h1.36v-.75q0-1.95-1.68-1.95a1.38,1.38,0,0,0-1.57,1.54H38.53a3.92,3.92,0,0,1,1.74-3.31,7.27,7.27,0,0,1,4.43-1.27A6.37,6.37,0,0,1,49,57.9a4.57,4.57,0,0,1,1.6,3.61v6.23a6.47,6.47,0,0,0,.6,3v.22ZM44,68.07a2.39,2.39,0,0,0,1.36-.36,2.17,2.17,0,0,0,.78-.79V64.67H44.88c-1.53,0-2.29.68-2.29,2.06a1.23,1.23,0,0,0,.4,1A1.45,1.45,0,0,0,44,68.07Z"/><path class="cls-5" d="M67.55,70.93a5.29,5.29,0,0,1-.41-1.26,4.11,4.11,0,0,1-3.39,1.52A5,5,0,0,1,60.37,70,3.85,3.85,0,0,1,59,67a3.92,3.92,0,0,1,1.69-3.46,8.64,8.64,0,0,1,4.92-1.17h1.35v-.75q0-1.95-1.68-1.95a1.37,1.37,0,0,0-1.56,1.54H59.31a3.92,3.92,0,0,1,1.74-3.31,7.31,7.31,0,0,1,4.43-1.27,6.38,6.38,0,0,1,4.26,1.31,4.6,4.6,0,0,1,1.6,3.61v6.23a6.47,6.47,0,0,0,.6,3v.22Zm-2.74-2.86a2.42,2.42,0,0,0,1.36-.36,2.06,2.06,0,0,0,.77-.79V64.67H65.67c-1.53,0-2.29.68-2.29,2.06a1.23,1.23,0,0,0,.4,1A1.45,1.45,0,0,0,64.81,68.07Z"/><path class="cls-5" d="M78.4,70.93H74v-20h4.4Z"/><path class="cls-5" d="M87.05,67.81a1.91,1.91,0,0,0,1.43-.51,1.82,1.82,0,0,0,.5-1.4h4.11a4.87,4.87,0,0,1-1.66,3.81,7,7,0,0,1-9.12-.45,7.57,7.57,0,0,1-1.77-5.33v-.19A8.63,8.63,0,0,1,81.33,60a5.79,5.79,0,0,1,2.27-2.52,6.83,6.83,0,0,1,3.52-.87,6.08,6.08,0,0,1,4.36,1.52,5.41,5.41,0,0,1,1.61,4.12H89a2.38,2.38,0,0,0-.54-1.67A1.83,1.83,0,0,0,87,60c-1.13,0-1.8.72-2,2.17a15.6,15.6,0,0,0-.09,1.9A6,6,0,0,0,85.44,67,1.76,1.76,0,0,0,87.05,67.81Z"/><path class="cls-5" d="M102.88,70.93a4.83,4.83,0,0,1-.42-1.26,4.07,4.07,0,0,1-3.38,1.52A5,5,0,0,1,95.69,70a3.88,3.88,0,0,1-1.39-3A4,4,0,0,1,96,63.5a8.64,8.64,0,0,1,4.92-1.17h1.36v-.75q0-1.95-1.68-1.95A1.37,1.37,0,0,0,99,61.17H94.64a3.92,3.92,0,0,1,1.74-3.31,7.29,7.29,0,0,1,4.43-1.27,6.4,6.4,0,0,1,4.26,1.31,4.6,4.6,0,0,1,1.6,3.61v6.23a6.22,6.22,0,0,0,.6,3v.22Zm-2.75-2.86a2.39,2.39,0,0,0,1.36-.36,2.17,2.17,0,0,0,.78-.79V64.67H101c-1.53,0-2.29.68-2.29,2.06a1.27,1.27,0,0,0,.4,1A1.47,1.47,0,0,0,100.13,68.07Z"/><path class="cls-5" d="M113.12,56.85l.15,1.65a4.76,4.76,0,0,1,4-1.91,4,4,0,0,1,3.28,1.31,6.27,6.27,0,0,1,1.13,4v9.07h-4.4V62a2.36,2.36,0,0,0-.43-1.57,2,2,0,0,0-1.56-.5,2.09,2.09,0,0,0-1.91,1v10H109V56.85Z"/><path class="cls-5" d="M129.3,67.54h6.42v3.39h-12V68.48L130,60.23h-6V56.85h11.55v2.36Z"/><path class="cls-5" d="M145.78,70.93a4.83,4.83,0,0,1-.42-1.26A4.07,4.07,0,0,1,142,71.19,5,5,0,0,1,138.6,70a3.86,3.86,0,0,1-1.4-3,4,4,0,0,1,1.69-3.46,8.64,8.64,0,0,1,4.92-1.17h1.36v-.75q0-1.95-1.68-1.95a1.37,1.37,0,0,0-1.56,1.54h-4.39a3.92,3.92,0,0,1,1.74-3.31,7.29,7.29,0,0,1,4.43-1.27A6.38,6.38,0,0,1,148,57.9a4.6,4.6,0,0,1,1.6,3.61v6.23a6.22,6.22,0,0,0,.6,3v.22ZM143,68.07a2.39,2.39,0,0,0,1.36-.36,2.17,2.17,0,0,0,.78-.79V64.67h-1.28c-1.52,0-2.29.68-2.29,2.06a1.24,1.24,0,0,0,.41,1A1.43,1.43,0,0,0,143,68.07Z"/><path class="cls-5" d="M160.51,60.82l-1.44-.11c-1.38,0-2.27.44-2.66,1.3v8.92H152V56.85h4.11l.14,1.81a3.4,3.4,0,0,1,3.09-2.07,4.37,4.37,0,0,1,1.22.15Z"/><path class="cls-5" d="M162.7,66.67a2.5,2.5,0,0,1,1.73.62,2.15,2.15,0,0,1,0,3.16,2.45,2.45,0,0,1-1.73.62,2.52,2.52,0,0,1-1.74-.62,2.06,2.06,0,0,1-.68-1.58A2,2,0,0,1,161,67.3,2.48,2.48,0,0,1,162.7,66.67Zm6.37,0a2.51,2.51,0,0,1,1.73.62,2.15,2.15,0,0,1,0,3.16,2.74,2.74,0,0,1-3.47,0,2,2,0,0,1-.69-1.58,2,2,0,0,1,.69-1.57A2.45,2.45,0,0,1,169.07,66.67Zm6.35,0a2.51,2.51,0,0,1,1.73.62,2.15,2.15,0,0,1,0,3.16,2.47,2.47,0,0,1-1.73.62,2.5,2.5,0,0,1-1.74-.62,2,2,0,0,1-.68-1.58,2,2,0,0,1,.68-1.57A2.46,2.46,0,0,1,175.42,66.67Z"/><path class="cls-5" d="M3.84,232a2.51,2.51,0,0,1,1.73.62,2.15,2.15,0,0,1,0,3.16,2.47,2.47,0,0,1-1.73.62,2.5,2.5,0,0,1-1.74-.62,2,2,0,0,1-.68-1.58,2,2,0,0,1,.68-1.57A2.46,2.46,0,0,1,3.84,232Zm6.36,0a2.5,2.5,0,0,1,1.73.62,2.15,2.15,0,0,1,0,3.16,2.45,2.45,0,0,1-1.73.62,2.52,2.52,0,0,1-1.74-.62,2.06,2.06,0,0,1-.68-1.58,2,2,0,0,1,.68-1.57A2.48,2.48,0,0,1,10.2,232Zm6.35,0a2.52,2.52,0,0,1,1.74.62,2.15,2.15,0,0,1,0,3.16,2.48,2.48,0,0,1-1.74.62,2.48,2.48,0,0,1-1.73-.62,2,2,0,0,1-.69-1.58,2,2,0,0,1,.69-1.57A2.44,2.44,0,0,1,16.55,232Z"/><path class="cls-5" d="M28.45,236.55a7.21,7.21,0,0,1-5.24-1.93,6.67,6.67,0,0,1-2-5v-.37a8.68,8.68,0,0,1,.8-3.81,5.87,5.87,0,0,1,2.34-2.56A7.07,7.07,0,0,1,28,222a6.1,6.1,0,0,1,4.69,1.84,7.26,7.26,0,0,1,1.72,5.13v1.71H25.67a2.93,2.93,0,0,0,3.08,2.54A3.94,3.94,0,0,0,32,231.71l2,2.37a5.69,5.69,0,0,1-2.32,1.8A7.87,7.87,0,0,1,28.45,236.55ZM28,225.33c-1.29,0-2.05.85-2.29,2.55h4.42v-.34a2.17,2.17,0,0,0-.53-1.63A2.12,2.12,0,0,0,28,225.33Z"/><path class="cls-5" d="M40.78,236.29h-4.4v-20h4.4Z"/><path class="cls-5" d="M49.56,229.12a8.42,8.42,0,0,1,.82-3.76,5.9,5.9,0,0,1,2.36-2.53,7.06,7.06,0,0,1,3.6-.88,6.51,6.51,0,0,1,5,2,7.56,7.56,0,0,1,1.82,5.33v.16a7.3,7.3,0,0,1-1.83,5.23,6.49,6.49,0,0,1-5,1.93,6.59,6.59,0,0,1-4.83-1.8,7,7,0,0,1-2-4.89Zm4.39.27a5.2,5.2,0,0,0,.61,2.86,2,2,0,0,0,1.81.92c1.56,0,2.36-1.21,2.4-3.61v-.44q0-3.8-2.43-3.79c-1.46,0-2.26,1.09-2.38,3.27Z"/><path class="cls-5" d="M78.16,229.37a8.62,8.62,0,0,1-1.43,5.32,4.81,4.81,0,0,1-4,1.86,4.16,4.16,0,0,1-3.46-1.71l-.18,1.45H65.12v-20H69.5v7A4,4,0,0,1,72.67,222a4.82,4.82,0,0,1,4.06,1.88,8.66,8.66,0,0,1,1.43,5.31Zm-4.4-.28a5.75,5.75,0,0,0-.54-2.9,1.83,1.83,0,0,0-1.66-.86,2.12,2.12,0,0,0-2.06,1.13v5.59a2.13,2.13,0,0,0,2.09,1.12,1.87,1.87,0,0,0,2-1.51A10.75,10.75,0,0,0,73.76,229.09Z"/><path class="cls-5" d="M84.81,222.21v14.56a5.12,5.12,0,0,1-1.43,3.85,5.49,5.49,0,0,1-4,1.36,9.8,9.8,0,0,1-2.07-.22v-3.32a8.11,8.11,0,0,0,1.24.11,1.6,1.6,0,0,0,1.82-1.8V222.21Zm-4.72-3.64a2,2,0,0,1,.67-1.53,2.88,2.88,0,0,1,3.52,0,2.09,2.09,0,0,1,0,3.07,2.88,2.88,0,0,1-3.52,0A2,2,0,0,1,80.09,218.57Z"/><path class="cls-5" d="M94.1,236.55a7.21,7.21,0,0,1-5.24-1.93,6.67,6.67,0,0,1-2-5v-.37a8.68,8.68,0,0,1,.8-3.81A5.93,5.93,0,0,1,90,222.85a7.08,7.08,0,0,1,3.65-.9,6.08,6.08,0,0,1,4.68,1.84,7.22,7.22,0,0,1,1.72,5.13v1.71H91.32a3.12,3.12,0,0,0,1,1.86,3.05,3.05,0,0,0,2.05.68,4,4,0,0,0,3.26-1.46l2,2.37a5.62,5.62,0,0,1-2.32,1.8A7.8,7.8,0,0,1,94.1,236.55Zm-.49-11.22c-1.28,0-2,.85-2.29,2.55h4.42v-.34a2.17,2.17,0,0,0-.53-1.63A2.11,2.11,0,0,0,93.61,225.33Z"/><path class="cls-5" d="M106.91,218.7v3.51h2.32v3h-2.32v6.44a1.66,1.66,0,0,0,.29,1.11,1.53,1.53,0,0,0,1.13.31,6.71,6.71,0,0,0,1.09-.07v3.13a8.12,8.12,0,0,1-2.47.38,4.59,4.59,0,0,1-3.34-1.07,4.37,4.37,0,0,1-1.08-3.24v-7h-1.8v-3h1.8V218.7Z"/><path class="cls-5" d="M110.92,218.57a2,2,0,0,1,.68-1.53,2.53,2.53,0,0,1,1.75-.6,2.56,2.56,0,0,1,1.76.6,2.07,2.07,0,0,1,0,3.07,2.56,2.56,0,0,1-1.76.6,2.53,2.53,0,0,1-1.75-.6A2,2,0,0,1,110.92,218.57Zm4.66,17.72h-4.4V222.21h4.4Z"/><path class="cls-5" d="M123.9,231.07l2.22-8.86h4.62l-4.59,14.08h-4.48l-4.59-14.08h4.63Z"/><path class="cls-5" d="M131.3,229.12a8.42,8.42,0,0,1,.82-3.76,6,6,0,0,1,2.36-2.53,7.09,7.09,0,0,1,3.6-.88,6.49,6.49,0,0,1,5,2,7.51,7.51,0,0,1,1.82,5.33v.16a7.3,7.3,0,0,1-1.83,5.23,6.49,6.49,0,0,1-4.95,1.93,6.59,6.59,0,0,1-4.83-1.8,7,7,0,0,1-2-4.89Zm4.39.27a5.2,5.2,0,0,0,.61,2.86,2,2,0,0,0,1.81.92c1.56,0,2.36-1.21,2.4-3.61v-.44q0-3.8-2.43-3.79c-1.46,0-2.26,1.09-2.38,3.27Z"/><path class="cls-5" d="M.43,254.61a8.61,8.61,0,0,1,1.44-5.27,4.78,4.78,0,0,1,4-1.93,4,4,0,0,1,3.17,1.49v-7.13h4.4v20H9.54l-.22-1.51A4.17,4.17,0,0,1,5.88,262a4.74,4.74,0,0,1-4-1.93A8.87,8.87,0,0,1,.43,254.61Zm4.38.28c0,2.49.73,3.74,2.19,3.74a2.14,2.14,0,0,0,2.08-1.22v-5.36a2.09,2.09,0,0,0-2-1.25c-1.36,0-2.09,1.09-2.2,3.28Z"/><path class="cls-5" d="M22.79,262a7.29,7.29,0,0,1-5.25-1.93,6.71,6.71,0,0,1-2-5v-.36a8.68,8.68,0,0,1,.8-3.81,5.76,5.76,0,0,1,2.34-2.56,7,7,0,0,1,3.64-.91A6.11,6.11,0,0,1,27,249.26a7.24,7.24,0,0,1,1.71,5.13v1.71H20A3.17,3.17,0,0,0,21,258a3.08,3.08,0,0,0,2.06.67,3.93,3.93,0,0,0,3.25-1.45l2,2.36A5.59,5.59,0,0,1,26,261.35,8,8,0,0,1,22.79,262Zm-.5-11.22c-1.28,0-2,.85-2.29,2.55h4.43V253a2.16,2.16,0,0,0-.53-1.63A2.13,2.13,0,0,0,22.29,250.8Z"/><path class="cls-5" d="M41.42,249.18a4.81,4.81,0,0,1,7.1-.39,6.22,6.22,0,0,1,1.21,4.08v8.89h-4.4V253a2.49,2.49,0,0,0-.45-1.64,1.94,1.94,0,0,0-1.55-.53,2.09,2.09,0,0,0-1.91.86v10.1H37v-20h4.39Z"/><path class="cls-5" d="M60.11,261.76a4.83,4.83,0,0,1-.42-1.26A4.1,4.1,0,0,1,56.31,262a5,5,0,0,1-3.39-1.21,3.82,3.82,0,0,1-1.39-3,3.92,3.92,0,0,1,1.69-3.46,8.55,8.55,0,0,1,4.92-1.18h1.35v-.74c0-1.3-.56-1.95-1.67-1.95A1.37,1.37,0,0,0,56.25,252H51.87a3.94,3.94,0,0,1,1.73-3.31A7.32,7.32,0,0,1,58,247.41a6.38,6.38,0,0,1,4.25,1.32,4.56,4.56,0,0,1,1.6,3.6v6.24a6.47,6.47,0,0,0,.6,3v.22Zm-2.75-2.87a2.39,2.39,0,0,0,1.36-.35,2.14,2.14,0,0,0,.77-.79V255.5H58.22c-1.53,0-2.29.68-2.29,2.05a1.24,1.24,0,0,0,.4,1A1.45,1.45,0,0,0,57.36,258.89Z"/><path class="cls-5" d="M70.47,247.67l.14,1.66a4.84,4.84,0,0,1,4-1.92,3.57,3.57,0,0,1,3.61,2.13,4.67,4.67,0,0,1,4.14-2.13q4.28,0,4.4,5.18v9.17h-4.4v-8.89a2.72,2.72,0,0,0-.37-1.58,1.54,1.54,0,0,0-1.33-.49A2.06,2.06,0,0,0,78.75,252v9.8h-4.4v-8.87a2.87,2.87,0,0,0-.35-1.6,1.55,1.55,0,0,0-1.34-.49A2.09,2.09,0,0,0,70.74,252v9.8H66.35V247.67Z"/><path class="cls-5" d="M102.36,254.83a8.56,8.56,0,0,1-1.44,5.33,4.79,4.79,0,0,1-4,1.86,4.15,4.15,0,0,1-3.46-1.71l-.18,1.45H89.31v-20H93.7v7a4,4,0,0,1,3.16-1.4,4.78,4.78,0,0,1,4.06,1.89,8.6,8.6,0,0,1,1.44,5.31Zm-4.4-.28a5.74,5.74,0,0,0-.54-2.89,1.84,1.84,0,0,0-1.66-.86,2.11,2.11,0,0,0-2.06,1.13v5.59a2.11,2.11,0,0,0,2.08,1.11,1.86,1.86,0,0,0,2-1.5A10.85,10.85,0,0,0,98,254.55Z"/><path class="cls-5" d="M112.81,251.64l-1.45-.1c-1.38,0-2.26.43-2.65,1.3v8.92h-4.39V247.67h4.11l.15,1.81a3.39,3.39,0,0,1,3.08-2.07,4.48,4.48,0,0,1,1.23.16Z"/><path class="cls-5" d="M121.2,262a7.25,7.25,0,0,1-5.24-1.93,6.68,6.68,0,0,1-2-5v-.36a8.68,8.68,0,0,1,.8-3.81,5.87,5.87,0,0,1,2.34-2.56,7.07,7.07,0,0,1,3.64-.91,6.09,6.09,0,0,1,4.69,1.85,7.2,7.2,0,0,1,1.72,5.13v1.71h-8.72a3.12,3.12,0,0,0,1,1.86,3,3,0,0,0,2,.67,4,4,0,0,0,3.26-1.45l2,2.36a5.63,5.63,0,0,1-2.32,1.81A8,8,0,0,1,121.2,262Zm-.49-11.22c-1.29,0-2,.85-2.29,2.55h4.42V253a2.16,2.16,0,0,0-.53-1.63A2.11,2.11,0,0,0,120.71,250.8Z"/><path class="cls-5" d="M141.5,258.63a1.93,1.93,0,0,0,1.43-.5,1.82,1.82,0,0,0,.49-1.4h4.11a4.87,4.87,0,0,1-1.65,3.8,7,7,0,0,1-9.12-.44,7.57,7.57,0,0,1-1.77-5.33v-.19a8.67,8.67,0,0,1,.78-3.77,5.85,5.85,0,0,1,2.28-2.51,6.82,6.82,0,0,1,3.51-.88,6.09,6.09,0,0,1,4.36,1.53,5.37,5.37,0,0,1,1.61,4.12h-4.11a2.43,2.43,0,0,0-.53-1.68,1.84,1.84,0,0,0-1.43-.58c-1.14,0-1.8.72-2,2.17a15.6,15.6,0,0,0-.09,1.9,6,6,0,0,0,.51,2.94A1.76,1.76,0,0,0,141.5,258.63Z"/><path class="cls-5" d="M156.2,262a7.25,7.25,0,0,1-5.24-1.93,6.68,6.68,0,0,1-2-5v-.36a8.68,8.68,0,0,1,.8-3.81,5.87,5.87,0,0,1,2.34-2.56,7.07,7.07,0,0,1,3.64-.91,6.09,6.09,0,0,1,4.69,1.85,7.2,7.2,0,0,1,1.72,5.13v1.71h-8.72a3.12,3.12,0,0,0,1,1.86,3,3,0,0,0,2.05.67,4,4,0,0,0,3.26-1.45l2,2.36a5.63,5.63,0,0,1-2.32,1.81A8,8,0,0,1,156.2,262Zm-.49-11.22c-1.29,0-2.05.85-2.29,2.55h4.42V253a2.16,2.16,0,0,0-.53-1.63A2.11,2.11,0,0,0,155.71,250.8Z"/><path class="cls-5" d="M172.42,251.64l-1.44-.1c-1.38,0-2.27.43-2.66,1.3v8.92h-4.38V247.67h4.11l.14,1.81a3.4,3.4,0,0,1,3.09-2.07,4.4,4.4,0,0,1,1.22.16Z"/><path class="cls-5" d="M173,254.59a8.28,8.28,0,0,1,.82-3.76,5.84,5.84,0,0,1,2.36-2.53,7.07,7.07,0,0,1,3.6-.89,6.51,6.51,0,0,1,5,2,7.56,7.56,0,0,1,1.82,5.33v.16a7.31,7.31,0,0,1-1.83,5.23,7.35,7.35,0,0,1-9.78.13,7.13,7.13,0,0,1-2-4.89Zm4.39.27a5.2,5.2,0,0,0,.61,2.86,2,2,0,0,0,1.81.91c1.56,0,2.36-1.2,2.39-3.6v-.44c0-2.53-.8-3.79-2.42-3.79-1.46,0-2.26,1.09-2.38,3.27Z"/><path class="cls-5" d="M14.06,280.29a8.53,8.53,0,0,1-1.48,5.24,4.77,4.77,0,0,1-4,2,4.08,4.08,0,0,1-3.19-1.42v6.57H1v-19.5h4.1l.13,1.3a4.06,4.06,0,0,1,3.32-1.56,4.77,4.77,0,0,1,4,1.92,8.62,8.62,0,0,1,1.45,5.28ZM9.67,280q0-3.75-2.19-3.75a2.06,2.06,0,0,0-2.08,1.12v5.54a2.13,2.13,0,0,0,2.11,1.17c1.4,0,2.11-1.2,2.16-3.62Z"/><path class="cls-5" d="M23.92,287.23A5.66,5.66,0,0,1,23.5,286a4.05,4.05,0,0,1-3.38,1.53,5,5,0,0,1-3.38-1.21,3.83,3.83,0,0,1-1.4-3,4,4,0,0,1,1.7-3.47A8.59,8.59,0,0,1,22,278.62h1.35v-.74q0-2-1.68-1.95a1.37,1.37,0,0,0-1.56,1.54H15.68a3.92,3.92,0,0,1,1.74-3.31,7.31,7.31,0,0,1,4.43-1.28,6.39,6.39,0,0,1,4.26,1.32,4.58,4.58,0,0,1,1.6,3.6V284a6.4,6.4,0,0,0,.6,3v.23Zm-2.75-2.87a2.45,2.45,0,0,0,1.37-.35,2.22,2.22,0,0,0,.77-.79V281H22c-1.52,0-2.29.68-2.29,2a1.26,1.26,0,0,0,.41,1A1.44,1.44,0,0,0,21.17,284.36Z"/><path class="cls-5" d="M38.66,277.11l-1.45-.1c-1.38,0-2.26.43-2.65,1.3v8.92H30.17V273.14h4.11l.15,1.81a3.38,3.38,0,0,1,3.08-2.07,4,4,0,0,1,1.22.16Z"/><path class="cls-5" d="M47.78,287.23a4.79,4.79,0,0,1-.42-1.27A4.05,4.05,0,0,1,44,287.49a5,5,0,0,1-3.38-1.21,3.83,3.83,0,0,1-1.4-3,4,4,0,0,1,1.69-3.47,8.64,8.64,0,0,1,4.92-1.17h1.36v-.74q0-2-1.68-1.95a1.37,1.37,0,0,0-1.56,1.54H39.54a3.92,3.92,0,0,1,1.74-3.31,7.29,7.29,0,0,1,4.43-1.28A6.39,6.39,0,0,1,50,274.2a4.58,4.58,0,0,1,1.6,3.6V284a6.15,6.15,0,0,0,.6,3v.23ZM45,284.36a2.39,2.39,0,0,0,1.36-.35,2.25,2.25,0,0,0,.78-.79V281H45.89c-1.52,0-2.29.68-2.29,2a1.26,1.26,0,0,0,.41,1A1.42,1.42,0,0,0,45,284.36Z"/><path class="cls-5" d="M73.79,287.23H60.56v-2.87l6.09-6.4c1.5-1.71,2.26-3.07,2.26-4.08a2.83,2.83,0,0,0-.54-1.86,2.08,2.08,0,0,0-3.17.22,3.49,3.49,0,0,0-.63,2.13h-4.4a6.26,6.26,0,0,1,.87-3.23,6.19,6.19,0,0,1,2.42-2.31,7.29,7.29,0,0,1,3.47-.83,7.07,7.07,0,0,1,4.73,1.42,5.08,5.08,0,0,1,1.66,4.07,5.83,5.83,0,0,1-.42,2.18,9.85,9.85,0,0,1-1.29,2.23A31.79,31.79,0,0,1,68.77,281l-2.44,2.82h7.46Z"/><path class="cls-5" d="M89.16,279.48a9,9,0,0,1-1.73,5.92,6.72,6.72,0,0,1-9.75,0A9,9,0,0,1,76,279.48V276a9,9,0,0,1,1.72-5.92,6.73,6.73,0,0,1,9.76,0A9.08,9.08,0,0,1,89.16,276Zm-4.39-4a6.84,6.84,0,0,0-.53-3,1.78,1.78,0,0,0-1.69-1,1.73,1.73,0,0,0-1.65.94,6.3,6.3,0,0,0-.55,2.83V280a6.77,6.77,0,0,0,.53,3.1,1.94,1.94,0,0,0,3.35,0,6.62,6.62,0,0,0,.54-3Z"/><path class="cls-5" d="M95.44,275.92h2.07a2.16,2.16,0,0,0,2.46-2.41,2.07,2.07,0,0,0-.58-1.53,2.19,2.19,0,0,0-1.65-.59,2.36,2.36,0,0,0-1.52.5,1.56,1.56,0,0,0-.65,1.27H91.19a4.52,4.52,0,0,1,.83-2.67,5.58,5.58,0,0,1,2.31-1.83,7.9,7.9,0,0,1,3.25-.66,7.7,7.7,0,0,1,5,1.45,4.78,4.78,0,0,1,1.81,4,4,4,0,0,1-.75,2.31,5.32,5.32,0,0,1-2.18,1.76,5.05,5.05,0,0,1,2.37,1.66,4.38,4.38,0,0,1,.86,2.75,4.89,4.89,0,0,1-2,4.06,8.07,8.07,0,0,1-5.13,1.53,8.5,8.5,0,0,1-3.46-.71,5.47,5.47,0,0,1-2.41-2,5.09,5.09,0,0,1-.82-2.86H95.3a2,2,0,0,0,.7,1.51,2.48,2.48,0,0,0,1.74.64,2.58,2.58,0,0,0,1.84-.64,2.16,2.16,0,0,0,.69-1.65,2.51,2.51,0,0,0-.71-2,3,3,0,0,0-2-.6H95.44Z"/><path class="cls-5" d="M120,279.48a9,9,0,0,1-1.72,5.92,6.73,6.73,0,0,1-9.76,0,9.07,9.07,0,0,1-1.73-5.91V276a9,9,0,0,1,1.73-5.92,6.72,6.72,0,0,1,9.75,0A9,9,0,0,1,120,276Zm-4.38-4a6.68,6.68,0,0,0-.54-3,1.92,1.92,0,0,0-3.34-.07,6.44,6.44,0,0,0-.55,2.83V280a6.9,6.9,0,0,0,.53,3.1,1.81,1.81,0,0,0,1.7,1,1.78,1.78,0,0,0,1.65-1,6.6,6.6,0,0,0,.55-3Z"/></g></g></svg>