<svg xmlns="http://www.w3.org/2000/svg" viewBox="0 0 581.81 380.3"><defs><style>.cls-1{fill:#06c;}.cls-2{fill:#fc0;}.cls-3{fill:#666;}.cls-4{fill:none;stroke:#666;stroke-linecap:round;stroke-linejoin:round;stroke-width:8px;}</style></defs><g id="Capa_2" data-name="Capa 2"><g id="Capa_1-2" data-name="Capa 1"><path class="cls-1" d="M104.8,19.51a15.94,15.94,0,0,1-2.5,8.89,18.25,18.25,0,0,1-6.87,6.19,20.12,20.12,0,0,1,7.85,6.64,17.12,17.12,0,0,1,2.9,10q0,9.29-6.4,14.66T82.15,71.22q-11.27,0-17.79-5.4T57.84,51.19a17.31,17.31,0,0,1,2.86-9.85,19.39,19.39,0,0,1,8.08-6.75,18.32,18.32,0,0,1-6.94-6.19,15.87,15.87,0,0,1-2.52-8.89q0-9,6.13-14.28T82,0Q92.53,0,98.66,5.23T104.8,19.51ZM90.1,49.91a9.16,9.16,0,0,0-2.21-6.59,8.54,8.54,0,0,0-11.68,0C74.71,44.86,74,47.05,74,49.91a9.14,9.14,0,0,0,2.26,6.54,7.76,7.76,0,0,0,5.92,2.4,7.45,7.45,0,0,0,5.76-2.38A9.3,9.3,0,0,0,90.1,49.91ZM82,12.37a5.91,5.91,0,0,0-4.92,2.12,9.16,9.16,0,0,0-1.69,5.87,9.77,9.77,0,0,0,1.71,6,5.91,5.91,0,0,0,5,2.28,5.69,5.69,0,0,0,4.93-2.28,10.1,10.1,0,0,0,1.64-6A9.25,9.25,0,0,0,87,14.51,6,6,0,0,0,82,12.37Z"/><path class="cls-1" d="M120.4,88.92l-8.08-3.81,1.61-3.23a26.47,26.47,0,0,0,3.48-11.8V58.19h12.84l-.05,10.32a25.73,25.73,0,0,1-2.8,11.13A28.16,28.16,0,0,1,120.4,88.92Z"/><path class="cls-1" d="M172.36,43.48a17,17,0,0,1-11.61,4.67q-9.42,0-14.94-6.38t-5.52-17a25.59,25.59,0,0,1,3.09-12.37,23.23,23.23,0,0,1,8.69-9A23.64,23.64,0,0,1,164.41,0a23,23,0,0,1,12.4,3.45,23.25,23.25,0,0,1,8.63,9.75,33.52,33.52,0,0,1,3.19,14.54v6.13q0,11.48-4.5,19.89A30.94,30.94,0,0,1,171.31,66.7a40,40,0,0,1-19.41,4.52h-1V58.38l3-.05Q170.5,57.52,172.36,43.48Zm-7.28-6.89a7.82,7.82,0,0,0,7.52-4.52V25.41q0-6.66-2.24-9.85a7,7,0,0,0-6-3.19c-2.26,0-4.14,1.21-5.66,3.62a16,16,0,0,0-2.29,8.75,14.46,14.46,0,0,0,2.33,8.64A7.47,7.47,0,0,0,165.08,36.59Z"/><path class="cls-1" d="M197.24,14.32A13.6,13.6,0,0,1,201.43,4Q205.62,0,212.66,0t11.27,3.92q4.14,3.93,4.14,10.64V18a13.52,13.52,0,0,1-4.14,10.33q-4.14,3.9-11.18,3.9T201.5,28.33q-4.26-3.87-4.26-10.63ZM207.56,18a5.77,5.77,0,0,0,1.38,4,4.87,4.87,0,0,0,3.81,1.53q5,0,5-6.33V14.33a6.06,6.06,0,0,0-1.34-4,4.61,4.61,0,0,0-3.75-1.58,4.76,4.76,0,0,0-3.72,1.53,6,6,0,0,0-1.38,4.19Zm8.24,47.11-7.47-3.75L242.15,7.18l7.47,3.76Zm14.36-11.79a13.51,13.51,0,0,1,4.21-10.38q4.22-3.9,11.21-3.9t11.27,3.86Q261,46.72,261,53.62V57a13.58,13.58,0,0,1-4.14,10.37q-4.14,3.9-11.23,3.9t-11.25-3.88q-4.26-3.87-4.26-10.63Zm10.28,3.65a5.65,5.65,0,0,0,1.52,3.9,4.84,4.84,0,0,0,3.71,1.68c3.08,0,4.74-1.45,5-4.35l.05-4.87a5.81,5.81,0,0,0-1.38-4,5.37,5.37,0,0,0-7.42-.1,5.68,5.68,0,0,0-1.48,3.9Z"/><path class="cls-1" d="M287.57,21.92q0-5.22,2.25-8.22a7.42,7.42,0,0,1,6.29-3A6.31,6.31,0,0,1,301.06,13V1.89h6.86V33.06h-6.15l-.34-2.35a6.48,6.48,0,0,1-5.36,2.76,7.39,7.39,0,0,1-6.21-3Q287.56,27.46,287.57,21.92Zm6.84.43c0,3.89,1.13,5.84,3.41,5.84a3.37,3.37,0,0,0,3.24-1.91V17.92a3.27,3.27,0,0,0-3.2-2c-2.11,0-3.26,1.71-3.43,5.12Z"/><path class="cls-1" d="M322.43,33.47a11.3,11.3,0,0,1-8.18-3,10.41,10.41,0,0,1-3.12-7.84V22a13.34,13.34,0,0,1,1.25-5.94,9.09,9.09,0,0,1,3.64-4,11,11,0,0,1,5.68-1.41A9.53,9.53,0,0,1,329,13.57q2.67,2.87,2.67,8v2.65H318.09a5,5,0,0,0,1.6,2.91,4.81,4.81,0,0,0,3.21,1.05A6.16,6.16,0,0,0,328,25.92l3.13,3.69a8.76,8.76,0,0,1-3.63,2.81A12.17,12.17,0,0,1,322.43,33.47ZM321.66,16q-3,0-3.57,4H325v-.53a3.41,3.41,0,0,0-.83-2.54A3.35,3.35,0,0,0,321.66,16Z"/><path class="cls-1" d="M352,33.06h-6.86V1.89H352Z"/><path class="cls-1" d="M368.57,33.06a7.94,7.94,0,0,1-.64-2,6.38,6.38,0,0,1-5.28,2.38,7.81,7.81,0,0,1-5.28-1.88,6,6,0,0,1-2.17-4.72,6.15,6.15,0,0,1,2.64-5.4q2.64-1.81,7.67-1.82h2.11V18.49c0-2-.87-3-2.62-3a2.13,2.13,0,0,0-2.43,2.4h-6.84a6.1,6.1,0,0,1,2.71-5.16,11.34,11.34,0,0,1,6.91-2A9.94,9.94,0,0,1,372,12.75a7.1,7.1,0,0,1,2.5,5.62v9.72a10.1,10.1,0,0,0,.93,4.63v.34Zm-4.28-4.46a3.84,3.84,0,0,0,2.12-.55,3.47,3.47,0,0,0,1.21-1.24V23.3h-2q-3.57,0-3.57,3.21a2,2,0,0,0,.63,1.51A2.29,2.29,0,0,0,364.29,28.6Z"/><path class="cls-1" d="M308.81,62a13.22,13.22,0,0,1-2.3,8.17,7.39,7.39,0,0,1-6.22,3,6.35,6.35,0,0,1-5-2.21V81.21h-6.84V50.81h6.39l.21,2a6.33,6.33,0,0,1,5.17-2.44,7.43,7.43,0,0,1,6.31,3c1.5,2,2.25,4.74,2.25,8.23ZM302,61.52q0-5.84-3.41-5.84a3.22,3.22,0,0,0-3.25,1.74v8.65a3.33,3.33,0,0,0,3.29,1.83q3.27,0,3.37-5.65Z"/><path class="cls-1" d="M311,61.58a13,13,0,0,1,1.27-5.85,9.2,9.2,0,0,1,3.68-3.95,11,11,0,0,1,5.62-1.38,10.09,10.09,0,0,1,7.77,3.06q2.83,3,2.84,8.31V62a11.39,11.39,0,0,1-2.85,8.15,10.12,10.12,0,0,1-7.72,3,10.24,10.24,0,0,1-7.53-2.81A11,11,0,0,1,311,62.74Zm6.83.43a8.15,8.15,0,0,0,1,4.47,3.18,3.18,0,0,0,2.82,1.42c2.43,0,3.68-1.88,3.73-5.63v-.69q0-5.89-3.77-5.9-3.44,0-3.72,5.09Z"/><path class="cls-1" d="M355.55,62q0,5.4-2.24,8.3a7.47,7.47,0,0,1-6.29,2.9,6.45,6.45,0,0,1-5.39-2.66l-.29,2.26h-6.12V41.6h6.83v11A6.26,6.26,0,0,1,347,50.4a7.44,7.44,0,0,1,6.33,3q2.24,2.94,2.24,8.28Zm-6.86-.44a8.94,8.94,0,0,0-.84-4.5,2.84,2.84,0,0,0-2.59-1.35,3.29,3.29,0,0,0-3.21,1.76v8.71a3.32,3.32,0,0,0,3.25,1.75,2.9,2.9,0,0,0,3.06-2.35A16.67,16.67,0,0,0,348.69,61.53Z"/><path class="cls-1" d="M365.77,72.77h-6.85V41.6h6.85Z"/><path class="cls-1" d="M382.35,72.77a8,8,0,0,1-.65-2,6.34,6.34,0,0,1-5.27,2.37,7.76,7.76,0,0,1-5.28-1.88A6,6,0,0,1,369,66.58a6.15,6.15,0,0,1,2.64-5.4c1.76-1.22,4.31-1.83,7.67-1.83h2.11V58.19c0-2-.87-3-2.62-3a2.14,2.14,0,0,0-2.43,2.41h-6.84a6.12,6.12,0,0,1,2.71-5.17,11.4,11.4,0,0,1,6.91-2,10,10,0,0,1,6.63,2.05,7.11,7.11,0,0,1,2.5,5.62v9.72a10.07,10.07,0,0,0,.93,4.63v.35Zm-4.28-4.47a3.78,3.78,0,0,0,2.12-.55,3.37,3.37,0,0,0,1.21-1.23V63h-2c-2.38,0-3.57,1.06-3.57,3.2a2,2,0,0,0,.63,1.51A2.25,2.25,0,0,0,378.07,68.3Z"/><path class="cls-1" d="M401.33,67.9a3,3,0,0,0,2.23-.79,2.85,2.85,0,0,0,.77-2.18h6.41a7.58,7.58,0,0,1-2.59,5.93,9.61,9.61,0,0,1-6.66,2.31,9.76,9.76,0,0,1-7.55-3c-1.84-2-2.76-4.78-2.76-8.32v-.29a13.36,13.36,0,0,1,1.23-5.87A9,9,0,0,1,396,51.77a10.59,10.59,0,0,1,5.48-1.37,9.53,9.53,0,0,1,6.8,2.38,8.43,8.43,0,0,1,2.51,6.43h-6.41a3.78,3.78,0,0,0-.83-2.62,2.87,2.87,0,0,0-2.23-.91c-1.78,0-2.81,1.13-3.11,3.39a24.92,24.92,0,0,0-.14,3,9.39,9.39,0,0,0,.79,4.59A2.75,2.75,0,0,0,401.33,67.9Z"/><path class="cls-1" d="M413.58,45.15a3,3,0,0,1,1.06-2.4,4.5,4.5,0,0,1,5.48,0,3.26,3.26,0,0,1,0,4.79,4.46,4.46,0,0,1-5.48,0A3,3,0,0,1,413.58,45.15Zm7.27,27.62H414v-22h6.86Z"/><path class="cls-1" d="M424.2,61.58a13,13,0,0,1,1.27-5.85,9.2,9.2,0,0,1,3.68-3.95,11,11,0,0,1,5.62-1.38,10.09,10.09,0,0,1,7.77,3.06q2.83,3,2.84,8.31V62a11.39,11.39,0,0,1-2.85,8.15,10.11,10.11,0,0,1-7.72,3,10.24,10.24,0,0,1-7.53-2.81,11,11,0,0,1-3.06-7.62ZM431,62a8.15,8.15,0,0,0,1,4.47,3.18,3.18,0,0,0,2.82,1.42c2.43,0,3.68-1.88,3.73-5.63v-.69q0-5.89-3.77-5.9-3.43,0-3.72,5.09ZM435.7,41.6h7.22L437.28,48H431.7Z"/><path class="cls-1" d="M454.67,50.81l.23,2.58a7.43,7.43,0,0,1,6.27-3,6.28,6.28,0,0,1,5.12,2.05q1.69,2.05,1.76,6.17V72.77h-6.86V58.91a3.75,3.75,0,0,0-.67-2.45,3.11,3.11,0,0,0-2.44-.78,3.26,3.26,0,0,0-3,1.58V72.77h-6.84v-22Z"/><path class="cls-1" d="M294.89,90.51l.23,2.58a7.53,7.53,0,0,1,6.27-3c2.77,0,4.65,1.1,5.62,3.31a7.3,7.3,0,0,1,6.45-3.31q6.68,0,6.86,8.07v14.29h-6.86V98.61a4.15,4.15,0,0,0-.57-2.45,2.41,2.41,0,0,0-2.07-.78,3.25,3.25,0,0,0-3,1.81l0,.28v15H301V98.65a4.33,4.33,0,0,0-.55-2.49,2.39,2.39,0,0,0-2.09-.78,3.29,3.29,0,0,0-3,1.81v15.28h-6.84v-22Z"/><path class="cls-1" d="M337.31,110.1a7.08,7.08,0,0,1-5.87,2.78,6.92,6.92,0,0,1-5.47-2.1,8.84,8.84,0,0,1-1.85-6V90.51H331v14.27c0,1.88.92,2.82,2.74,2.82a3.58,3.58,0,0,0,3.35-1.68V90.51h6.88v22h-6.41Z"/><path class="cls-1" d="M353.94,90.51l.23,2.58a7.43,7.43,0,0,1,6.27-3,6.25,6.25,0,0,1,5.12,2q1.69,2,1.76,6.17v14.14h-6.86V98.61a3.72,3.72,0,0,0-.67-2.44,3.11,3.11,0,0,0-2.44-.79,3.25,3.25,0,0,0-3,1.59v15.5h-6.84v-22Z"/><path class="cls-1" d="M370.24,101.33q0-5.22,2.25-8.22a7.42,7.42,0,0,1,6.29-3,6.31,6.31,0,0,1,5,2.31V81.3h6.86v31.17h-6.15l-.34-2.35a6.48,6.48,0,0,1-5.36,2.76,7.39,7.39,0,0,1-6.21-3Q370.24,106.87,370.24,101.33Zm6.84.43c0,3.89,1.13,5.84,3.41,5.84a3.37,3.37,0,0,0,3.24-1.91V97.33a3.27,3.27,0,0,0-3.2-2c-2.11,0-3.26,1.71-3.43,5.12Z"/><path class="cls-1" d="M394.43,84.85a3.05,3.05,0,0,1,1.05-2.39,4.46,4.46,0,0,1,5.48,0,3.24,3.24,0,0,1,0,4.79,4.5,4.5,0,0,1-5.48,0A3.07,3.07,0,0,1,394.43,84.85Zm7.26,27.62h-6.86v-22h6.86Z"/><path class="cls-1" d="M418.27,112.47a7.89,7.89,0,0,1-.65-2,6.37,6.37,0,0,1-5.27,2.38,7.81,7.81,0,0,1-5.28-1.88,6,6,0,0,1-2.17-4.72,6.15,6.15,0,0,1,2.64-5.4q2.63-1.81,7.67-1.82h2.11V97.9c0-2-.88-3-2.62-3a2.14,2.14,0,0,0-2.44,2.4h-6.83a6.13,6.13,0,0,1,2.71-5.17,11.37,11.37,0,0,1,6.9-2,10,10,0,0,1,6.64,2,7.13,7.13,0,0,1,2.5,5.62v9.72a9.85,9.85,0,0,0,.93,4.63v.34ZM414,108a3.86,3.86,0,0,0,2.12-.55,3.55,3.55,0,0,0,1.21-1.24v-3.51h-2q-3.57,0-3.57,3.21a2,2,0,0,0,.63,1.51A2.29,2.29,0,0,0,414,108Z"/><path class="cls-1" d="M435.17,112.47h-6.86V81.3h6.86Z"/><path class="cls-1" d="M469.27,101.84A13.22,13.22,0,0,1,467,110a7.39,7.39,0,0,1-6.22,3,6.35,6.35,0,0,1-5-2.21V121.1h-6.84V90.7h6.39l.21,2a6.3,6.3,0,0,1,5.17-2.44,7.43,7.43,0,0,1,6.31,3q2.25,3,2.25,8.22Zm-6.83-.43q0-5.84-3.41-5.84a3.22,3.22,0,0,0-3.25,1.74V106a3.32,3.32,0,0,0,3.29,1.82q3.27,0,3.37-5.64Z"/><path class="cls-1" d="M484.66,112.65a7.41,7.41,0,0,1-.65-2,6.37,6.37,0,0,1-5.28,2.37,7.81,7.81,0,0,1-5.28-1.88,6,6,0,0,1-2.17-4.72,6.12,6.12,0,0,1,2.64-5.39q2.64-1.83,7.67-1.83h2.11V98.08c0-2-.87-3-2.62-3a2.14,2.14,0,0,0-2.43,2.41h-6.84a6.11,6.11,0,0,1,2.71-5.17,11.36,11.36,0,0,1,6.91-2,10,10,0,0,1,6.63,2,7.11,7.11,0,0,1,2.5,5.62v9.72a10.07,10.07,0,0,0,.93,4.63v.34Zm-4.29-4.46a3.75,3.75,0,0,0,2.12-.55,3.31,3.31,0,0,0,1.21-1.24v-3.51h-2q-3.57,0-3.57,3.21a2,2,0,0,0,.63,1.51A2.25,2.25,0,0,0,480.37,108.19Z"/><path class="cls-1" d="M493.48,101.51q0-5.2,2.26-8.21a7.39,7.39,0,0,1,6.29-3,6.29,6.29,0,0,1,5,2.32V81.48h6.86v31.17h-6.15l-.35-2.35a6.47,6.47,0,0,1-5.35,2.76,7.38,7.38,0,0,1-6.21-3C494.25,108.05,493.48,105.21,493.48,101.51Zm6.84.43c0,3.9,1.14,5.84,3.41,5.84a3.37,3.37,0,0,0,3.25-1.9V97.52a3.28,3.28,0,0,0-3.21-2q-3.16,0-3.43,5.11Z"/><path class="cls-1" d="M528.34,113.06a11.27,11.27,0,0,1-8.17-3A10.4,10.4,0,0,1,517,102.2v-.56a13.52,13.52,0,0,1,1.25-6,9.15,9.15,0,0,1,3.64-4,11,11,0,0,1,5.68-1.41,9.53,9.53,0,0,1,7.31,2.87c1.78,1.92,2.68,4.59,2.68,8v2.66H524a5,5,0,0,0,1.61,2.9,4.76,4.76,0,0,0,3.2,1,6.11,6.11,0,0,0,5.07-2.27L537,109.2a8.65,8.65,0,0,1-3.62,2.81A12.25,12.25,0,0,1,528.34,113.06Zm-.77-17.49c-2,0-3.19,1.32-3.57,4h6.9V99a3.38,3.38,0,0,0-.83-2.55A3.31,3.31,0,0,0,527.57,95.57Z"/><path class="cls-1" d="M549.63,107.78a3,3,0,0,0,2.23-.78,2.83,2.83,0,0,0,.77-2.18h6.42a7.63,7.63,0,0,1-2.59,5.93,9.65,9.65,0,0,1-6.67,2.31,9.76,9.76,0,0,1-7.55-3q-2.76-3-2.76-8.32v-.29a13.33,13.33,0,0,1,1.23-5.87,8.94,8.94,0,0,1,3.54-3.92,10.61,10.61,0,0,1,5.48-1.37,9.47,9.47,0,0,1,6.8,2.38,8.4,8.4,0,0,1,2.52,6.43h-6.42a3.73,3.73,0,0,0-.83-2.62,2.86,2.86,0,0,0-2.23-.91c-1.77,0-2.81,1.13-3.1,3.39a22.52,22.52,0,0,0-.15,3,9.54,9.54,0,0,0,.79,4.59A2.75,2.75,0,0,0,549.63,107.78Z"/><path class="cls-1" d="M572.56,113.06a11.29,11.29,0,0,1-8.18-3,10.43,10.43,0,0,1-3.12-7.85v-.56a13.39,13.39,0,0,1,1.25-6,9.09,9.09,0,0,1,3.64-4,11,11,0,0,1,5.68-1.41,9.54,9.54,0,0,1,7.31,2.87q2.67,2.88,2.67,8v2.66H568.22a5,5,0,0,0,1.6,2.9,4.81,4.81,0,0,0,3.21,1,6.13,6.13,0,0,0,5.07-2.27l3.13,3.69A8.68,8.68,0,0,1,577.6,112,12.17,12.17,0,0,1,572.56,113.06Zm-.77-17.49c-2,0-3.19,1.32-3.57,4h6.9V99a3.42,3.42,0,0,0-.83-2.55A3.34,3.34,0,0,0,571.79,95.57Z"/><path class="cls-1" d="M294.41,131.05a7.51,7.51,0,0,1,11.08-.61c1.23,1.44,1.86,3.55,1.88,6.35v13.86h-6.85V137a3.89,3.89,0,0,0-.71-2.57,3.06,3.06,0,0,0-2.42-.82,3.26,3.26,0,0,0-3,1.34v15.74h-6.84V119.48h6.84Z"/><path class="cls-1" d="M323.55,150.65a7.41,7.41,0,0,1-.65-2,6.37,6.37,0,0,1-5.28,2.37,7.77,7.77,0,0,1-5.27-1.88,6,6,0,0,1-2.18-4.72,6.12,6.12,0,0,1,2.64-5.39q2.64-1.83,7.67-1.83h2.11v-1.16c0-2-.87-3-2.62-3a2.14,2.14,0,0,0-2.43,2.41H310.7a6.11,6.11,0,0,1,2.71-5.17,11.36,11.36,0,0,1,6.91-2,10,10,0,0,1,6.64,2.05,7.13,7.13,0,0,1,2.49,5.62v9.72a9.93,9.93,0,0,0,.94,4.63v.34Zm-4.29-4.46a3.81,3.81,0,0,0,2.13-.55,3.36,3.36,0,0,0,1.2-1.24v-3.51h-2q-3.57,0-3.57,3.21a2,2,0,0,0,.63,1.51A2.27,2.27,0,0,0,319.26,146.19Z"/><path class="cls-1" d="M339.7,128.7l.22,2.57a7.58,7.58,0,0,1,6.27-3c2.78,0,4.65,1.11,5.62,3.31a7.33,7.33,0,0,1,6.46-3.31q6.68,0,6.86,8.08v14.28h-6.86V136.79a4.15,4.15,0,0,0-.57-2.45,2.41,2.41,0,0,0-2.07-.77,3.26,3.26,0,0,0-3,1.8l0,.29v15h-6.86V136.83a4.43,4.43,0,0,0-.55-2.49,2.4,2.4,0,0,0-2.09-.77,3.27,3.27,0,0,0-3,1.8v15.28h-6.84v-22Z"/><path class="cls-1" d="M389.41,139.86c0,3.6-.74,6.36-2.23,8.3a7.48,7.48,0,0,1-6.29,2.9,6.51,6.51,0,0,1-5.4-2.66l-.28,2.25h-6.13V119.48h6.84v11a6.29,6.29,0,0,1,4.93-2.17,7.48,7.48,0,0,1,6.33,2.94q2.24,3,2.23,8.28Zm-6.85-.44a9,9,0,0,0-.85-4.51,2.84,2.84,0,0,0-2.58-1.34,3.27,3.27,0,0,0-3.21,1.76V144a3.29,3.29,0,0,0,3.25,1.74,2.89,2.89,0,0,0,3.06-2.35A16.57,16.57,0,0,0,382.56,139.42Z"/><path class="cls-1" d="M405.71,134.89l-2.25-.16q-3.22,0-4.14,2v13.9h-6.84v-22h6.41l.22,2.82c1.15-2.15,2.76-3.23,4.81-3.23a6.41,6.41,0,0,1,1.91.25Z"/><path class="cls-1" d="M418.8,151.06a11.28,11.28,0,0,1-8.18-3,10.44,10.44,0,0,1-3.13-7.85v-.56a13.52,13.52,0,0,1,1.25-5.95,9.11,9.11,0,0,1,3.65-4,11,11,0,0,1,5.68-1.41,9.5,9.5,0,0,1,7.3,2.87q2.69,2.88,2.68,8v2.66H414.46a4.9,4.9,0,0,0,1.6,2.9,4.76,4.76,0,0,0,3.2,1.05,6.14,6.14,0,0,0,5.08-2.27l3.12,3.69a8.65,8.65,0,0,1-3.62,2.81A12.17,12.17,0,0,1,418.8,151.06ZM418,133.57c-2,0-3.2,1.32-3.57,4h6.89V137a3.38,3.38,0,0,0-.83-2.55A3.3,3.3,0,0,0,418,133.57Z"/><path class="cls-2" d="M186.89,130.49a128.52,128.52,0,0,0-88.37-.24c-33.12,12-45.4,52.52-24.92,81.18l36.61,51.24a21.55,21.55,0,0,1-15.91,34L62.42,299.1c-19.37,1.46-28.8,24.58-15.79,39a128.31,128.31,0,0,0,51.23,34.58c66.88,24.59,153.72-12.62,178.31-79.51S253.77,155.08,186.89,130.49Z"/><path class="cls-2" d="M99,117c-.12-5.57-.42-11.91-4.69-15.49-4.73-4-12-2.44-17.37.59-7.39,4.15-13.45,10.93-15.94,19s-1.11,17.5,4.28,24c5.73,7,18.13,26.38,27.18,21.75C101.78,162.19,99.21,125.81,99,117Z"/><circle class="cls-3" cx="34.54" cy="219.87" r="10.4"/><circle class="cls-2" cx="10.4" cy="225.7" r="10.4"/><circle class="cls-2" cx="55.35" cy="244.43" r="10.4"/><circle class="cls-2" cx="26.22" cy="186.16" r="10.4"/><path class="cls-4" d="M115.1,153.89A51.32,51.32,0,0,1,148.78,226"/><path class="cls-4" d="M171.62,265.57c7.22-.36,14.56-.71,21.59,1s13.84,5.72,17.18,12.13c3.8,7.31,2.41,16.53-1.85,23.58a33,33,0,0,1-53,4.63"/><path class="cls-4" d="M176.22,262.21c28.35-23.48,75.52-31,111.32-22.47"/><path class="cls-4" d="M177.8,213c35.43-16,76.72-14.13,109.74,6.38"/><path class="cls-4" d="M179.35,170.69c31.35-15,71.24-10.14,98,12"/><path class="cls-4" d="M159.54,104.69a131.86,131.86,0,0,1,129,140.85"/></g></g></svg>