<svg xmlns="http://www.w3.org/2000/svg" viewBox="0 0 473.51 186.96"><defs><style>.cls-1{fill:#fc0;}.cls-2,.cls-3{fill:none;stroke:#666;stroke-linecap:round;stroke-linejoin:round;}.cls-2{stroke-width:5.14px;}.cls-3{stroke-width:4.84px;}.cls-4{fill:#fff;}</style></defs><g id="Capa_2" data-name="Capa 2"><g id="Capa_1-2" data-name="Capa 1"><path class="cls-1" d="M417.16,186.68l-33.73-3.39c-31.12-3.12-56.34-31.5-56.34-63.38V95c0-31.88,23.26-69.85,54.38-66.73h11.36c49.54,5,80.68,39.92,80.68,90.67v15.69C473.51,166.49,448.28,189.8,417.16,186.68Z"/><path class="cls-1" d="M407.54,17,408,5.29c.09-2.49-2.41-4-4.05-2.44l-9.4,8.92a2.25,2.25,0,0,1-3.41-.35L383.08,1c-1.45-1.88-4.09-.92-4.27,1.55l-1,14.2a2.52,2.52,0,0,1-2.56,2.54l-11.89-1c-2.14-.18-3.37,2.69-2,4.63l8.78,6.2a3.22,3.22,0,0,1,0,3.71l-8.84,7.4c-1.4,1.85-.19,4.8,1.95,4.78l10.14-.1a2.77,2.77,0,0,1,2.55,3l-.25,12.15c0,2.49,2.48,3.94,4.09,2.34l8.94-8.83a2.23,2.23,0,0,1,3.4.28l8.5,10.6c1.48,1.85,4.1.83,4.24-1.65l.76-13.75a2.56,2.56,0,0,1,2.52-2.6l12.31.73c2.14.12,3.32-2.77,1.9-4.68l-9.16-8.1a3.2,3.2,0,0,1,0-3.78L422.4,25c1.43-1.82.27-4.79-1.88-4.82L410,20.09A2.8,2.8,0,0,1,407.54,17Z"/><path class="cls-2" d="M426.2,166.64c-15.24-9.74-30.45-10.4-41.94-6.59-13.73,4.55-23.23-2.63-21.67-13.93h0c1.56-11.31,12.65-19.17,24.66-17.47l41.94,6.59c12,1.7,20.56,12.34,19,23.65h0C446.64,170.2,441.11,176.17,426.2,166.64Z"/><line class="cls-2" x1="385.65" y1="130.03" x2="385.74" y2="159.53"/><line class="cls-2" x1="407.35" y1="134.1" x2="404.49" y2="158.08"/><line class="cls-2" x1="432.81" y1="137.29" x2="421.54" y2="164.02"/><path class="cls-3" d="M382.17,101A26.31,26.31,0,0,1,360.3,107,26.86,26.86,0,0,1,342,93.36"/><path class="cls-3" d="M446.36,85.81a27,27,0,0,1-17.21,15.06,26.21,26.21,0,0,1-22.26-4.13"/><ellipse class="cls-4" cx="354.35" cy="73.51" rx="4.45" ry="4.56"/><ellipse class="cls-4" cx="430.85" cy="61.87" rx="4.45" ry="4.56"/><ellipse class="cls-4" cx="347.78" cy="123.71" rx="4.45" ry="4.56"/><ellipse class="cls-4" cx="351.36" cy="146.36" rx="4.45" ry="4.56"/><ellipse class="cls-4" cx="419.49" cy="81.47" rx="4.45" ry="4.56"/><ellipse class="cls-4" cx="446.39" cy="112.08" rx="4.45" ry="4.56"/><ellipse class="cls-4" cx="460.13" cy="134.12" rx="4.45" ry="4.56"/><ellipse class="cls-4" cx="407.54" cy="120.65" rx="4.45" ry="4.56"/><ellipse class="cls-4" cx="390.21" cy="88.81" rx="4.45" ry="4.56"/><path class="cls-1" d="M18.34,180.68a14.84,14.84,0,0,1-11.67-5.43,11.64,11.64,0,0,1-1.4-12.44c7.28-14.89,13-27.66,18.08-38.93C33.8,100.65,42,82.44,56.51,60.4c-4.63-.19-20.13,5.93-40,8.92C8.71,70.48,1.37,65.79.06,58.85S17.41,39.32,25.18,38.16C47.63,34.78,50.58,34.6,58.75,35c3.75.16,9.43.41,23.15,0a14.69,14.69,0,0,1,13,6.57,11.63,11.63,0,0,1-.66,13.32C71.77,84.55,62.56,105,49.81,133.4c-2.67,5.92-5.51,12.25-8.67,19.09,3.92-1.31,22.87-8.56,39.4-10.41,7.81-.87,14.94,4.08,15.91,11.07s-15.26,15.59-25.32,18.59c-14.34,4.27-21.3,5.71-22.36,6-6.7,1-5.26,1.5-29.51,2.91Z"/><path class="cls-1" d="M131.49,172.66c.53,4.76,2,10.54,6.82,11.84,3.39.9,6.85-.91,9.82-2.71C155,177.61,161.81,173,166.94,167s30.15-20.89,29.28-28.61c-.55-4.88-3.21-9.93-8-11.76s-28.31,12.49-33,13.33c-6.35-8.49-.41-24.56-.41-35,0-2.09,24.69-.62,28.33-5.56A10.18,10.18,0,0,0,184,98c4.24-8.37-3.59-17.65-13.79-16.57s-22.47,2.2-24.6,3.11c-5.69-8.27-5.91-27.26,4.49-27.82,11.09-.61,31.91-5.86,35.49-8.67,5-3.87,3.68-9.05-1.33-13.36-4.52-3.89-26-3.94-34.8-4.8-6.3-.63-17.4,7.49-20.35,12.48-5.4,9.12-3.13,22.83-3.11,32.77q0,22.89,1.26,45.76Q128.62,146.82,131.49,172.66Z"/><path class="cls-1" d="M310.32,158.74c-16.62-6.61-33-39.37-38.25-50.57a18.22,18.22,0,0,0,5.69-2.54c11.35-8.8,15.31-21.4,18.07-33.43,3.09-13.51,4.6-28.92-7.27-39.4-11.05-9.75-31.47-10.4-45.76-4.39-16.28,6.84-13.09,19.49-13.55,32q-2.1,56.51-4.21,113c-.15,4.12.67,9.34,5.94,10.6,3.89.92,7.91-1,10.92-3.06,12.22-8.33,12.71-20.62,12.59-33-.07-7.83-2.34-17.6-.62-25.85,4.22,10.18,10,23.55,12.86,27.58,7.82,11,21.24,23,32.41,28.43S316.86,161.34,310.32,158.74ZM262.75,58.27c29-9.41,23.19,19.56,7.77,28.81C246.94,101.22,241.32,65.23,262.75,58.27Z"/></g></g></svg>