<?xml version="1.0" encoding="utf-8"?>
<!-- Generator: Adobe Illustrator 25.0.1, SVG Export Plug-In . SVG Version: 6.00 Build 0)  -->
<svg version="1.1" id="Capa_1" xmlns="http://www.w3.org/2000/svg" xmlns:xlink="http://www.w3.org/1999/xlink" x="0px" y="0px"
	 viewBox="0 0 435 565" style="enable-background:new 0 0 435 565;" xml:space="preserve">
<style type="text/css">
	.st0{fill:#999999;}
	.st1{fill:#ffcc00;}
</style>
<g>
	<path class="st0" d="M252.9,503.2c-7.4,37.7-74.5,43.4-113.8,20.5c0,0-9.5-2.1-43.8-26.9C-64,382,263.6,283.9,290.9,401.4
		C296.6,435.6,258.7,473.5,252.9,503.2z M159.5,366.3c-120.8,17.8-103.2,103.2,12.9,83.1C291.6,431.8,278.4,346.9,159.5,366.3z"/>
	<path class="st1" d="M30.3,270.6c-0.7-7.2-1.4-14.7,0.8-21.5S39,237,44.5,238.9c6.9,2.4,8.9,13.2,9.6,22.2c1.5,18,3,36.1,4.5,54.1
		c6.2,1.1,13.8,1.4,17.4-5.1c2-3.8,2-8.6,1.8-13.2c-0.6-22.1-1.3-44.2-1.9-66.2c6-3.6,12.1-7.2,18.7-7.8c6.6-0.6,13.8,2.4,17.2,9.6
		c2,4.2,2.4,9.2,2.8,14c2.4,29,4.8,58,7.2,87c1,11.6,1.9,23.2,2.1,34.9c0.1,8.2-0.1,16.7-3.3,23.9c-3.1,7.2-9.9,12.4-16.1,10.2
		c-5.2-23.8-10.3-47.6-15.5-71.4c-9.1,2.7-17.8,7.2-25.8,13.3c-2.1,1.6,27.7,75.1,5.7,66.3c-21-8.4-25.6-54.4-29.5-75.9
		C35.5,313.5,32.5,292.2,30.3,270.6z"/>
	<path class="st1" d="M128,306.5c0.5,6.3,2,14,6.8,15.7c3.4,1.2,6.9-1.2,9.8-3.6c6.9-5.6,13.7-11.6,18.8-19.7
		c5.1-8,8.5-18.3,7.6-28.6c-0.6-6.5-3.2-13.2-8-15.6c-4.8-2.4-6.7,7.1-11.4,8.3c-6.4-11.3-0.4-32.7-0.4-46.5c0-2.8,9.6,1.9,13.2-4.6
		c3.5-6.3,4-21.2,0.9-26.6c-3.5,2-19.7,2-23.3,4c-5.7-11-5.9-36.2,4.5-37c40.2-2.9,24.9-32.3-0.6-35.7c-6.3-0.8-17.4,10-20.4,16.6
		c-5.4,12.1-3.1,30.4-3.1,43.6c0,20.3,0.5,40.6,1.3,60.9C124.7,260.7,126.1,283.6,128,306.5z"/>
	<path class="st1" d="M178.6,210.5c-0.8,7.5-1.4,16.1,2.7,21.7c4,5.6,11,5.7,16.9,4.2c17.2-4.2,34.1-21.5,34.1-43.6
		c0-4.4-0.7-8.9-2.9-12.3s-6.2-5.1-9.3-3.1c-4.4,2.8-7,11.9-11.6,9.6c-3.1-1.5-3.1-6.9-2.6-11c4.1-34.6,4.4-69.9,1-104.6
		c-0.1-1.4-9.9,1.3-11,2.4c-2.6,2.6-2.5,4.9-3.3,8.8c-3.1,13.4-3.2,29.1-4.7,42.9C184.8,153.9,181.7,182.2,178.6,210.5z"/>
	<path class="st1" d="M248.8,113.6c0.4-18.1-2.3-36.3,11.6-46.2c12.2-8.7,29.7-7.7,39.1,6.3c10.1,15.1,8.9,37.4,6.2,56.9
		c-2.4,17.4-5.7,35.6-15.4,48.3c-4,5.2-9,9.4-12,15.5c-6.5,13.2-2.2,30.1-2.1,45.7c0.1,17.8-6,35.6-16.5,47.6c-2.6,3-6,5.7-9.3,4.4
		c-4.5-1.8-5.2-9.4-5.1-15.3C246.4,222.4,247.6,168,248.8,113.6z M284.1,152.1c13.2-13.4,18.1-55.2-6.6-41.6
		C259.1,120.6,263.9,172.5,284.1,152.1z"/>
	<path class="st1" d="M364.6,52.3c-9.3,40.2-18.6,80.5-28,120.7c-2,8.5-4,17.3-3.4,26.1c0.6,8.8,4.3,17.7,10.6,19.9
		c7.6,2.8,15.6-5.3,19.3-15.1s4-21,5.3-31.7c5-41.6,23.4-80.4,22.6-122.2c-0.1-5.9-0.7-12.1-3.1-16.9s-7.3-7.7-11.3-5.2L364.6,52.3z
		"/>
	<path class="st1" d="M336.9,269.1c1,0,1.9-0.1,2.8-0.3c3.9-0.9,7.6-4,10.2-8.2c7.8-12.1-5.8-13.5-12-12.1
		C326.9,251,322,268.5,336.9,269.1z"/>
</g>
</svg>
