<svg xmlns="http://www.w3.org/2000/svg" viewBox="0 0 96.42 42.17"><defs><style>.cls-1{fill:#666666;}</style></defs><g id="Capa_2" data-name="Capa 2"><g id="Capa_1-2" data-name="Capa 1"><path class="cls-1" d="M26.7,2.75h.41A1.38,1.38,0,0,0,28,2.52a.78.78,0,0,0,.28-.65A.81.81,0,0,0,28,1.22,1.12,1.12,0,0,0,27.26,1H26.7Zm2.81-.93a1.76,1.76,0,0,1-.6,1.44,2.48,2.48,0,0,1-1.68.5H26.7V5.84H25.46V0h1.87A2.46,2.46,0,0,1,29,.46a1.66,1.66,0,0,1,.56,1.36m-7.12,4H21.16V0h3.36V1H22.39V2.52h2v1h-2ZM19,5.84H17.59L16.8,2.77c0-.11-.08-.33-.15-.68s-.11-.57-.12-.68q0,.21-.12.69l-.15.68-.79,3.06H14.06L12.56,0h1.22l.75,3.19c.13.59.23,1.1.29,1.53A7.12,7.12,0,0,1,14.93,4c.06-.32.11-.56.16-.74L16,0h1.17L18,3.27c0,.15.09.37.14.67s.1.56.13.78c0-.21.07-.47.13-.78s.11-.56.16-.75L19.28,0H20.5ZM16,26.16a11.25,11.25,0,0,0-4.14.7s0,0,0,0a8,8,0,0,1,6.14-2.45h8.34a.91.91,0,0,1,0,1.79Zm1.87,2.29c-2.45,0-3.16-1.39-6.88-.47a0,0,0,0,1,0,0,8.64,8.64,0,0,1,5.23-1.29H26.28a.9.9,0,0,1,0,1.78l-8.44,0M18,30.71c-2.52,0-2.72-1.85-6.46-2.27,0,0,0,0,0-.05,3.07-.76,4.21.54,6,.54h8.72a.9.9,0,0,1,0,1.78Zm-.55-6.83A8.76,8.76,0,0,0,13.37,25s0,0,0,0A6.55,6.55,0,0,1,18.5,22.1h7.78a.9.9,0,0,1,0,1.78ZM28.63,19a.59.59,0,0,0-.33-.15.65.65,0,0,0-.28,0,.62.62,0,0,0,.08-.24.65.65,0,0,0-.06-.38c-.25-.55.46-1.65.38-1.7s-.5,1.16-.89,1.65a.62.62,0,0,0-.15.37.67.67,0,0,0,.06.38.29.29,0,0,0,.24.17.22.22,0,0,0,.08,0s0,0,0,0a.36.36,0,0,0,.11.29.51.51,0,0,0,.33.15.56.56,0,0,0,.37-.06c.53-.3,1.65-.59,1.62-.69s-1.1.53-1.54.14m.82-.8a.47.47,0,0,0-.31-.14.35.35,0,0,0-.2,0,.54.54,0,0,0,0-.1.48.48,0,0,0-.08-.34c-.27-.51.44-1.46.35-1.51s-.48,1-.88,1.44a.56.56,0,0,0-.14.32.67.67,0,0,0,.07.35.39.39,0,0,0,.25.17l.14,0s0,0,0,0a.38.38,0,0,0,.11.3.48.48,0,0,0,.62,0c.46-.33,1.52-.53,1.49-.63s-1,.45-1.44.06m.72-.73a.41.41,0,0,0-.29-.08.33.33,0,0,0-.15,0l0-.07a.5.5,0,0,0,0-.32c-.17-.49.59-1.22.52-1.28s-.57.83-1,1.14a.48.48,0,0,0-.17.26.49.49,0,0,0,0,.32.34.34,0,0,0,.2.19.27.27,0,0,0,.2,0,.28.28,0,0,0,0,.13.29.29,0,0,0,.14.24.43.43,0,0,0,.28.09.49.49,0,0,0,.28-.13c.36-.37,1.28-.72,1.24-.81s-.86.57-1.28.3m1.41-1.59c-.08-.11-.71.58-1.19.65a.57.57,0,0,0-.43.4.28.28,0,0,0,0,.24.24.24,0,0,0,.23.08.48.48,0,0,0,.27-.13.56.56,0,0,0,.16-.26c.14-.48,1-.91.92-1m-13.21.94c0,.07-.15.61-.15.61a.71.71,0,0,1-.25,0,.49.49,0,0,1-.48-.63c.1-.26.3-.29.56-.3a.74.74,0,0,1,.39.08s0,.13-.07.26M18,18.39l0,.19a.54.54,0,0,1-.22-.63.45.45,0,0,1,.39-.22c0,.22-.1.44-.14.66m-.28,2c0,.14-.21.16-.34.2-.37.11-.72.06-.84-.38s.24-.67.62-.76a.52.52,0,0,1,.55.16.44.44,0,0,1,.09.13s-.06.52-.08.65m-1.17-2.32c.29-.07.58-.18.8.1a.57.57,0,0,1-.21.9.74.74,0,0,1-.76,0c-.27-.26-.25-.85.17-1m-.28-1.53c.3-.07.61-.18.85.11a.6.6,0,0,1-.23.94.77.77,0,0,1-.79-.05c-.29-.28-.27-.9.17-1M16,19.86c-.08.27-.3.31-.54.37-.16-.19-.58-.68-.59-.73a.2.2,0,0,1,0-.07.32.32,0,0,1,.14-.14.93.93,0,0,1,.61-.13.56.56,0,0,1,.37.7m-1.5-1.42c-.21-.76,1.07-1.09,1.27-.34s-1.09,1.09-1.27.34m-.18-1.52c-.22-.75,1.06-1.09,1.26-.34s-1.09,1.09-1.26.34m-.18-1.49c-.21-.71,1-1,1.18-.32s-1,1-1.18.32M14,18.31c-.06,0-.08.05-.1.05l-.57-.63a1.54,1.54,0,0,1,.24-.17c.48-.27.87.49.43.75M12.92,16.9c-.28-.62.75-1.3,1.06-.63s-.74,1.31-1.06.63m.87-2c.33.58-.66,1.23-.94.61s.63-1.17.94-.61M13,13.57a.44.44,0,0,1,.49-.11.42.42,0,0,1,0,.71.61.61,0,0,1-.43.13.43.43,0,0,1-.1-.73m0-1.24a.5.5,0,0,1,.42-.1.36.36,0,0,1,0,.61.53.53,0,0,1-.37.12.36.36,0,0,1-.09-.63m.66-1.77a.41.41,0,0,1,.5,0,.34.34,0,0,1-.1.54.41.41,0,0,1-.5,0,.35.35,0,0,1,.1-.54m-.11,1.35c-.12-.45.63-.66.75-.2s-.63.65-.75.2m1.2.77c.18.48-.64.75-.79.28s.65-.75.79-.28m.1-2.33a.53.53,0,0,1,.53,0,.37.37,0,0,1-.08.63.47.47,0,0,1-.51,0,.38.38,0,0,1,.06-.63m-.14,4c-.22.05-.45.14-.63,0a.47.47,0,0,1,.15-.77.58.58,0,0,1,.63.05c.21.22.19.69-.15.77m0-2.44c-.14-.48.63-.72.78-.26s-.65.72-.78.26m1.29.87c.19.54-.73.83-.9.29s.75-.83.9-.29m0-1.45a.43.43,0,0,1,.46.1.35.35,0,0,1-.15.6.6.6,0,0,1-.44-.08.37.37,0,0,1,.13-.62m.79,1.13c.29,0,.44.44.27.65a.55.55,0,0,1-.48.12.42.42,0,0,1-.27-.65c.11-.15.31-.12.48-.12m-1.42,1.79c-.18-.63.88-.9,1-.29s-.9.91-1,.29m.65.79c.29,0,.59-.09.77.21a.57.57,0,0,1-.33.84A.71.71,0,0,1,15.8,16c-.24-.29-.14-.87.28-.91m1.47-1.38a.49.49,0,0,1,.23.8.7.7,0,0,1-.55.07c-.33-.07-.55-.57-.26-.8a.61.61,0,0,1,.58-.07m.57,1.5c.22.27.14.76-.26.78a.75.75,0,0,1-.61-.18c-.22-.27-.14-.77.25-.78a.76.76,0,0,1,.62.18m1.52-5a.1.1,0,0,0-.1,0,.09.09,0,0,0-.06.12c.9,2.4-.25,3.59-.73,5.28-.58-1.37,1.33-2.66.35-5.16,0,0,0-.06-.08-.06s-.09,0-.1.08a3.43,3.43,0,0,1-1.27,2.37,2.24,2.24,0,0,0-.52-.76,1.68,1.68,0,0,0-1.06-1.3,1.4,1.4,0,0,0-.66-.77,1.36,1.36,0,0,0-1.21,0,1.39,1.39,0,0,0-1.11.63,1.3,1.3,0,0,0-.09.95,2.12,2.12,0,0,0-.47,1.49,2.83,2.83,0,0,0,0,1.73,2.76,2.76,0,0,0,.12,2v.22A23.29,23.29,0,0,0,8.2,13.9a.11.11,0,0,0-.13,0,.11.11,0,0,0,0,.16c2.07,2,3.91,4.49,5.69,9.63a6.62,6.62,0,0,1,4.75-2.12h2.66c-1.69-6.27.77-8.51-1.52-11.39m12.57,3.24c-.49-.13-3.59-.67-7.07,5.7a28.45,28.45,0,0,1,2.47-6.08h0a.12.12,0,0,0,0-.15.1.1,0,0,0-.14,0c-2.3,3.82-3.11,6-3.58,8.65H25.3c.24-2.54,3.46-8.52,6.89-8.07h0s0,0,0,0a0,0,0,0,0,0-.05m-6.92,21-.78-3.24H23.19a11,11,0,0,0,.9,2.4.11.11,0,0,0,.12.06.13.13,0,0,0,.1-.14c-.09-.69-.2-1.35-.3-2a13.45,13.45,0,0,0,1.16,3,.07.07,0,0,0,.08,0,.08.08,0,0,0,0-.09M26.63,33c-.14-.54-.28-1.2-.4-1.77h-.5c.2.61.46,1.27.69,1.85a.13.13,0,0,0,.13.07.12.12,0,0,0,.08-.15m.17,1.91h0c-.16-.45-.38-.86-.56-1.29s-.38-.86-.53-1.31-.26-.72-.37-1.07h-.48c.14.41.32.85.48,1.24A13.46,13.46,0,0,0,26.66,35a.08.08,0,0,0,.09,0,.1.1,0,0,0,.05-.11m.73-15.55a.13.13,0,0,0-.18,0,10.36,10.36,0,0,0-1.6,2.28h.53a9.14,9.14,0,0,1,1.23-2.09h0a.15.15,0,0,0,0-.17m-4-4.5a20,20,0,0,1,1.82-2.14.06.06,0,0,0,0-.09.06.06,0,0,0-.09,0,5.66,5.66,0,0,1-.43.42c-.06,0-.23,0-.4.17a.85.85,0,0,0-.26.3c-.08,0-.24.07-.38.26a.68.68,0,0,0-.18.41.57.57,0,0,0-.34.3.91.91,0,0,0-.13.34.75.75,0,0,0-.23.26.79.79,0,0,0-.14.43l-.07.12s0-.06,0-.1a21.55,21.55,0,0,1,.66-3.31,9.6,9.6,0,0,1,1.35-3h0a.12.12,0,0,0,0-.16.09.09,0,0,0-.15,0A4.93,4.93,0,0,0,24,9.8c-.08,0-.24.1-.36.33a.71.71,0,0,0-.1.48h0c-.08,0-.22.14-.31.37s-.1.43,0,.49h0c-.09,0-.23.17-.32.45a.82.82,0,0,0,0,.53s0,0,0,0-.23.18-.31.46-.07.51,0,.56c-.09,0-.22.19-.28.47a.83.83,0,0,0,0,.53c-.09,0-.18.23-.23.49a.73.73,0,0,0,0,.53,1.12,1.12,0,0,0-.12,1,1.26,1.26,0,0,0-.13.95.78.78,0,0,0-.13.51,1.05,1.05,0,0,0,.08.46,1.16,1.16,0,0,0-.07.41,1.19,1.19,0,0,0,.08.48c0,.72,0,1.5,0,2.23h1.58c0-.57.05-1.19.1-1.75A7.18,7.18,0,0,1,24.25,17h0a.09.09,0,0,0,0-.09.07.07,0,0,0-.1,0A6,6,0,0,0,23,19.76c0,.2-.05.4-.08.6a13,13,0,0,1,.31-2.43,3.61,3.61,0,0,1,1.48-2.37.06.06,0,0,0,0-.08.07.07,0,0,0-.08-.05l-.15.07c-.06-.07-.26,0-.47.11s-.33.29-.31.37h0v0c-.08-.06-.28.08-.45.31s-.23.48-.16.55h0c-.09,0-.24.16-.33.44a1,1,0,0,0-.06.48h0q-.11.34-.18.69c0-.33,0-.66.1-1a6.72,6.72,0,0,1,.92-2.63m5-2.6a.61.61,0,0,0-.6.1.6.6,0,0,0,0-.26.66.66,0,0,0-.18-.33c-.43-.42-.14-1.7-.24-1.72s-.06,1.26-.26,1.86a.68.68,0,0,0,.18.73.33.33,0,0,0,.28.08l.07,0a.07.07,0,0,0,0,0,.3.3,0,0,0,.19.23.51.51,0,0,0,.37,0,.61.61,0,0,0,.32-.19c.4-.47,1.34-1.13,1.29-1.22s-.86.89-1.41.68m1.83-1.61c-.06-.08-.82.79-1.33.57a.56.56,0,0,0-.34,0,.64.64,0,0,0-.18.1v-.1a.57.57,0,0,0-.19-.29c-.43-.38-.1-1.52-.2-1.53S28,10.46,27.77,11a.49.49,0,0,0,0,.34.52.52,0,0,0,.19.3.35.35,0,0,0,.29.07.23.23,0,0,0,.12-.06v0a.4.4,0,0,0,.2.24.49.49,0,0,0,.34,0,.45.45,0,0,0,.27-.19c.32-.48,1.24-1,1.18-1.13m.19-1.1c-.07-.07-.61.84-1.11.73a.37.37,0,0,0-.29,0,.57.57,0,0,0-.13.08s0,0,0-.06a.52.52,0,0,0-.13-.3c-.33-.4.13-1.35,0-1.38s-.25,1-.52,1.41a.53.53,0,0,0-.07.31.51.51,0,0,0,.12.29.31.31,0,0,0,.26.11.26.26,0,0,0,.18-.09.32.32,0,0,0,0,.13.36.36,0,0,0,.22.18.45.45,0,0,0,.3,0,.45.45,0,0,0,.21-.22c.21-.47.95-1.12.89-1.19m-.33-1.26c-.11-.07-.47.8-.89,1a.54.54,0,0,0-.2.22.46.46,0,0,0-.06.31.24.24,0,0,0,.36.21.44.44,0,0,0,.2-.22.5.5,0,0,0,.06-.31c0-.5.61-1.19.53-1.24M22.46,31.2H18a4.28,4.28,0,0,1-.83-.07h0a7.52,7.52,0,0,0,3,2.44,9.34,9.34,0,0,0,.48,2A3.05,3.05,0,0,0,22,35.19c0-.1-.46-1.79-.46-1.79a9.35,9.35,0,0,0,1-2.2m11.16,7.57a6.4,6.4,0,0,1-3.78.16c-2.73-.85-5.76-2.45-8.68-1.12-2.91-1.33-5.94.27-8.68,1.12a6.37,6.37,0,0,1-3.77-.16s-.06,0,0,0a6.33,6.33,0,0,0,5.9,1.08c2-.61,3.61-2.67,5.92-1.79a16.1,16.1,0,0,0-4.86,3.27l1,.79a15.89,15.89,0,0,1,4.08-3.63,1,1,0,0,1,.48-.18.93.93,0,0,1,.48.18,15.76,15.76,0,0,1,4.09,3.63l1-.79a16,16,0,0,0-4.87-3.27c2.32-.88,4,1.18,5.92,1.79a6.35,6.35,0,0,0,5.91-1.08,0,0,0,0,0,0,0m-18-1.88c-2.86-.69-3.64-3.36-6-4.52,0,0-.05,0,0,0,.76,1.24,1.16,3.13,3.33,4.29,0,0,0,0,0,0-3.11-.59-4.42.24-7.68-1.23a0,0,0,0,0,0,0c1.07,1.55,3.62,2.61,7.1,2.32a21.81,21.81,0,0,0,3.37-.92s0,0,0,0m-6-1.64C8.54,33.84,8.85,30.81,6.4,28a0,0,0,0,0-.05,0c.47,2,.33,4.35,1.61,6,0,0,0,0,0,0-2.53-2-5.13-2.58-6.29-4.18a0,0,0,0,0,0,0c.29,2.07,4.3,5.31,8,5.32a0,0,0,0,0,0,0M5.83,31.49c-1.17-2.15.23-5.43-1.09-8.62,0,0-.07,0-.07,0,0,1.74-1.12,4.34-.47,6.3,0,0,0,0,0,0C2.51,26.76,1.18,26.25.07,24c0,0-.06,0-.06,0a6.38,6.38,0,0,0,1.36,3.89,13,13,0,0,0,4.42,3.6,0,0,0,0,0,0,0M5,18.39a0,0,0,0,0-.07,0c-.89,1.66-2.47,3-2.52,5.16,0,0,0,0,0,0C2.14,21.85.7,20,.64,17.52c0,0-.06-.05-.07,0-1.18,3.18.52,6.19,2.33,8.68,0,0,.05,0,.05,0-.07-2.63,2.22-4.6,2.09-7.76m1.13-4.11c-.84,1.16-2.73,2-3.42,3.66,0,0,0,0,0,0,.27-1.88-.46-4.06.23-6.55,0,0,0-.06-.06,0a7,7,0,0,0-1.44,4.34,14.65,14.65,0,0,0,1,4.73,0,0,0,0,0,.06,0c.49-1.75,3-2.8,3.75-6.11,0,0,0-.06-.06,0m2.27-3.9C7.06,11.46,5,12.5,4.5,13.24c0,0,0,0,0,0L5,10.79a9.17,9.17,0,0,1,1-3s0-.06,0,0c-2.63,2.07-2.24,5.06-2.36,7.52a0,0,0,0,0,.05,0c1.55-1.67,4.07-2.64,4.84-4.92,0,0,0-.05,0,0m2-3.75c-2.32.07-4,2-4.76,4.49,0,0,0,0,0,0,3.19-2.33,3-3.33,4.74-4.44a0,0,0,0,0,0-.07M37.14,35.5c-3.25,1.47-4.56.64-7.68,1.23,0,0,0,0,0,0,2.17-1.16,2.58-3.05,3.33-4.29,0,0,0,0,0,0-2.39,1.16-3.17,3.83-6,4.52,0,0,0,0,0,0a21.51,21.51,0,0,0,3.37.92c3.48.29,6-.77,7.09-2.32,0,0,0,0,0,0M40.67,30c-1.15,1.6-3.75,2.2-6.28,4.18,0,0,0,0,0,0,1.28-1.7,1.14-4,1.61-6,0,0,0-.05,0,0-2.45,2.77-2.14,5.8-3.23,7.21a0,0,0,0,0,0,0c3.7,0,7.7-3.25,8-5.32,0,0,0,0,0,0M42.32,24a0,0,0,0,0-.07,0c-1.1,2.23-2.43,2.74-4.1,5.17,0,0,0,0,0,0,.66-2-.42-4.56-.46-6.3a0,0,0,0,0-.07,0c-1.32,3.19.07,6.47-1.09,8.62,0,0,0,.05,0,0A12.93,12.93,0,0,0,41,27.93,6.44,6.44,0,0,0,42.32,24m-.56-6.54a0,0,0,0,0-.07,0c-.06,2.44-1.5,4.33-1.79,6,0,0,0,0,0,0-.06-2.19-1.64-3.5-2.53-5.16,0,0-.06,0-.06,0-.14,3.16,2.16,5.13,2.08,7.76,0,0,0,.05.06,0,1.81-2.49,3.51-5.5,2.33-8.68m-.89-1.81a7,7,0,0,0-1.43-4.34,0,0,0,0,0-.06,0c.68,2.49-.05,4.67.23,6.55a0,0,0,0,1,0,0c-.69-1.68-2.57-2.5-3.41-3.66,0,0-.07,0-.06,0,.78,3.31,3.26,4.36,3.75,6.11,0,0,0,0,0,0a14.39,14.39,0,0,0,1-4.73m-4.5-7.9s0,0,0,0a9,9,0,0,1,1,3l.51,2.44s0,0,0,0c-.45-.74-2.55-1.78-3.94-2.86,0,0-.05,0,0,0,.78,2.28,3.3,3.25,4.85,4.92,0,0,0,0,0,0-.11-2.46.27-5.45-2.36-7.52M31.93,6.63a0,0,0,0,0,0,.07c1.73,1.11,1.55,2.11,4.75,4.44,0,0,0,0,0,0C36,8.65,34.25,6.7,31.93,6.63"/><path class="cls-1" d="M47.77,11.92h.48a1.65,1.65,0,0,0,1-.26.93.93,0,0,0,.34-.78,1,1,0,0,0-.28-.76,1.34,1.34,0,0,0-.88-.24h-.67Zm3.3-1.09a2.11,2.11,0,0,1-.69,1.7,3,3,0,0,1-2,.58h-.63v2.45H46.31V8.68h2.2a2.92,2.92,0,0,1,1.91.54,2,2,0,0,1,.65,1.61"/><path class="cls-1" d="M54.86,10.2a2.08,2.08,0,0,1,.48.05l-.1,1.34a1.8,1.8,0,0,0-.43,0,1.49,1.49,0,0,0-1.07.35,1.25,1.25,0,0,0-.39,1v2.67H51.91V10.3H53l.22.89h.07a1.91,1.91,0,0,1,.66-.72,1.64,1.64,0,0,1,.91-.27"/><path class="cls-1" d="M57.16,12.92a2.2,2.2,0,0,0,.26,1.18.91.91,0,0,0,.84.4.89.89,0,0,0,.82-.39,2.23,2.23,0,0,0,.26-1.19,2.16,2.16,0,0,0-.26-1.17,1.08,1.08,0,0,0-1.66,0,2.16,2.16,0,0,0-.26,1.17m3.65,0a2.78,2.78,0,0,1-.68,2,2.47,2.47,0,0,1-1.89.73,2.64,2.64,0,0,1-1.34-.33,2.26,2.26,0,0,1-.9-1,3.26,3.26,0,0,1-.31-1.45,2.78,2.78,0,0,1,.68-2,2.47,2.47,0,0,1,1.9-.72,2.69,2.69,0,0,1,1.34.33,2.27,2.27,0,0,1,.89,1,3.12,3.12,0,0,1,.31,1.44"/><path class="cls-1" d="M62.78,12a1.06,1.06,0,0,0,.2.68.7.7,0,0,0,.6.25.67.67,0,0,0,.59-.25,1.06,1.06,0,0,0,.19-.68c0-.63-.26-.94-.78-.94s-.8.31-.8.94m-.52,4.29a.5.5,0,0,0,.29.46,1.59,1.59,0,0,0,.8.17,2.86,2.86,0,0,0,1.21-.21.65.65,0,0,0,.44-.58.42.42,0,0,0-.26-.41,2.3,2.3,0,0,0-.81-.11h-.74a1.12,1.12,0,0,0-.66.18.58.58,0,0,0-.27.5m4.07-6V11l-.82.21a1.45,1.45,0,0,1,.22.79,1.57,1.57,0,0,1-.59,1.32,2.52,2.52,0,0,1-1.64.48l-.26,0-.22,0a.5.5,0,0,0-.22.38c0,.2.27.31.79.31h.9a2.07,2.07,0,0,1,1.33.37,1.32,1.32,0,0,1,.45,1.09,1.61,1.61,0,0,1-.77,1.43,4,4,0,0,1-2.22.51,3,3,0,0,1-1.68-.39A1.21,1.21,0,0,1,61,16.42a1.14,1.14,0,0,1,.3-.8,1.71,1.71,0,0,1,.87-.45,1,1,0,0,1-.38-.31.72.72,0,0,1-.17-.45.8.8,0,0,1,.17-.51,2.25,2.25,0,0,1,.51-.39,1.41,1.41,0,0,1-.66-.57,1.79,1.79,0,0,1-.24-.93A1.67,1.67,0,0,1,62,10.67a2.47,2.47,0,0,1,1.61-.47c.14,0,.32,0,.52,0l.39.06Z"/><path class="cls-1" d="M69.89,10.2a2.14,2.14,0,0,1,.48.05l-.1,1.34a1.8,1.8,0,0,0-.43,0,1.53,1.53,0,0,0-1.08.35,1.28,1.28,0,0,0-.38,1v2.67H66.94V10.3H68l.21.89h.08a1.91,1.91,0,0,1,.66-.72,1.64,1.64,0,0,1,.91-.27"/><path class="cls-1" d="M73.87,13.12l-.55,0a1.87,1.87,0,0,0-.94.23.73.73,0,0,0-.31.63c0,.4.24.61.7.61a1.11,1.11,0,0,0,.8-.29,1,1,0,0,0,.3-.76Zm.43,2.44L74,14.85h0a2.14,2.14,0,0,1-.75.63,2.35,2.35,0,0,1-1,.18,1.62,1.62,0,0,1-1.2-.44A1.65,1.65,0,0,1,70.6,14a1.37,1.37,0,0,1,.58-1.23A3.34,3.34,0,0,1,73,12.32l.91,0v-.23c0-.54-.27-.8-.82-.8a3.67,3.67,0,0,0-1.49.38l-.47-1a4.24,4.24,0,0,1,2-.48,2.51,2.51,0,0,1,1.63.47,1.7,1.7,0,0,1,.56,1.4v3.5Z"/><path class="cls-1" d="M81.19,15.56H79.75V12.49a1.51,1.51,0,0,0-.19-.85.68.68,0,0,0-.6-.29.86.86,0,0,0-.8.41,2.6,2.6,0,0,0-.25,1.33v2.47H76.47V10.3h1.1l.19.68h.08a1.46,1.46,0,0,1,.61-.57,2,2,0,0,1,.92-.21A1.66,1.66,0,0,1,81,11h.13a1.37,1.37,0,0,1,.62-.57,2.06,2.06,0,0,1,.94-.21,1.85,1.85,0,0,1,1.35.46,2,2,0,0,1,.46,1.47v3.43H83V12.49a1.6,1.6,0,0,0-.19-.85.69.69,0,0,0-.61-.29.91.91,0,0,0-.79.38,2.16,2.16,0,0,0-.26,1.19Z"/><path class="cls-1" d="M88.57,13.12l-.56,0a1.8,1.8,0,0,0-.93.23.7.7,0,0,0-.31.63c0,.4.23.61.7.61a1.12,1.12,0,0,0,.8-.29,1,1,0,0,0,.3-.76ZM89,15.56l-.28-.71h0a2.33,2.33,0,0,1-.75.63,2.4,2.4,0,0,1-1,.18,1.62,1.62,0,0,1-1.19-.44A1.65,1.65,0,0,1,85.29,14a1.38,1.38,0,0,1,.59-1.23,3.28,3.28,0,0,1,1.77-.44l.92,0v-.23c0-.54-.28-.8-.83-.8a3.63,3.63,0,0,0-1.48.38l-.48-1a4.27,4.27,0,0,1,2-.48,2.51,2.51,0,0,1,1.63.47,1.68,1.68,0,0,1,.57,1.4v3.5Z"/><path class="cls-1" d="M49.23,26.11l-1.66-5.4h0c0,1.1.08,1.83.08,2.2v3.2h-1.3V19.23h2l1.63,5.26h0l1.73-5.26h2v6.88H52.32V22.85c0-.15,0-.33,0-.53s0-.74.06-1.6h0l-1.78,5.39Z"/><path class="cls-1" d="M58.75,26.11l-.19-.68h-.08a1.45,1.45,0,0,1-.65.57,2.3,2.3,0,0,1-1,.2,1.8,1.8,0,0,1-1.4-.5A2,2,0,0,1,55,24.28V20.85h1.44v3.07a1.42,1.42,0,0,0,.2.85.73.73,0,0,0,.64.29,1,1,0,0,0,.88-.41,2.45,2.45,0,0,0,.27-1.33V20.85h1.44v5.26Z"/><path class="cls-1" d="M65.92,26.11H64.48V23a1.42,1.42,0,0,0-.21-.85.72.72,0,0,0-.64-.28,1,1,0,0,0-.87.4,2.47,2.47,0,0,0-.27,1.33v2.48H61.05V20.85h1.09l.2.67h.08a1.49,1.49,0,0,1,.66-.58,2.29,2.29,0,0,1,1-.19,1.85,1.85,0,0,1,1.4.49,2,2,0,0,1,.48,1.44Z"/><path class="cls-1" d="M69.31,25.06a1,1,0,0,0,.81-.32,1.93,1.93,0,0,0,.28-1.09v-.16a2.19,2.19,0,0,0-.26-1.21,1,1,0,0,0-.86-.37.83.83,0,0,0-.74.41,2.15,2.15,0,0,0-.27,1.18,2.06,2.06,0,0,0,.27,1.17.88.88,0,0,0,.77.39M68.8,26.2a1.72,1.72,0,0,1-1.46-.72,3.31,3.31,0,0,1-.53-2,3.3,3.3,0,0,1,.54-2,1.76,1.76,0,0,1,1.49-.72,1.73,1.73,0,0,1,1.52.77h0a6.05,6.05,0,0,1-.11-1.05V18.79h1.45v7.32H70.64l-.28-.69H70.3a1.66,1.66,0,0,1-1.5.78"/><path class="cls-1" d="M74.37,26.11H72.93V20.85h1.44Zm-1.5-6.62c0-.47.26-.7.78-.7s.79.23.79.7a.7.7,0,0,1-.2.52.83.83,0,0,1-.59.18c-.52,0-.78-.23-.78-.7"/><path class="cls-1" d="M78.48,23.67l-.56,0a1.87,1.87,0,0,0-.93.22.73.73,0,0,0-.31.63c0,.41.24.61.7.61a1.11,1.11,0,0,0,.8-.29,1,1,0,0,0,.3-.76Zm.43,2.44-.28-.72h0a2,2,0,0,1-.75.63,2.35,2.35,0,0,1-1,.18,1.62,1.62,0,0,1-1.2-.43,1.67,1.67,0,0,1-.43-1.24,1.39,1.39,0,0,1,.58-1.23,3.41,3.41,0,0,1,1.78-.44l.91,0V22.6a.72.72,0,0,0-.82-.8,3.84,3.84,0,0,0-1.49.38l-.47-1a4.36,4.36,0,0,1,2-.47,2.51,2.51,0,0,1,1.63.46,1.72,1.72,0,0,1,.56,1.4v3.51Z"/><rect class="cls-1" x="81.08" y="18.79" width="1.44" height="7.32"/><path class="cls-1" d="M88.21,25.06a1,1,0,0,0,.81-.32,1.86,1.86,0,0,0,.28-1.09v-.16A2.11,2.11,0,0,0,89,22.28a1,1,0,0,0-.85-.37.86.86,0,0,0-.75.41,2.15,2.15,0,0,0-.27,1.18,2.06,2.06,0,0,0,.27,1.17.88.88,0,0,0,.77.39m-.5,1.14a1.71,1.71,0,0,1-1.46-.72,3.25,3.25,0,0,1-.54-2,3.37,3.37,0,0,1,.54-2,1.78,1.78,0,0,1,1.5-.72,1.74,1.74,0,0,1,1.52.77h0a6.05,6.05,0,0,1-.11-1.05V18.79h1.45v7.32H89.54l-.27-.69H89.2a1.63,1.63,0,0,1-1.49.78"/><path class="cls-1" d="M94.06,21.77a.93.93,0,0,0-.72.29,1.3,1.3,0,0,0-.29.82h2a1.19,1.19,0,0,0-.28-.82,1,1,0,0,0-.73-.29m.2,4.43a2.71,2.71,0,0,1-2-.7,2.64,2.64,0,0,1-.72-2,2.88,2.88,0,0,1,.67-2.05,2.36,2.36,0,0,1,1.83-.72,2.32,2.32,0,0,1,1.74.63,2.4,2.4,0,0,1,.63,1.76v.69H93a1.4,1.4,0,0,0,.37,1,1.26,1.26,0,0,0,1,.34,3.71,3.71,0,0,0,.9-.1,4.3,4.3,0,0,0,.89-.31v1.11a3.52,3.52,0,0,1-.81.28,5.26,5.26,0,0,1-1,.09"/><path class="cls-1" d="M49.71,33.79c-.46-1.49-.73-2.32-.78-2.52s-.1-.35-.13-.46c-.1.4-.4,1.39-.89,3Zm.85,2.86L50.06,35H47.54L47,36.65H45.46l2.44-6.91h1.79l2.45,6.91Z"/><rect class="cls-1" x="52.75" y="29.33" width="1.44" height="7.32"/><path class="cls-1" d="M56.82,36.65H55.38V31.39h1.44ZM55.32,30c0-.47.26-.7.79-.7s.78.23.78.7a.69.69,0,0,1-.2.52.82.82,0,0,1-.58.18c-.53,0-.79-.23-.79-.7"/><path class="cls-1" d="M62.74,36.65H61.3V33.58a1.54,1.54,0,0,0-.19-.86.67.67,0,0,0-.6-.28.86.86,0,0,0-.8.4,2.63,2.63,0,0,0-.25,1.33v2.48H58V31.39h1.1l.19.67h.08A1.44,1.44,0,0,1,60,31.5a2,2,0,0,1,.92-.21,1.68,1.68,0,0,1,1.61.77h.13a1.49,1.49,0,0,1,.62-.57,2.2,2.2,0,0,1,.94-.2,1.81,1.81,0,0,1,1.35.46A2,2,0,0,1,66,33.22v3.43H64.59V33.58a1.64,1.64,0,0,0-.19-.86.68.68,0,0,0-.61-.28.89.89,0,0,0-.79.38A2.14,2.14,0,0,0,62.74,34Z"/><path class="cls-1" d="M69.41,32.31a.91.91,0,0,0-.71.29,1.27,1.27,0,0,0-.3.82h2a1.21,1.21,0,0,0-.28-.82,1,1,0,0,0-.73-.29m.21,4.43a2.74,2.74,0,0,1-2-.7,2.66,2.66,0,0,1-.71-2A2.92,2.92,0,0,1,67.57,32a2.36,2.36,0,0,1,1.83-.72,2.33,2.33,0,0,1,1.75.64,2.4,2.4,0,0,1,.62,1.75v.7H68.36a1.39,1.39,0,0,0,.37.95,1.27,1.27,0,0,0,1,.34,4.29,4.29,0,0,0,.9-.09,5.05,5.05,0,0,0,.89-.32v1.11a3.17,3.17,0,0,1-.8.28,5.26,5.26,0,0,1-1,.09"/><path class="cls-1" d="M77.57,36.65H76.13V33.58a1.46,1.46,0,0,0-.2-.86.74.74,0,0,0-.65-.28,1,1,0,0,0-.87.4,2.47,2.47,0,0,0-.27,1.33v2.48H72.7V31.39h1.1l.19.67h.08a1.62,1.62,0,0,1,.67-.57,2.26,2.26,0,0,1,1-.2,1.87,1.87,0,0,1,1.4.5,2,2,0,0,1,.47,1.43Z"/><path class="cls-1" d="M81,35.6a3.56,3.56,0,0,0,.91-.16V36.5a3.24,3.24,0,0,1-1.32.24,1.61,1.61,0,0,1-1.26-.43,1.87,1.87,0,0,1-.4-1.31V32.47h-.69v-.61l.8-.48.41-1.11h.92v1.12H81.8v1.08H80.32V35a.53.53,0,0,0,.18.45.64.64,0,0,0,.45.15"/><path class="cls-1" d="M83.75,34A2.22,2.22,0,0,0,84,35.19a1.07,1.07,0,0,0,1.67,0A2.2,2.2,0,0,0,85.93,34a2.17,2.17,0,0,0-.25-1.17,1.09,1.09,0,0,0-1.67,0A2.13,2.13,0,0,0,83.75,34m3.65,0a2.84,2.84,0,0,1-.67,2,2.5,2.5,0,0,1-1.9.72,2.66,2.66,0,0,1-1.34-.33,2.21,2.21,0,0,1-.89-.95A3.16,3.16,0,0,1,82.29,34,2.78,2.78,0,0,1,83,32a2.47,2.47,0,0,1,1.9-.72,2.66,2.66,0,0,1,1.34.33,2.16,2.16,0,0,1,.89.95A3.12,3.12,0,0,1,87.4,34"/><path class="cls-1" d="M92,35.09a1.45,1.45,0,0,1-.56,1.23,2.83,2.83,0,0,1-1.69.42,5.55,5.55,0,0,1-1-.07,4.22,4.22,0,0,1-.76-.23V35.25a5,5,0,0,0,.9.32,3.91,3.91,0,0,0,.89.12q.78,0,.78-.45a.36.36,0,0,0-.1-.27,1.57,1.57,0,0,0-.36-.24c-.17-.09-.4-.2-.68-.32a3.63,3.63,0,0,1-.9-.47,1.25,1.25,0,0,1-.41-.49,1.6,1.6,0,0,1-.13-.69,1.26,1.26,0,0,1,.54-1.09,2.73,2.73,0,0,1,1.55-.38A4.48,4.48,0,0,1,92,31.7l-.43,1a7.78,7.78,0,0,0-.74-.28,2.38,2.38,0,0,0-.7-.11c-.43,0-.64.12-.64.35a.4.4,0,0,0,.2.33,4.93,4.93,0,0,0,.9.42,3.9,3.9,0,0,1,.91.47,1.38,1.38,0,0,1,.42.49,1.45,1.45,0,0,1,.14.68"/></g></g></svg>