<svg xmlns="http://www.w3.org/2000/svg" viewBox="0 0 175.76 34.39"><defs><style>.cls-1{fill:#666666;}</style></defs><g id="Capa_2" data-name="Capa 2"><g id="Capa_1-2" data-name="Capa 1"><polygon class="cls-1" points="73.49 11.9 78.47 11.9 78.47 12.99 74.75 12.99 74.75 14.88 78.01 14.88 78.01 15.91 74.75 15.91 74.75 19.1 73.49 19.1 73.49 11.9"/><path class="cls-1" d="M83.18,16.49c0-.89-.45-1.83-1.48-1.83s-1.48.94-1.48,1.83.45,1.85,1.48,1.85,1.48-.94,1.48-1.85m-4.11,0a2.63,2.63,0,1,1,5.26,0,2.63,2.63,0,1,1-5.26,0"/><path class="cls-1" d="M85.29,13.89h1.09v.79A1.87,1.87,0,0,1,88,13.75a1.65,1.65,0,0,1,1.85,1.77V19.1H88.72V15.83c0-.82-.35-1.17-1-1.17A1.27,1.27,0,0,0,86.44,16V19.1H85.29Z"/><path class="cls-1" d="M93.41,18.34c1,0,1.46-.94,1.46-1.85,0-1.15-.55-1.83-1.44-1.83-1.08,0-1.46.95-1.46,1.89s.44,1.79,1.44,1.79M96,19.1H94.89v-.7h0a1.73,1.73,0,0,1-1.61.85c-1.64,0-2.44-1.22-2.44-2.79,0-1.88,1.12-2.71,2.26-2.71a2,2,0,0,1,1.73.82h0V11.9H96Z"/><path class="cls-1" d="M101.1,16.49c0-.89-.45-1.83-1.48-1.83s-1.48.94-1.48,1.83.45,1.85,1.48,1.85,1.48-.94,1.48-1.85m-4.11,0a2.63,2.63,0,1,1,5.26,0,2.63,2.63,0,1,1-5.26,0"/><rect class="cls-1" x="106.17" y="11.9" width="1.26" height="7.2"/><path class="cls-1" d="M108.81,13.89h1.09v.77l0,0a1.87,1.87,0,0,1,1.63-.93,1.64,1.64,0,0,1,1.84,1.77V19.1h-1.15V15.83c0-.82-.34-1.17-1-1.17A1.27,1.27,0,0,0,110,16V19.1h-1.15Z"/><path class="cls-1" d="M114.08,13.89h.86V12.33h1.15v1.56h1v.86h-1v2.78c0,.48,0,.72.56.72a2,2,0,0,0,.48,0v.88c-.25,0-.49.06-.75.06-1.2,0-1.42-.46-1.44-1.33V14.75h-.86Z"/><path class="cls-1" d="M121.54,16a1.35,1.35,0,1,0-2.69,0Zm-2.69.75a1.4,1.4,0,0,0,1.41,1.55,1.21,1.21,0,0,0,1.27-.87h1.08a2.27,2.27,0,0,1-2.35,1.78,2.48,2.48,0,0,1-2.56-2.75,2.53,2.53,0,1,1,5,.29Z"/><path class="cls-1" d="M123.56,13.89h1.08v1h0a1.68,1.68,0,0,1,1.52-1.15,2.89,2.89,0,0,1,.44,0v1.11a4.23,4.23,0,0,0-.5-.05c-.78,0-1.41.63-1.41,1.78V19.1h-1.15Z"/><path class="cls-1" d="M127.29,13.89h1.09v.77l0,0a1.86,1.86,0,0,1,1.62-.93,1.65,1.65,0,0,1,1.85,1.77V19.1h-1.15V15.83c0-.82-.35-1.17-1-1.17A1.27,1.27,0,0,0,128.44,16V19.1h-1.15Z"/><path class="cls-1" d="M136.29,16.49a4.37,4.37,0,0,1-1.41.32c-.5.08-.94.26-.94.86s.66.67,1.06.67,1.29-.26,1.29-1Zm1.15,1.45c0,.29.06.4.27.4a1.68,1.68,0,0,0,.29,0v.79a2.62,2.62,0,0,1-.73.14.78.78,0,0,1-.89-.64,2.69,2.69,0,0,1-1.8.64,1.59,1.59,0,0,1-1.79-1.53c0-1.3,1-1.51,2-1.62s1.56-.06,1.56-.74-.61-.7-1.08-.7c-.64,0-1.1.26-1.15.82H133c.08-1.34,1.22-1.73,2.37-1.73s2.09.41,2.09,1.51Z"/><path class="cls-1" d="M142.2,15.64a1.1,1.1,0,0,0-1.19-1c-.6,0-1.43.31-1.43,1.89,0,.87.38,1.79,1.38,1.79a1.25,1.25,0,0,0,1.24-1.19h1.15a2.25,2.25,0,0,1-2.39,2.1,2.45,2.45,0,0,1-2.53-2.7,2.5,2.5,0,0,1,2.57-2.8,2.11,2.11,0,0,1,2.35,1.89Z"/><path class="cls-1" d="M144.31,19.1h1.15V13.89h-1.15Zm0-6.11h1.15V11.9h-1.15Z"/><path class="cls-1" d="M150.59,16.49c0-.89-.46-1.83-1.49-1.83s-1.48.94-1.48,1.83.45,1.85,1.48,1.85,1.49-.94,1.49-1.85m-4.12,0a2.64,2.64,0,1,1,5.27,0,2.64,2.64,0,1,1-5.27,0"/><path class="cls-1" d="M152.69,13.89h1.09v.77l0,0a1.86,1.86,0,0,1,1.62-.93,1.65,1.65,0,0,1,1.85,1.77V19.1h-1.15V15.83c0-.82-.34-1.17-1-1.17A1.27,1.27,0,0,0,153.84,16V19.1h-1.15Z"/><path class="cls-1" d="M161.69,16.49a4.31,4.31,0,0,1-1.41.32c-.49.08-.94.26-.94.86s.66.67,1.06.67,1.29-.26,1.29-1Zm1.15,1.45c0,.29.06.4.28.4a1.58,1.58,0,0,0,.28,0v.79a2.55,2.55,0,0,1-.73.14.78.78,0,0,1-.89-.64,2.69,2.69,0,0,1-1.8.64,1.59,1.59,0,0,1-1.79-1.53c0-1.3,1-1.51,2-1.62s1.56-.06,1.56-.74-.61-.7-1.07-.7c-.65,0-1.11.26-1.15.82h-1.15c.08-1.34,1.21-1.73,2.36-1.73s2.09.41,2.09,1.51Z"/><rect class="cls-1" x="164.11" y="11.9" width="1.15" height="7.2"/><path class="cls-1" d="M75.67,31.56c1,0,1.46-.94,1.46-1.85,0-1.15-.55-1.83-1.44-1.83-1.08,0-1.46.95-1.46,1.89s.44,1.79,1.44,1.79m2.57.76H77.15v-.7h0a1.73,1.73,0,0,1-1.61.85c-1.64,0-2.44-1.22-2.44-2.79,0-1.88,1.12-2.71,2.26-2.71a2,2,0,0,1,1.73.82h0V25.12h1.15Z"/><path class="cls-1" d="M83.07,29.26a1.34,1.34,0,1,0-2.68,0ZM80.39,30a1.39,1.39,0,0,0,1.4,1.55,1.2,1.2,0,0,0,1.27-.87h1.09a2.29,2.29,0,0,1-2.36,1.78,2.48,2.48,0,0,1-2.55-2.75,2.52,2.52,0,1,1,5,.29Z"/><path class="cls-1" d="M89.32,31.3h1.24c2,0,2.4-1.14,2.4-2.58s-.42-2.57-2.4-2.57H89.32Zm-1.26-6.18h3c2.22,0,3.18,1.62,3.18,3.6s-1,3.6-3.18,3.6h-3Z"/><path class="cls-1" d="M98.76,29.26a1.35,1.35,0,1,0-2.69,0ZM96.07,30a1.4,1.4,0,0,0,1.41,1.55,1.21,1.21,0,0,0,1.27-.87h1.08a2.27,2.27,0,0,1-2.35,1.78,2.48,2.48,0,0,1-2.56-2.75,2.53,2.53,0,1,1,5,.29Z"/><path class="cls-1" d="M101.65,30.65c.06.67.56.91,1.18.91.43,0,1.19-.09,1.16-.69s-.87-.67-1.71-.86-1.67-.49-1.67-1.55S101.84,27,102.79,27s2,.44,2.18,1.6h-1.2c-.1-.54-.56-.69-1.06-.69-.34,0-.95.08-.95.53s.85.65,1.69.84,1.69.49,1.69,1.52c0,1.24-1.25,1.7-2.33,1.7-1.31,0-2.29-.59-2.31-1.82Z"/><path class="cls-1" d="M109.23,29.71a4.37,4.37,0,0,1-1.41.32c-.5.08-.94.26-.94.86s.65.67,1.06.67,1.29-.27,1.29-1Zm1.15,1.45c0,.29.06.4.27.4a1.58,1.58,0,0,0,.28,0v.79a2.49,2.49,0,0,1-.72.14c-.47,0-.8-.17-.89-.64a2.69,2.69,0,0,1-1.81.64,1.59,1.59,0,0,1-1.78-1.53c0-1.3,1-1.51,2-1.62s1.56-.06,1.56-.74-.62-.7-1.08-.7c-.65,0-1.1.26-1.15.82h-1.15c.08-1.34,1.22-1.73,2.37-1.73s2.09.41,2.09,1.51Z"/><path class="cls-1" d="M111.62,27.11h1.08v1h0A1.67,1.67,0,0,1,114.24,27a2.71,2.71,0,0,1,.43,0v1.11a4.07,4.07,0,0,0-.49-.05c-.79,0-1.41.63-1.41,1.78v2.48h-1.15Z"/><path class="cls-1" d="M115.16,27.11h1.08v1h0A1.69,1.69,0,0,1,117.79,27a2.71,2.71,0,0,1,.43,0v1.11a4.07,4.07,0,0,0-.49-.05c-.79,0-1.42.63-1.42,1.78v2.48h-1.15Z"/><path class="cls-1" d="M122.41,29.71c0-.9-.46-1.83-1.49-1.83s-1.48.93-1.48,1.83.45,1.85,1.48,1.85,1.49-.94,1.49-1.85m-4.12,0a2.63,2.63,0,1,1,5.26,0,2.63,2.63,0,1,1-5.26,0"/><rect class="cls-1" x="124.54" y="25.12" width="1.15" height="7.2"/><rect class="cls-1" x="126.97" y="25.12" width="1.15" height="7.2"/><path class="cls-1" d="M133.24,29.71c0-.9-.45-1.83-1.48-1.83s-1.48.93-1.48,1.83.45,1.85,1.48,1.85,1.48-.94,1.48-1.85m-4.11,0a2.63,2.63,0,1,1,5.26,0,2.63,2.63,0,1,1-5.26,0"/><path class="cls-1" d="M139.79,29.46H142l-1.08-3.1h0Zm.45-4.34h1.34l2.77,7.2H143l-.68-1.9h-2.87l-.68,1.9h-1.3Z"/><path class="cls-1" d="M148.54,29.6c0-.9-.4-1.72-1.4-1.72s-1.37.94-1.37,1.81.41,1.73,1.37,1.73,1.4-.93,1.4-1.82m1.15,2.45c0,1.57-.91,2.34-2.56,2.34-1,0-2.23-.4-2.33-1.62H146c.14.65.67.76,1.25.76a1.18,1.18,0,0,0,1.34-1.33v-.79h0a1.79,1.79,0,0,1-1.56.91c-1.65,0-2.34-1.25-2.34-2.74A2.41,2.41,0,0,1,147,27a1.62,1.62,0,0,1,1.54.86h0v-.72h1.15Z"/><path class="cls-1" d="M150.85,27.11h1.08v1h0A1.68,1.68,0,0,1,153.47,27a3,3,0,0,1,.44,0v1.11a4.45,4.45,0,0,0-.5-.05c-.79,0-1.41.63-1.41,1.78v2.48h-1.15Z"/><path class="cls-1" d="M154.43,27.11h1.15v5.21h-1.15Zm.72-2.16h1.37l-1.44,1.44h-.83Z"/><path class="cls-1" d="M160.35,28.85a1.1,1.1,0,0,0-1.19-1c-.6,0-1.44.31-1.44,1.89,0,.87.39,1.79,1.39,1.79a1.25,1.25,0,0,0,1.24-1.19h1.15a2.25,2.25,0,0,1-2.39,2.1,2.46,2.46,0,0,1-2.54-2.7,2.51,2.51,0,0,1,2.58-2.8,2.11,2.11,0,0,1,2.35,1.88Z"/><path class="cls-1" d="M166.3,29.71c0-.9-.45-1.83-1.48-1.83s-1.48.93-1.48,1.83.45,1.85,1.48,1.85,1.48-.94,1.48-1.85m-4.11,0a2.63,2.63,0,1,1,5.26,0,2.63,2.63,0,1,1-5.26,0"/><rect class="cls-1" x="168.44" y="25.12" width="1.15" height="7.2"/><path class="cls-1" d="M174.06,29.71a4.43,4.43,0,0,1-1.42.32c-.49.08-.93.26-.93.86s.65.67,1,.67,1.3-.27,1.3-1Zm1.14,1.45c0,.29.07.4.28.4a1.58,1.58,0,0,0,.28,0v.79a2.55,2.55,0,0,1-.73.14.77.77,0,0,1-.88-.64,2.71,2.71,0,0,1-1.81.64,1.58,1.58,0,0,1-1.78-1.53c0-1.3,1-1.51,2-1.62s1.57-.06,1.57-.74-.62-.7-1.08-.7c-.65,0-1.1.26-1.15.82h-1.15c.08-1.34,1.22-1.73,2.37-1.73s2.08.41,2.08,1.51Z"/><rect class="cls-1" x="66.09" y="11.95" width="0.72" height="22.06"/><path class="cls-1" d="M53.93,20.54H54L55.31,25h-2.7Zm2.25,7,.64,1.87H60.4L55.26,16.52h-2.6L47.47,29.45H51l.68-1.87ZM39.56,19.42H41a2.76,2.76,0,0,1,2.52,1.19A4.64,4.64,0,0,1,44.14,23c0,1.84-.69,3.55-3.16,3.55H39.56Zm-3.3,10h4.52c4.92,0,6.66-3,6.66-6.5a6.59,6.59,0,0,0-1.18-4c-1.68-2.42-4.27-2.42-5.72-2.42H36.26Zm-5.46,0h3.3V16.52H30.8Zm-8.82,0h3.16V24.53H28.9v-2.9H25.14V19.42H29v-2.9H22Z"/><path class="cls-1" d="M9.46,9.09A5,5,0,0,0,9,8.5a2.33,2.33,0,0,0-.55-.43c-.15-.1-.26-.13-.42-.22a3.12,3.12,0,0,1-.47-.34,2.6,2.6,0,0,1-.38-.43,2.76,2.76,0,0,1-.38-.67,2.08,2.08,0,0,1-.17-.65,2.28,2.28,0,0,1,0-.69,2.91,2.91,0,0,1,.12-.51,1.57,1.57,0,0,1,.12-.3A1.24,1.24,0,0,1,7.07,4V0h.25V4.11a2.28,2.28,0,0,0,0,.58,1.35,1.35,0,0,0,.2.5A1.13,1.13,0,0,0,8,5.61a.89.89,0,0,0,.29.15h.15a2.32,2.32,0,0,1-.1-.68,2.16,2.16,0,0,1,.11-.73V0h.24V3.94h0l0,0a1,1,0,0,1,.17-.19.59.59,0,0,1,.18-.13l.18-.07a1.34,1.34,0,0,1,.23,0,1.27,1.27,0,0,1,.23,0l.19.07a.75.75,0,0,1,.18.13c.07.06.1.12.17.19V4h0V0h.24V4.35a2.18,2.18,0,0,1,.1.73,2,2,0,0,1-.1.68h.16a.89.89,0,0,0,.29-.15,1.3,1.3,0,0,0,.42-.42,1.54,1.54,0,0,0,.2-.5,3.79,3.79,0,0,0,0-.58V0h.24V4a1.3,1.3,0,0,1,.18.23,1.57,1.57,0,0,1,.12.3,2.91,2.91,0,0,1,.12.51,2.66,2.66,0,0,1,0,.69,2.08,2.08,0,0,1-.17.65,2.5,2.5,0,0,1-.39.67,2.21,2.21,0,0,1-.38.43,2.61,2.61,0,0,1-.46.34c-.16.09-.27.12-.43.22a2.49,2.49,0,0,0-.54.43,6.55,6.55,0,0,0-.45.59"/><path class="cls-1" d="M9.46,12.56a4.41,4.41,0,0,0-1.33-1.42s-.21-.14-.74-.44a3.18,3.18,0,0,1-.95-.85c-1.42-2.1-.65-4-.51-4h0V0h.25V6.35s-.13.74,1,1.23a5.64,5.64,0,0,1,2.3,2.28,5.7,5.7,0,0,1,2.3-2.28c1.11-.49,1-1.23,1-1.23V0H13V5.89h0c.14,0,.92,1.86-.5,4a3.31,3.31,0,0,1-1,.85c-.53.3-.74.44-.74.44a4.44,4.44,0,0,0-1.34,1.42"/><path class="cls-1" d="M9.46,16.06a2.75,2.75,0,0,0-1.67-1.63C3.31,12.76,4.94,9.24,5.1,9.08V0h.24V9.05a2.81,2.81,0,0,0,.14.65,1.83,1.83,0,0,0,.59.86c.55.34.93.41,1.45.69a6.48,6.48,0,0,1,1.94,1.67,6.6,6.6,0,0,1,1.94-1.67c.53-.28.9-.35,1.45-.69a1.84,1.84,0,0,0,.6-.86,2.23,2.23,0,0,0,.13-.65V0h.25V9.08c.16.16,1.78,3.68-2.7,5.35a2.78,2.78,0,0,0-1.67,1.63"/><path class="cls-1" d="M2.91,29.45H0V26.89H2.9a2.31,2.31,0,0,0,2.3-2.3v-8H7.68v8.13a4.77,4.77,0,0,1-4.78,4.78"/><path class="cls-1" d="M16,29.45h2.9V26.89H16a2.31,2.31,0,0,1-2.3-2.3v-8H11.26v8.13A4.77,4.77,0,0,0,16,29.45"/><path class="cls-1" d="M2.87,32.55H0V30H2.9a5.24,5.24,0,0,0,5.32-5.41v-8h2.49v8.13a7.83,7.83,0,0,1-7.84,7.88"/></g></g></svg>