<svg xmlns="http://www.w3.org/2000/svg" viewBox="0 0 224.6 48.79"><defs><style>.cls-1{fill:#666666;}</style></defs><g id="Capa_2" data-name="Capa 2"><g id="Capa_1-2" data-name="Capa 1"><path class="cls-1" d="M40,28.83l.62.33-.06.07a1.57,1.57,0,0,0-.39.65.67.67,0,0,0,0,.54.41.41,0,0,0,.25.21c.27.09.51-.15.78-.43a1.5,1.5,0,0,1,1.62-.61c.78.27,1,1,.72,1.9a2.85,2.85,0,0,1-.44.76l0,0L42.4,32l.07-.08a2.51,2.51,0,0,0,.44-.71.65.65,0,0,0-.33-.88c-.34-.12-.6.15-.9.46s-.79.82-1.48.58a1.1,1.1,0,0,1-.66-.55,1.49,1.49,0,0,1,0-1.14,2.94,2.94,0,0,1,.43-.8ZM38.42,32.3,42,34.4l-.37.64L38,32.93ZM37,34.38l3.13,2.79-.57.66-3.37-1c.33.32,2.15,2.24,2.15,2.24l-.55.49-2.94-3,.69-.62s2.82.84,3.27,1c-.33-.31-2.28-2-2.28-2Zm-3.68,6.4a7,7,0,0,0,.66-.37,6.37,6.37,0,0,0,.55-.35L33,38.92c0,.29.26,1.68.29,1.86M32.9,38l3.58,2.62-.63.45-.8-.6s-.41.29-.81.52-.78.43-.82.45.16,1,.16,1l-.68.33-.61-4.39Zm-4,2.48c0,.12.34,1.1.38,1.21l.48-.15a.79.79,0,0,0,.49-.37.51.51,0,0,0,.06-.25.76.76,0,0,0,0-.21.57.57,0,0,0-.27-.32,1,1,0,0,0-.71,0l-.4.12m1.54-.75a1.23,1.23,0,0,1,.57.75,1.47,1.47,0,0,1,.08.44c0,.58-.41,1-1.14,1.26l-.47.15L30,43.86l-.72.19-1.23-4,1.1-.34a1.8,1.8,0,0,1,1.34,0m-13-.83a15.74,15.74,0,0,0,1.62.66,17.05,17.05,0,0,0,1.74.52l-.19.63a12.34,12.34,0,0,1-1.35-.35l-1.14,3.25-.75-.26s1.09-3.12,1.14-3.25a11.41,11.41,0,0,1-1.33-.58ZM13,39.15c.07.06.34.28.62.48s.56.38.65.42c0-.18.32-1.62.38-1.89l-1.65,1m1.83-1.86.62.45-.81,4.37-.72-.41s.18-.89.21-1-.46-.28-.87-.56-.81-.63-.85-.66l-.87.52-.62-.52,3.87-2.18Zm-2.94-2.77.51.6L9.18,37.77l-.52-.6,3.14-2.63ZM9.55,30.8s.32.68.59,1.17.61,1.06.61,1.06l-.57.34s-.44-.72-.84-1.56l-.91.47c.07.12.77,1.47.77,1.47l-.58.34-.77-1.5-1.61.82-.35-.7,3.62-1.89Zm36.54-6.4A21.7,21.7,0,0,0,38.73,8.11L30,30.2c.58,3.61-.49,6.51-3.08,7.37-1.69.56-1.78,1.41-1.78,3.93v.3a35,35,0,0,0,.26,4.27A21.73,21.73,0,0,0,46.09,24.4m-21.62-.61.11-.83c.42-1.91,1.8-1.67,2.77-3.55v0c0-.07,4.75-10.19,6.71-14.41A21.58,21.58,0,0,0,14.72,5c2,4.22,6.68,14.34,6.71,14.41l0,0c1,1.88,2.34,1.64,2.76,3.55l.1.83Zm-.09,2.56a4.77,4.77,0,0,1-3.53-3.66,8.84,8.84,0,0,1-.05-2.33L14.14,5.28c-.54.29-1.06.6-1.58.94,2,4.47,8.09,18.15,8.09,18.17,1,2,2.66,2.07,3.24,3.28a3.67,3.67,0,0,1,.39,1.41h.22a4.14,4.14,0,0,1,.39-1.41c.59-1.21,2.28-1.25,3.24-3.28L36.22,6.22a17.6,17.6,0,0,0-1.57-.94L28,20.36a7.57,7.57,0,0,1-.06,2.33,4.76,4.76,0,0,1-3.52,3.66Zm0,5.63c-3.46-.8-4.74-3.95-4.74-6.75L12,6.57c-.49.34-1,.71-1.44,1.09l9.19,21.8c1.33,3.2,3.74,2.14,4.33,4.78a6,6,0,0,1,.15.92h.26a4.65,4.65,0,0,1,.15-.92c.58-2.64,3-1.58,4.32-4.78l9.19-21.8c-.47-.38-.95-.75-1.45-1.09l-7.6,18.66c0,2.8-1.28,5.95-4.74,6.75Zm-1,14.09a31.33,31.33,0,0,0,.26-4.27v-.3c0-2.52-.09-3.37-1.77-3.93-2.6-.86-3.66-3.76-3.09-7.37L10.07,8.11a21.69,21.69,0,0,0,13.28,38M38,20.83c0-1.88.46-3.42,1.8-3.42s1.82,1.54,1.82,3.42-.48,3.43-1.82,3.43S38,22.72,38,20.83m-2.37,0c0,2.89,1.34,5.09,4.17,5.09S44,23.72,44,20.83s-1.36-5.08-4.19-5.08-4.17,2.19-4.17,5.08M25.34,11.21h-2l.95-4.28h.16Zm1,3.86h2.35L25.94,5.24h-3l-2.83,9.83h2.18l.62-2.2h2.85ZM5.93,25.75H8.16V21.64H11.9V19.92H8.16V17.63H12V15.92H5.93Zm18.37-11s2,2.09,2,3.77a2.05,2.05,0,0,1-1.88,2.24h-.19a2.05,2.05,0,0,1-1.89-2.24c0-1.68,1.95-3.77,2-3.77m.1,34A24.4,24.4,0,1,1,48.79,24.4,24.42,24.42,0,0,1,24.4,48.79"/><path class="cls-1" d="M61.25,13.36c1.12,0,2-.95,2-3.59s-.89-3.59-2-3.59-2,1-2,3.59.9,3.59,2,3.59m0-8.53c2,0,3.83,1.49,3.83,4.94s-1.83,4.94-3.83,4.94-3.82-1.49-3.82-4.94,1.83-4.94,3.82-4.94"/><path class="cls-1" d="M66.53,8.66a10,10,0,0,0,0-1.17H68c0,.42,0,.86,0,1.29h0a2,2,0,0,1,1.8-1.4,1.19,1.19,0,0,1,.29,0V9A1.8,1.8,0,0,0,69.71,9c-.7,0-1.47.42-1.47,1.74v3.88H66.53Z"/><path class="cls-1" d="M73.86,13.32c1.08,0,1.5-.77,1.5-2.38S74.8,8.66,74,8.67s-1.24.84-1.24,2.28c0,1.67.54,2.37,1.11,2.37M71.4,15.67a4.4,4.4,0,0,0,2.09.61c1.61,0,1.87-1.12,1.87-2.23v-.67h0a2,2,0,0,1-1.88,1.19c-1,0-2.47-.66-2.47-3.52,0-2,.7-3.67,2.56-3.67a2,2,0,0,1,1.87,1.21h0c0-.37,0-.73.06-1.1h1.54c0,.37,0,.74,0,1.11v5.23c0,2.22-.68,3.8-3.28,3.8a7.11,7.11,0,0,1-2.43-.44Z"/><path class="cls-1" d="M82.27,11.1h-.15c-1.46,0-2.33.31-2.33,1.34a1,1,0,0,0,1.09,1.09c1,0,1.39-.76,1.39-2ZM78.91,7.9a5,5,0,0,1,2.25-.52c2.2,0,2.71,1.07,2.71,2.84v3.1A9,9,0,0,0,84,14.57H82.42a3.58,3.58,0,0,1-.1-1h0a2.29,2.29,0,0,1-2,1.07,2,2,0,0,1-2.11-2.07c0-1.93,1.57-2.41,3.72-2.41h.35V9.94A1.22,1.22,0,0,0,81,8.59,3.29,3.29,0,0,0,79,9.27Z"/><path class="cls-1" d="M85.45,8.66a9.76,9.76,0,0,0-.06-1.17H87c0,.35.05.73.05,1.08h0A2.08,2.08,0,0,1,89,7.38c1.61,0,2.1,1.19,2.1,2.62v4.57H89.34V10.32c0-1.09-.28-1.54-1-1.54-.89,0-1.21.76-1.21,1.66v4.13h-1.7Z"/><path class="cls-1" d="M92.75,7.49h1.7v7.08h-1.7Zm0-3h1.76V6.15H92.72Z"/><polygon class="cls-1" points="95.78 13.1 98.8 8.78 95.87 8.78 95.87 7.49 100.51 7.49 100.51 8.95 97.54 13.28 100.6 13.28 100.6 14.57 95.78 14.57 95.78 13.1"/><path class="cls-1" d="M105.46,11.1h-.15c-1.46,0-2.33.31-2.33,1.34a1,1,0,0,0,1.09,1.09c1,0,1.39-.76,1.39-2ZM102.1,7.9a5,5,0,0,1,2.25-.52c2.2,0,2.71,1.07,2.71,2.84v3.1a9,9,0,0,0,.09,1.25h-1.54a3.6,3.6,0,0,1-.09-1h0a2.28,2.28,0,0,1-2,1.07,2,2,0,0,1-2.12-2.07c0-1.93,1.57-2.41,3.73-2.41h.34V9.94a1.21,1.21,0,0,0-1.32-1.35,3.31,3.31,0,0,0-1.94.68Z"/><path class="cls-1" d="M113.45,14.39a4.89,4.89,0,0,1-1.68.29c-2.34,0-3.33-1.63-3.33-3.64s1-3.66,3.43-3.66a4.52,4.52,0,0,1,1.49.29L113.26,9a2.74,2.74,0,0,0-1.2-.34c-1.29,0-1.86.87-1.86,2.38,0,1.32.64,2.34,1.94,2.34a2.79,2.79,0,0,0,1.22-.34Z"/><path class="cls-1" d="M114.66,7.49h1.71v7.08h-1.71Zm0-3h1.76V6.15h-1.76Z"/><path class="cls-1" d="M121.07,4.72h1.6l-1.41,2h-1.07ZM121,13.47c1.1,0,1.35-1.26,1.35-2.45S122.1,8.59,121,8.59s-1.36,1.25-1.36,2.43.26,2.45,1.36,2.45m0-6.09c1.45,0,3.11.75,3.11,3.64s-1.66,3.66-3.11,3.66S117.88,14,117.88,11s1.68-3.64,3.12-3.64"/><path class="cls-1" d="M125.46,8.66a9.76,9.76,0,0,0-.06-1.17H127c0,.35,0,.73,0,1.08h0A2.08,2.08,0,0,1,129,7.38c1.61,0,2.09,1.19,2.09,2.62v4.57h-1.71V10.32c0-1.09-.27-1.54-1-1.54-.89,0-1.21.76-1.21,1.66v4.13h-1.7Z"/><path class="cls-1" d="M138.94,13.43c1,0,1.35-1.09,1.35-2.42S139.9,8.63,139,8.63s-1.28.92-1.28,2.34c0,1.64.26,2.46,1.25,2.46M142,4.25v9.11a9.14,9.14,0,0,0,.06,1.21h-1.6c0-.2,0-.62,0-1.1h0a1.91,1.91,0,0,1-1.89,1.21C136.71,14.68,136,13,136,11c0-2.32.92-3.66,2.45-3.66a1.9,1.9,0,0,1,1.83,1.12h0V4.25Z"/><path class="cls-1" d="M147.47,10.42c0-1.25-.42-1.89-1.19-1.89s-1.26,1-1.26,1.89Zm1.29,3.81a5.33,5.33,0,0,1-2.12.45c-2.28,0-3.27-1.63-3.27-3.55,0-2.12,1.11-3.75,2.91-3.75,1.53,0,2.84.89,2.84,3.78v.33H145c0,1.21.48,1.94,1.8,1.94a2.85,2.85,0,0,0,1.86-.55Z"/><rect class="cls-1" x="154.18" y="4.25" width="1.71" height="10.32"/><path class="cls-1" d="M161.29,11.1h-.15c-1.46,0-2.33.31-2.33,1.34a1,1,0,0,0,1.09,1.09c1,0,1.39-.76,1.39-2Zm-3.36-3.2a5,5,0,0,1,2.25-.52c2.2,0,2.71,1.07,2.71,2.84v3.1a9,9,0,0,0,.09,1.25h-1.54a3.6,3.6,0,0,1-.09-1h0a2.27,2.27,0,0,1-2,1.07,2,2,0,0,1-2.12-2.07c0-1.93,1.57-2.41,3.73-2.41h.34V9.94A1.21,1.21,0,0,0,160,8.59a3.31,3.31,0,0,0-1.94.68Z"/><path class="cls-1" d="M164.27,12.92a4.6,4.6,0,0,0,1.78.47c.62,0,1.1-.15,1.1-.7,0-.28-.14-.54-.76-.9l-.7-.41c-.71-.43-1.5-.88-1.5-2a2.26,2.26,0,0,1,2.45-2,5.58,5.58,0,0,1,1.78.29L168.32,9a3.83,3.83,0,0,0-1.5-.32c-.69,0-1,.26-1,.69s.31.59.8.91l.84.53c.88.57,1.32,1,1.32,1.79,0,1.31-1.1,2.09-2.64,2.09a5.73,5.73,0,0,1-2-.34Z"/><polygon class="cls-1" points="173.87 4.97 175.97 4.97 179.16 12.51 179.19 12.51 179.19 4.97 180.78 4.97 180.78 14.57 178.68 14.57 175.5 7.09 175.47 7.09 175.47 14.57 173.87 14.57 173.87 4.97"/><path class="cls-1" d="M186.25,11.1h-.15c-1.46,0-2.32.31-2.32,1.34a1,1,0,0,0,1.09,1.09c1,0,1.38-.76,1.38-2ZM182.9,7.9a4.92,4.92,0,0,1,2.24-.52c2.2,0,2.71,1.07,2.71,2.84v3.1a8.72,8.72,0,0,0,.1,1.25h-1.54a3.22,3.22,0,0,1-.1-1h0a2.26,2.26,0,0,1-2,1.07,2,2,0,0,1-2.12-2.07c0-1.93,1.57-2.41,3.73-2.41h.34V9.94a1.21,1.21,0,0,0-1.32-1.35,3.31,3.31,0,0,0-1.94.68Z"/><path class="cls-1" d="M194.25,14.39a4.89,4.89,0,0,1-1.68.29c-2.34,0-3.33-1.63-3.33-3.64s1-3.66,3.42-3.66a4.52,4.52,0,0,1,1.49.29L194.05,9a2.7,2.7,0,0,0-1.19-.34c-1.3,0-1.86.87-1.86,2.38,0,1.32.63,2.34,1.94,2.34a2.75,2.75,0,0,0,1.21-.34Z"/><path class="cls-1" d="M195.45,7.49h1.71v7.08h-1.71Zm0-3h1.76V6.15h-1.76Z"/><path class="cls-1" d="M201.8,13.47c1.1,0,1.35-1.26,1.35-2.45s-.25-2.43-1.35-2.43-1.36,1.25-1.36,2.43.26,2.45,1.36,2.45m0-6.09c1.44,0,3.11.75,3.11,3.64s-1.67,3.66-3.11,3.66S198.68,14,198.68,11s1.67-3.64,3.12-3.64"/><path class="cls-1" d="M206.25,8.66a10,10,0,0,0-.05-1.17h1.59c0,.35.06.73.06,1.08h0a2.06,2.06,0,0,1,1.88-1.19c1.61,0,2.09,1.19,2.09,2.62v4.57h-1.7V10.32c0-1.09-.28-1.54-1-1.54-.89,0-1.21.76-1.21,1.66v4.13h-1.71Z"/><path class="cls-1" d="M217.3,10.42c0-1.25-.41-1.89-1.18-1.89s-1.27,1-1.27,1.89Zm1.29,3.81a5.28,5.28,0,0,1-2.12.45c-2.28,0-3.27-1.63-3.27-3.55,0-2.12,1.11-3.75,2.92-3.75,1.52,0,2.83.89,2.83,3.78v.33h-4.1c0,1.21.48,1.94,1.8,1.94a2.85,2.85,0,0,0,1.86-.55Z"/><path class="cls-1" d="M220.08,12.92a4.48,4.48,0,0,0,1.77.47c.62,0,1.1-.15,1.1-.7,0-.28-.14-.54-.75-.9l-.71-.41c-.71-.43-1.5-.88-1.5-2a2.26,2.26,0,0,1,2.45-2,5.58,5.58,0,0,1,1.78.29L224.12,9a3.83,3.83,0,0,0-1.5-.32c-.69,0-1,.26-1,.69s.31.59.8.91l.84.53c.88.57,1.32,1,1.32,1.79,0,1.31-1.1,2.09-2.64,2.09a5.73,5.73,0,0,1-2-.34Z"/><path class="cls-1" d="M59.49,20.52v6.22c0,1.59.48,2.11,1.51,2.11s1.5-.52,1.5-2.11V20.52h1.77v6.22c0,2.53-1.46,3.52-3.27,3.52s-3.27-1-3.27-3.52V20.52Z"/><path class="cls-1" d="M66,24.2A9.88,9.88,0,0,0,65.91,23h1.6c0,.36,0,.73,0,1.09h0a2.07,2.07,0,0,1,1.89-1.2c1.61,0,2.09,1.2,2.09,2.63v4.57H69.86V25.87c0-1.09-.27-1.54-1-1.54-.89,0-1.2.75-1.2,1.66v4.13H66Z"/><path class="cls-1" d="M73.27,23H75v7.09H73.27Zm0-3H75V21.7H73.25Z"/><path class="cls-1" d="M79.45,29c1,0,1.35-1.09,1.35-2.42s-.39-2.38-1.32-2.38-1.28.92-1.28,2.34c0,1.63.26,2.46,1.25,2.46m3-9.18v9.11a9.14,9.14,0,0,0,.06,1.21H81c0-.21,0-.62,0-1.1h0A1.93,1.93,0,0,1,79,30.23c-1.76,0-2.49-1.68-2.49-3.65,0-2.31.92-3.66,2.45-3.66a1.91,1.91,0,0,1,1.83,1.13h0V19.8Z"/><path class="cls-1" d="M87.77,26.65h-.15c-1.46,0-2.33.31-2.33,1.34a1,1,0,0,0,1.09,1.09c1,0,1.39-.76,1.39-2Zm-3.36-3.2a5,5,0,0,1,2.25-.53c2.2,0,2.71,1.08,2.71,2.85v3.1a9,9,0,0,0,.09,1.25H87.92a3.6,3.6,0,0,1-.09-1h0a2.29,2.29,0,0,1-2,1.07,2,2,0,0,1-2.12-2.08c0-1.92,1.57-2.4,3.73-2.4h.34v-.27a1.21,1.21,0,0,0-1.32-1.34,3.31,3.31,0,0,0-1.94.68Z"/><path class="cls-1" d="M90.75,28.47a4.6,4.6,0,0,0,1.78.47c.62,0,1.1-.15,1.1-.7,0-.28-.14-.54-.76-.9l-.7-.41c-.71-.43-1.5-.88-1.5-2a2.26,2.26,0,0,1,2.45-2,5.9,5.9,0,0,1,1.78.29l-.1,1.33a3.83,3.83,0,0,0-1.5-.32c-.69,0-1,.26-1,.69s.31.59.8.9l.84.54c.88.56,1.32,1,1.32,1.79,0,1.31-1.1,2.09-2.64,2.09a6,6,0,0,1-2-.34Z"/><path class="cls-1" d="M103.18,29c.95,0,1.28-.92,1.28-2.34,0-1.64-.27-2.46-1.25-2.46s-1.35,1.08-1.35,2.42.38,2.38,1.32,2.38m-3-4.73a7.9,7.9,0,0,0-.06-1.22h1.6a8.83,8.83,0,0,1,.06,1.11h0a1.9,1.9,0,0,1,1.88-1.22c1.76,0,2.49,1.68,2.49,3.65,0,2.31-.92,3.66-2.45,3.66a1.92,1.92,0,0,1-1.83-1.13h0v4h-1.71Z"/><path class="cls-1" d="M111.21,26.65h-.15c-1.46,0-2.33.31-2.33,1.34a1,1,0,0,0,1.09,1.09c1,0,1.39-.76,1.39-2Zm-3.36-3.2a5,5,0,0,1,2.25-.53c2.2,0,2.71,1.08,2.71,2.85v3.1a9,9,0,0,0,.09,1.25h-1.54a3.58,3.58,0,0,1-.1-1h0a2.31,2.31,0,0,1-2,1.07,2,2,0,0,1-2.12-2.08c0-1.92,1.57-2.4,3.73-2.4h.34v-.27a1.21,1.21,0,0,0-1.32-1.34,3.31,3.31,0,0,0-1.94.68Z"/><path class="cls-1" d="M114.44,24.2a10.09,10.09,0,0,0,0-1.17h1.54c0,.43,0,.87,0,1.3h0a2,2,0,0,1,1.8-1.41,2.54,2.54,0,0,1,.29,0v1.6a1.79,1.79,0,0,0-.48-.07c-.7,0-1.47.43-1.47,1.75v3.88h-1.71Z"/><path class="cls-1" d="M122.79,26.65h-.15c-1.46,0-2.33.31-2.33,1.34a1,1,0,0,0,1.09,1.09c1,0,1.39-.76,1.39-2Zm-3.36-3.2a5,5,0,0,1,2.25-.53c2.2,0,2.71,1.08,2.71,2.85v3.1a9,9,0,0,0,.09,1.25h-1.54a3.58,3.58,0,0,1-.1-1h0a2.31,2.31,0,0,1-2,1.07,2,2,0,0,1-2.12-2.08c0-1.92,1.57-2.4,3.73-2.4h.34v-.27a1.21,1.21,0,0,0-1.32-1.34,3.31,3.31,0,0,0-1.94.68Z"/><rect class="cls-1" x="129.71" y="19.8" width="1.71" height="10.32"/><path class="cls-1" d="M136.82,26.65h-.15c-1.46,0-2.33.31-2.33,1.34a1,1,0,0,0,1.09,1.09c1,0,1.39-.76,1.39-2Zm-3.36-3.2a5,5,0,0,1,2.25-.53c2.2,0,2.71,1.08,2.71,2.85v3.1a9,9,0,0,0,.09,1.25H137a3.6,3.6,0,0,1-.09-1h0a2.31,2.31,0,0,1-2,1.07,2,2,0,0,1-2.12-2.08c0-1.92,1.57-2.4,3.73-2.4h.34v-.27a1.21,1.21,0,0,0-1.32-1.34,3.31,3.31,0,0,0-1.94.68Z"/><path class="cls-1" d="M147.51,26.46,146.3,22h0L145,26.46Zm.37,1.35h-3.3l-.69,2.31h-1.76l3.22-9.6h1.93l3.09,9.6h-1.81Z"/><rect class="cls-1" x="151.38" y="19.8" width="1.71" height="10.32"/><path class="cls-1" d="M155,23h1.71v7.09H155Zm0-3h1.77V21.7h-1.77Z"/><path class="cls-1" d="M158.33,24.19c0-.51,0-.89-.05-1.16H160c0,.38.06.75.06,1.12h0a2,2,0,0,1,1.78-1.23,1.83,1.83,0,0,1,1.79,1.13,2.23,2.23,0,0,1,1.9-1.13c1.54,0,2,1.11,2,2.82v4.38h-1.71V25.65c0-.88-.27-1.32-.91-1.32s-1.15.71-1.15,1.5v4.29H162.1V25.65c0-.88-.27-1.32-.91-1.32S160,25,160,25.83v4.29h-1.71Z"/><path class="cls-1" d="M173,26c0-1.25-.41-1.88-1.18-1.88s-1.27,1-1.27,1.88Zm1.29,3.82a5.27,5.27,0,0,1-2.11.45c-2.29,0-3.28-1.64-3.28-3.55,0-2.12,1.12-3.76,2.92-3.76,1.53,0,2.83.9,2.83,3.79V27h-4.1c0,1.21.48,1.94,1.8,1.94a2.85,2.85,0,0,0,1.86-.55Z"/><path class="cls-1" d="M176,24.2a10.09,10.09,0,0,0,0-1.17h1.59c0,.36.06.73.06,1.09h0a2.07,2.07,0,0,1,1.89-1.2c1.61,0,2.09,1.2,2.09,2.63v4.57h-1.71V25.87c0-1.09-.27-1.54-1-1.54-.9,0-1.21.75-1.21,1.66v4.13H176Z"/><path class="cls-1" d="M183.72,21.58l1.71-.53v2h1.42v1.26h-1.42V28c0,.76.27,1,.77,1a1.38,1.38,0,0,0,.65-.15V30a2.73,2.73,0,0,1-1.15.23c-1.26,0-2-.58-2-2.06V24.29h-1.13V23h1.13Z"/><path class="cls-1" d="M191.63,26.65h-.15c-1.46,0-2.33.31-2.33,1.34a1,1,0,0,0,1.09,1.09c1,0,1.39-.76,1.39-2Zm-3.36-3.2a5,5,0,0,1,2.25-.53c2.2,0,2.71,1.08,2.71,2.85v3.1a7.46,7.46,0,0,0,.1,1.25h-1.55a3.6,3.6,0,0,1-.09-1h0a2.29,2.29,0,0,1-2,1.07,2,2,0,0,1-2.12-2.08c0-1.92,1.57-2.4,3.73-2.4h.34v-.27a1.21,1.21,0,0,0-1.32-1.34,3.31,3.31,0,0,0-1.94.68Z"/><path class="cls-1" d="M199.62,29.94a4.83,4.83,0,0,1-1.67.29c-2.34,0-3.34-1.64-3.34-3.65s1-3.66,3.43-3.66a4.79,4.79,0,0,1,1.49.29l-.1,1.35a2.74,2.74,0,0,0-1.2-.34c-1.29,0-1.85.86-1.85,2.38,0,1.32.63,2.34,1.94,2.34a2.79,2.79,0,0,0,1.21-.35Z"/><path class="cls-1" d="M200.83,23h1.71v7.09h-1.71Zm0-3h1.76V21.7h-1.76Z"/><path class="cls-1" d="M207.24,20.27h1.6l-1.4,2h-1.08ZM207.17,29c1.11,0,1.35-1.26,1.35-2.45s-.24-2.43-1.35-2.43-1.36,1.25-1.36,2.43.26,2.45,1.36,2.45m0-6.1c1.45,0,3.11.76,3.11,3.65s-1.66,3.66-3.11,3.66-3.12-.69-3.12-3.66,1.68-3.65,3.12-3.65"/><path class="cls-1" d="M211.63,24.2a10.09,10.09,0,0,0,0-1.17h1.59c0,.36.06.73.06,1.09h0a2.07,2.07,0,0,1,1.89-1.2c1.61,0,2.09,1.2,2.09,2.63v4.57h-1.7V25.87c0-1.09-.28-1.54-1-1.54-.9,0-1.21.75-1.21,1.66v4.13h-1.71Z"/><path class="cls-1" d="M60.06,43.94h0l1.36-5.36H63.1L60.51,47a2.05,2.05,0,0,1-2,1.7,3.6,3.6,0,0,1-1.09-.17l.1-1.31a1.73,1.73,0,0,0,.64.14c.51,0,.73-.31,1-1l.13-.6-2.36-7.16h1.76Z"/><rect class="cls-1" x="67.67" y="35.35" width="1.71" height="10.32"/><path class="cls-1" d="M74.79,42.2h-.15c-1.46,0-2.33.31-2.33,1.34a1,1,0,0,0,1.09,1.08c1,0,1.39-.75,1.39-2ZM71.43,39a4.92,4.92,0,0,1,2.24-.52c2.2,0,2.71,1.08,2.71,2.85v3.1a8.85,8.85,0,0,0,.1,1.25H74.94a3.63,3.63,0,0,1-.1-1h0a2.28,2.28,0,0,1-2,1.07,2,2,0,0,1-2.12-2.08c0-1.92,1.57-2.41,3.73-2.41h.35V41a1.22,1.22,0,0,0-1.32-1.35,3.28,3.28,0,0,0-1.94.69Z"/><path class="cls-1" d="M85.47,42l-1.21-4.49h0L82.92,42Zm.38,1.35H82.54l-.68,2.31H80.09l3.22-9.61h1.93l3.1,9.61H86.52Z"/><path class="cls-1" d="M91.87,44.42c1.07,0,1.5-.77,1.5-2.38s-.56-2.29-1.38-2.27-1.23.84-1.23,2.28c0,1.67.53,2.37,1.11,2.37m-2.46,2.35a4.47,4.47,0,0,0,2.09.61c1.61,0,1.87-1.12,1.87-2.23v-.68h0a1.93,1.93,0,0,1-1.87,1.2c-1,0-2.48-.66-2.48-3.52,0-2,.71-3.68,2.56-3.68a2,2,0,0,1,1.87,1.21h.06c0-.37,0-.72,0-1.1h1.55c0,.38-.06.75-.06,1.12v5.23c0,2.21-.67,3.79-3.28,3.79a6.92,6.92,0,0,1-2.43-.44Z"/><path class="cls-1" d="M96.63,39.75a9.88,9.88,0,0,0-.06-1.17h1.54c0,.43.06.87.06,1.29h0a2,2,0,0,1,1.8-1.4,2.54,2.54,0,0,1,.29,0v1.6a1.85,1.85,0,0,0-.48-.07c-.71,0-1.48.43-1.48,1.75v3.88h-1.7Z"/><path class="cls-1" d="M101.58,38.58h1.71v7.09h-1.71Zm0-3h1.76v1.68h-1.76Z"/><path class="cls-1" d="M109.81,45.49a4.89,4.89,0,0,1-1.68.29c-2.34,0-3.33-1.64-3.33-3.65s1-3.66,3.42-3.66a4.79,4.79,0,0,1,1.49.29l-.1,1.35a2.74,2.74,0,0,0-1.19-.34c-1.3,0-1.86.86-1.86,2.38,0,1.32.63,2.34,1.94,2.34a2.74,2.74,0,0,0,1.21-.35Z"/><path class="cls-1" d="M116.45,44.5a10.09,10.09,0,0,0,0,1.17h-1.59c0-.36-.06-.73-.06-1.09h0a2.06,2.06,0,0,1-1.89,1.2c-1.61,0-2.09-1.2-2.09-2.63V38.58h1.71v4.25c0,1.09.3,1.55,1,1.55.91,0,1.17-.83,1.17-1.74V38.58h1.71Z"/><rect class="cls-1" x="118.15" y="35.35" width="1.71" height="10.32"/><path class="cls-1" d="M122.2,37.12l1.7-.52v2h1.42v1.26H123.9v3.67c0,.76.28,1,.77,1a1.43,1.43,0,0,0,.65-.15v1.2a2.52,2.52,0,0,1-1.14.24c-1.27,0-2-.58-2-2.06V39.84h-1.13V38.58h1.13Z"/><path class="cls-1" d="M132,44.5a10.09,10.09,0,0,0,.05,1.17h-1.59c0-.36-.06-.73-.06-1.09h0a2.05,2.05,0,0,1-1.88,1.2c-1.61,0-2.09-1.2-2.09-2.63V38.58h1.7v4.25c0,1.09.31,1.55,1,1.55.91,0,1.17-.83,1.17-1.74V38.58H132Z"/><path class="cls-1" d="M133.6,39.75a8.12,8.12,0,0,0-.06-1.17h1.54c0,.43.06.87.06,1.29h0a2,2,0,0,1,1.8-1.4,2.54,2.54,0,0,1,.29,0v1.6a1.79,1.79,0,0,0-.48-.07c-.7,0-1.47.43-1.47,1.75v3.88H133.6Z"/><path class="cls-1" d="M142,42.2h-.15c-1.46,0-2.33.31-2.33,1.34a1,1,0,0,0,1.09,1.08c1,0,1.39-.75,1.39-2ZM138.59,39a5,5,0,0,1,2.25-.52c2.2,0,2.71,1.08,2.71,2.85v3.1a9.12,9.12,0,0,0,.09,1.25H142.1a3.65,3.65,0,0,1-.09-1h0a2.29,2.29,0,0,1-2,1.07,2,2,0,0,1-2.12-2.08c0-1.92,1.57-2.41,3.73-2.41H142V41a1.22,1.22,0,0,0-1.32-1.35,3.31,3.31,0,0,0-1.94.69Z"/></g></g></svg>