<svg xmlns="http://www.w3.org/2000/svg" viewBox="0 0 120.75 24.3"><defs><style>.cls-1{fill:#666666;}</style></defs><g id="Capa_2" data-name="Capa 2"><g id="Capa_1-2" data-name="Capa 1"><path class="cls-1" d="M111,21.22a3.5,3.5,0,0,0,.9-.61c.54-.47.63-1.1,1.12-1.7a20.61,20.61,0,0,1,1.69-1.71,14.17,14.17,0,0,1-.68,2.11,3,3,0,0,1-1,1.28.66.66,0,0,0,.63,0,2.38,2.38,0,0,1,1.28-.3,3,3,0,0,0,1.9-.31c.68-.4,1.28-.78,1.28-.78a3.68,3.68,0,0,1-2.12,2,4.16,4.16,0,0,1-2.78.24,1.77,1.77,0,0,0-1.23-.22,2.76,2.76,0,0,1-1,0"/><path class="cls-1" d="M116.45,14.37a16,16,0,0,0,.09,1.68,2.45,2.45,0,0,1-.2,1.38c-.18.41-.48,1-.26,1.12s.3-.35.78-.69,1.36-.78,1.84-1.06a5,5,0,0,0,1.35-1.3,5.11,5.11,0,0,1-2,3.05,8.66,8.66,0,0,1-3.26.93,1.44,1.44,0,0,0,.34-.71c.12-.51.18-1.6.4-2.29s.91-2.11.91-2.11"/><path class="cls-1" d="M117.34,11.56a20.63,20.63,0,0,1,.71,2,11.66,11.66,0,0,1,0,1.73A6.44,6.44,0,0,0,119,14c.4-.61,1-.83,1.28-1.32l.45-.69a16.06,16.06,0,0,1-.67,2.17c-.58,1.33-2.91,2.74-2.91,2.74a5.38,5.38,0,0,0,.19-1.16,13.18,13.18,0,0,0-.2-2.23,12.7,12.7,0,0,1,.18-2"/><path class="cls-1" d="M117.3,8.4s.18.22.57.81a5.44,5.44,0,0,1,.9,1.58c0,.35.2.79.32.77s.12-.43.3-1,.72-1.22.8-1.67.22-.88.22-.88a7.71,7.71,0,0,1,0,2.82,4.55,4.55,0,0,1-1.23,2c-.12.15-.34.37-.34.37s.12.12-.24-.67-.61-1.28-.93-1.86a9.67,9.67,0,0,1-.32-2.26"/><path class="cls-1" d="M116.5,5.79a6.93,6.93,0,0,1,1.27.93c.45.48,1,1.37,1.12,1.33s0-.79,0-1.09a11.57,11.57,0,0,0,.1-2c-.06-.35-.17-.86-.17-.86a5.57,5.57,0,0,1,1,2.46,3.07,3.07,0,0,1-.44,2.05,5,5,0,0,0-.41,1,3.93,3.93,0,0,0-.48-.72,7.92,7.92,0,0,1-1.34-1.75c-.27-.63-.66-1.38-.66-1.38"/><path class="cls-1" d="M115.18,3.29a8.19,8.19,0,0,0,.65.5,10.12,10.12,0,0,1,1.18.74c.28.27.63.59.78.51s0-.32-.26-.92a13.68,13.68,0,0,0-.41-1.43,4.37,4.37,0,0,1-.34-.76,4.45,4.45,0,0,1,1.31,1.53,16.69,16.69,0,0,1,.17,2.86,3,3,0,0,0-.58-.55c-.38-.27-1.34-.95-1.66-1.21a2.8,2.8,0,0,1-.84-1.27"/><path class="cls-1" d="M114.28,1a4.45,4.45,0,0,1,1.45.71,5.36,5.36,0,0,1,1,1.78,7.27,7.27,0,0,1-1.3-.81A12.73,12.73,0,0,1,114.28,1"/><path class="cls-1" d="M97.21,21.93a4.39,4.39,0,0,0,1.8.46,18.1,18.1,0,0,0,2.81-.65,7.56,7.56,0,0,1,2.87-.29c.58.09,1.6.22,1.6.22s1.32-.2,2.35-.25a6.08,6.08,0,0,1,2,.35,12.88,12.88,0,0,0,2.86.67,4.61,4.61,0,0,0,2-.41s-.11.8-2.79,1c-1.6.15-2.26,0-3-.41a5.49,5.49,0,0,0-1.82-.83c-.35,0-.88,0-.88,0a6.39,6.39,0,0,1,1.44.72L110.18,24l-.31.35a5.68,5.68,0,0,0-1.26-1.24,6.35,6.35,0,0,0-2.3-1.12,5.9,5.9,0,0,0-2.6,1.39,5.66,5.66,0,0,0-.92.94l-.32-.32a10.6,10.6,0,0,1,1.47-1.15,18.7,18.7,0,0,1,1.73-1s0-.09-.54,0a3.49,3.49,0,0,0-1.78.62,3.93,3.93,0,0,1-2,.74,7.53,7.53,0,0,1-3.1-.42c-.89-.37-1.08-.8-1.08-.8"/><path class="cls-1" d="M94.52,19.1a14.14,14.14,0,0,0,1.19.84,4.33,4.33,0,0,0,2.13.33,6,6,0,0,1,1.17.27c.17.08.64.12.69,0s-.43-.3-.8-.93a10.2,10.2,0,0,1-.84-2.45,8.1,8.1,0,0,1,1.52,1.5c.73.95.63,1.41,1.14,1.83a6,6,0,0,0,1,.69,7.6,7.6,0,0,0-1.15,0,13.45,13.45,0,0,1-2,.35,4.15,4.15,0,0,1-3.2-1.31,4.7,4.7,0,0,1-.86-1.13"/><path class="cls-1" d="M92.49,15.56a7.69,7.69,0,0,0,1.18,1.19c.7.55,1.76.88,2.12,1.28s.52.73.72.63-.12-.44-.25-1a8.27,8.27,0,0,1-.14-2.48,3.29,3.29,0,0,0,0-.72,13.19,13.19,0,0,1,.7,1.37,15,15,0,0,1,.48,2.69,2.9,2.9,0,0,0,.5,1,7.27,7.27,0,0,1-1.62-.25,5.55,5.55,0,0,1-2.62-1.66,22.51,22.51,0,0,1-1.1-2.1"/><path class="cls-1" d="M91.83,12a3,3,0,0,0,.56.88,8.48,8.48,0,0,1,1,.95c.28.33,1,1.61,1.18,1.57s-.09-.68,0-1.33a8.13,8.13,0,0,1,.81-2.39,16.9,16.9,0,0,1,.12,2.15A14.79,14.79,0,0,0,95.24,16c.1.46.16,1,.16,1a19.68,19.68,0,0,1-1.82-1.37A7.14,7.14,0,0,1,92,13.08,6,6,0,0,1,91.83,12"/><path class="cls-1" d="M92.11,8a12.36,12.36,0,0,0,.12,2.88,5.18,5.18,0,0,0,1.54,2.39,4.83,4.83,0,0,1,.35-1c.25-.51.64-1,.8-1.44a9.52,9.52,0,0,0,.38-2.27s-.28.41-.53.74A6.23,6.23,0,0,0,94,10.59c-.23.55-.26,1.05-.53,1.08s0-.49-.36-1.19a12.55,12.55,0,0,1-.78-1.76A2.81,2.81,0,0,0,92.11,8"/><path class="cls-1" d="M93.71,4.21a5.26,5.26,0,0,0-.92,2.05,3.71,3.71,0,0,0,.35,2.43,3.37,3.37,0,0,1,.34,1.1,2.66,2.66,0,0,1,.47-.7,9.07,9.07,0,0,0,1.32-1.56A12.93,12.93,0,0,0,96,6a6.57,6.57,0,0,0-1,.69,7.13,7.13,0,0,0-1.37,1.59.58.58,0,0,1-.18-.55,3.7,3.7,0,0,0,.11-1.21,3.38,3.38,0,0,1-.08-1c.08-.45.2-1.22.2-1.22"/><path class="cls-1" d="M95.88,2a3.6,3.6,0,0,0-1.36,1.44,10.85,10.85,0,0,0-.24,1.9,2.69,2.69,0,0,0,0,1.08,4.06,4.06,0,0,1,.47-.55,8.22,8.22,0,0,1,1.39-.93,4,4,0,0,0,1.31-1.61,5.83,5.83,0,0,1-.79.61,10.77,10.77,0,0,0-1.11.63,2,2,0,0,0-.48.72.69.69,0,0,1-.22-.65,7.24,7.24,0,0,0,.36-.94,5.12,5.12,0,0,1,.32-1.1c.14-.24.32-.6.32-.6"/><path class="cls-1" d="M96.66,1.94a6.49,6.49,0,0,1,1.66-.86,8.91,8.91,0,0,1-1.09,1.43,5.92,5.92,0,0,1-1.48,1.06,3.25,3.25,0,0,1,.91-1.63"/><path class="cls-1" d="M102.36,3.35c1.13,0,3.39,1.19,3.39,2.79A2.41,2.41,0,0,1,105,7.81a2.48,2.48,0,0,1,0,.72c-.14.32-.29.23-.49.52s-.27.74-1.1.74-.8-.26-1.19-.26a.9.9,0,0,0-.65.37v2.88s.08.37.81.75a5.21,5.21,0,0,0,1.54.63c.23,0,.23-.26.51-.26s1.41,0,1.41.52-.56.86-2.59.86a21.74,21.74,0,0,1-2.88-.16c-.23,0-.26.05-.26.36s0,.74,0,.74a2.44,2.44,0,0,0,.75.74,2.1,2.1,0,0,0,1.1.32,4.77,4.77,0,0,0,1.7-.39,4.25,4.25,0,0,1,1.74-.38c.64,0,1.77-.15,1.77-.79s-.25-.87-.25-1.37.08-.93-.16-1.17-1.33-1-1.33-1.45.4-.62.45-.87,0-.38.17-.43a2.44,2.44,0,0,0,.3-.11l.08-.4a1.61,1.61,0,0,0,.33-.2l.21-.16a.55.55,0,0,1,.08-.5.74.74,0,0,1,.61-.14c.18,0,.73-.07.73-.07a1.85,1.85,0,0,1,.38-.46c.33-.24,1.23-.37,1.46-.55s.47-.61,1.08-.61c2.48,0,4.15,2.21,4.15,3.39,0,2.06-1.35,4.55-3.25,4.55-1.49,0-1.39.44-1.39.92a1.37,1.37,0,0,0,1.11,1.33,9.6,9.6,0,0,1-5.06,1.74,9.43,9.43,0,0,1-7-2.94,8.1,8.1,0,0,1-2.24-5.7V9.37a10,10,0,0,1,1.09-.73c.41-.2,1.32-.72,1.32-1.15A13.55,13.55,0,0,1,99.76,6a3.09,3.09,0,0,1,.5-1.7,2.6,2.6,0,0,1,2.1-.93"/><path class="cls-1" d="M106.4,19.83a9.53,9.53,0,0,1-9.62-9.39c0-7,6.49-8.94,6.49-8.94l.39.37a4,4,0,0,0-.62.51,4.1,4.1,0,0,0-.45.53l.17.15a3.82,3.82,0,0,1,.43-.51c.23-.22.56-.49.56-.49a3.7,3.7,0,0,0,.55.47c.21.12.52.26.52.26a1.77,1.77,0,0,1-.12.36c-.09.2-.18.46-.18.46l.21.11s.14-.38.21-.53.14-.3.14-.3a6.47,6.47,0,0,0,.91.29,3.61,3.61,0,0,0,.72.07V4.92h-.62v.29h.64V7.3h-.54v.24h.53v.77H107V7.57s.34,0,1.23,0,1.46-.12,1.46-.12,0-.8-.1-1.39a8.13,8.13,0,0,0-.21-1,5.22,5.22,0,0,0,1.07-.29c.56-.22,1-.44,1-.44a5,5,0,0,1,.52,1c.23.6.45,1.2.45,1.2l-.38.17.06.19.44-.13.13.26.16-.08-.12-.26a6.24,6.24,0,0,0,1-.43c.52-.28.9-.54.9-.54A9.26,9.26,0,0,1,116,10.42a9.47,9.47,0,0,1-9.59,9.41M104.21,1.22a4.38,4.38,0,0,1,.66-.11,4.1,4.1,0,0,0-.64.37l-.43.3a.73.73,0,0,1-.16-.16,1,1,0,0,1-.08-.2,4,4,0,0,1,.65-.2M106.06,1a4.29,4.29,0,0,0-.66.81,6,6,0,0,1-.48.76,3.74,3.74,0,0,1-.6-.32c-.24-.18-.37-.3-.37-.3A2.84,2.84,0,0,1,105,1.25a3.87,3.87,0,0,1,1-.26m.61.05,0,2a2.74,2.74,0,0,1-.89-.09,2.59,2.59,0,0,1-.69-.26,7.41,7.41,0,0,1,.57-.92c.72-1,1-.69,1-.69M107,3.25a6,6,0,0,0,.8,0,6.61,6.61,0,0,0,.84-.12,1.75,1.75,0,0,1,.29.76c.12.56.19,1,.19,1A6.4,6.4,0,0,1,108,5a4.56,4.56,0,0,1-1,0ZM107,1s.55-.14,1,.78c.26.48.49,1,.49,1a5,5,0,0,1-.77.15A3.33,3.33,0,0,1,107,3Zm2,.45a3.65,3.65,0,0,1,.88.7s-.19.12-.45.31a2,2,0,0,1-.62.26s-.23-.54-.4-.84a5.4,5.4,0,0,0-.66-.82,4.85,4.85,0,0,1,1.25.39m.77.07a3.11,3.11,0,0,1,.59.26L110,2s-.21-.18-.39-.36a1.75,1.75,0,0,0-.62-.32l.7.2m-.24,5.68a5.76,5.76,0,0,1-1,.09c-.77,0-1.45,0-1.45,0V5.17s.59,0,1,0a9,9,0,0,0,1.18-.13s0,.34.13.88a9.27,9.27,0,0,1,.11,1.28m-.25-3.32a3.66,3.66,0,0,0-.36-.87,6.21,6.21,0,0,0,.68-.37c.27-.17.49-.34.49-.34s.47.46.81.88a8,8,0,0,1,.58.82l-.93.41a4.77,4.77,0,0,1-1.13.32,8.14,8.14,0,0,0-.14-.85m1.29-2a6.92,6.92,0,0,1,1.12.62c.45.32,1,.72,1,.72a1.3,1.3,0,0,1-.33.33,4,4,0,0,1-.62.34s-.33-.46-.61-.8-.8-.95-.8-.95L110.4,2a.34.34,0,0,1,.1-.08m3.26,2.5a6.06,6.06,0,0,1,.75,1,3,3,0,0,1-.74.53c-.4.18-1.14.46-1.14.46a12.23,12.23,0,0,0-.49-1.27c-.22-.44-.44-1-.44-1l.54-.37a5.61,5.61,0,0,0,.54-.42,12.41,12.41,0,0,1,1,1M106.38.71a9.8,9.8,0,0,0-9.88,9.71,9.89,9.89,0,0,0,19.77,0A9.8,9.8,0,0,0,106.38.71"/><path class="cls-1" d="M11.1,23.49V21L11,21a5.69,5.69,0,0,1-5.46,3C3.06,24,0,22.78,0,18.75V6.61H2.89v11.2c0,2.78,1.45,3.71,3.32,3.71,3.65,0,4.73-3.16,4.73-5.61V6.61h2.89V23.49Z"/><path class="cls-1" d="M32.16,23.49H29.27V13.1c0-2.94-.85-4.42-3.68-4.42-1.64,0-4.53,1-4.53,5.61v9.2h-2.9V6.61h2.73V9H21a6.24,6.24,0,0,1,5.19-2.87c2.66,0,6,1.07,6,5.87Z"/><path class="cls-1" d="M39.39,23.49H36.5V6.61h2.89ZM36.5.32h2.89V3.55H36.5Z"/><path class="cls-1" d="M54.46,12.29C54.1,10,52.82,8.68,50.39,8.68c-3.58,0-4.73,3.36-4.73,6.36s.72,6.48,4.7,6.48c1.94,0,3.61-1.42,4.1-4h2.79c-.29,2.68-2,6.45-7,6.45-4.83,0-7.69-3.58-7.69-8.45,0-5.23,2.56-9.39,8.25-9.39,4.5,0,6.21,3.23,6.43,6.16Z"/><path class="cls-1" d="M72,13.71c-.16-2.61-1.28-5-4.8-5a5,5,0,0,0-4.76,5Zm2.76,4.49a7.27,7.27,0,0,1-3.06,4.61C70.89,23.33,69.77,24,67,24c-4.83,0-7.69-3.58-7.69-8.45,0-5.23,2.56-9.39,8.25-9.39C72.53,6.13,75,10,75,16H62.41c0,3.52,1.68,5.55,5,5.55a4.34,4.34,0,0,0,4.43-3.32Z"/><path class="cls-1" d="M82,9V23.49H79.1V9H76.73V6.61H79.1V3.71C79.1,1.16,80.74,0,83.57,0c.42,0,.85,0,1.31.06V2.61c-.36,0-.82-.06-1.18-.06-1.25,0-1.71.61-1.71,2V6.61h2.89V9Z"/></g></g></svg>