<svg xmlns="http://www.w3.org/2000/svg" viewBox="0 0 139.02 33.72"><defs><style>.cls-1{fill:#666666;}</style></defs><g id="Capa_2" data-name="Capa 2"><g id="Capa_1-2" data-name="Capa 1"><path class="cls-1" d="M32.49,6.17c.76.87,2.1,1.39,2.88,2.26a6.8,6.8,0,0,0-5.11-5.19c1.2.86,1.46,2.06,2.23,2.93M2.87,12.72C4.56,9.19,7.1,9.93,8.17,6.57,7.57,7.6,4.8,8,3.51,10.68c.66-1.57.33-4,1.44-5.27-3.32,2.33-1.9,6.12-2.08,7.31m3.07,8.47c.31,1.38-.59,3.36.83,5.26-1.47-1.58-4.59-2-5.86-4.38C2.5,27.94,6.64,26.73,8.51,28,7,25.89,8.23,24.49,5.94,21.19m-.47,3.69c-.92-3.28.71-4.41-.53-7.56C4.81,19.09,3.57,20,4.41,23.2,2.94,20.45.66,19.43,0,17.54c.05,5.15,4.37,5.92,5.47,7.34m6.64,5.5c-1.27-1.69-.41-2.64-4-5.7.75,1.12,0,2.52,2.39,4.71-2.37-1.33-5.62-.77-7.19-2.55,2.7,4.94,7.43,2.92,8.78,3.54m17.31-1c2.42-2.19,1.63-3.59,2.39-4.71-3.58,3.06-2.71,4-4,5.7,1.34-.62,6.08,1.4,8.78-3.54-1.57,1.78-4.83,1.22-7.19,2.55m3.74-2.94c1.42-1.9.53-3.88.84-5.26-2.29,3.3-1,4.7-2.57,6.81,1.87-1.27,6-.06,7.6-5.93-1.27,2.4-4.39,2.8-5.87,4.38m-5.71,4.16a18.54,18.54,0,0,0-3.91-.56,9.87,9.87,0,0,0-3.57.58,9.91,9.91,0,0,0-3.57-.58,18.54,18.54,0,0,0-3.91.56c-2.15.55-4,1-5.63.19,1.55,1.32,3.36,1.79,6,1.52,2.19-.23,3.95-1.27,6-1.26h.08a10.78,10.78,0,0,0-3.39,2.52l1,.13A5.37,5.37,0,0,1,20,31.19a5.37,5.37,0,0,1,3.44,2.53l1-.13A10.93,10.93,0,0,0,21,31.07h.08c2,0,3.81,1,6,1.26,2.63.27,4.44-.2,6-1.52-1.62.78-3.48.36-5.63-.19M5.08,13.76c-.88,1.63-2.26,2-2.11,5.37-.75-3-2.53-4.1-2.5-6-1.24,5,2.06,5.57,2.91,7.66-.12-3,1.88-3.6,1.7-7M6.33,9.91A6.11,6.11,0,0,1,5,11.15a6.33,6.33,0,0,0-2.4,3.75c.08-1.83-1.1-4.45-.31-6.37-3,4.11.17,6.56.28,8,.79-2.86,2.6-2.88,3.78-6.67m31,5A6.42,6.42,0,0,0,35,11.15a6.11,6.11,0,0,1-1.35-1.24c1.18,3.79,3,3.81,3.78,6.67.11-1.49,3.32-3.94.28-8,.79,1.92-.39,4.54-.31,6.37m2.58,2.64c-.66,1.89-2.94,2.91-4.41,5.66.83-3.25-.4-4.11-.53-5.88-1.24,3.15.39,4.28-.52,7.56,1.09-1.42,5.41-2.19,5.46-7.34m-5.09-3.78c-.17,3.42,1.83,4,1.71,7,.85-2.09,4.15-2.68,2.91-7.66,0,1.91-1.75,3-2.5,6,.15-3.37-1.23-3.74-2.12-5.37M7.45,6.17c.77-.87,1-2.07,2.23-2.93A6.8,6.8,0,0,0,4.57,8.43C5.35,7.56,6.69,7,7.45,6.17m24.32.4c1.07,3.36,3.6,2.62,5.3,6.15-.18-1.19,1.23-5-2.08-7.31,1.11,1.29.78,3.7,1.43,5.27C35.14,8,32.37,7.6,31.77,6.57m-8.6,1.91a9.1,9.1,0,0,0-2-.53c0,.15,0,.29,0,.44A7.72,7.72,0,0,1,23,8.88a1.31,1.31,0,0,0,.17-.4m-.52-4.17.14-.11-.26-.11h-.68l-.17.12-.4,0v.1a6.11,6.11,0,0,1,.7.07l.33,0Zm-1.3,14c0-.11-.15-.22-.38-.32h0c0,.09,0,.53,0,.75.28-.12.44-.25.44-.43M13.5,10.05a1.68,1.68,0,0,1,.06-.24,1.27,1.27,0,0,1-.28,0ZM20,29.11c7.62,0,13.82-5.93,13.82-13.22A13.47,13.47,0,0,0,21.38,2.74s0,0,0,.08a2.58,2.58,0,0,0-.07.34,13.66,13.66,0,0,1,8,3.61L27.82,8.23,27.88,8l-.21-.09H27.4l.06-.17-.19-.6-.37-.39L25.7,6.1l-.1.11-.22.06A3.32,3.32,0,0,1,26,8.19c0,.08,0,.17,0,.26l.59.7-.28.06.18.27L26,10l-.21-.39a3.34,3.34,0,0,1-.39.75l.12.1L23.89,12l-.3-.26a3.85,3.85,0,0,1-.47.19l.14.11-.08.07L23,12.2l-.07.17-.12-.11-.34.11.09.14.24-.06h.15v-.08l.12-.05,0-.07.21,0h.17l.1.08-.64.61-.05-.06-.66.1-.15.14-.15,0,.42-.38-.15-.07-.39.49h.12v.19l.14,0,0,.19-.23,0-.25,0L21,13.26s0,1.5-.05,2.26c1.38.44,2.84,1.08,2.84,2.76a2,2,0,0,1-1,1.78h0l0,0h0l0,0a8.11,8.11,0,0,1-1.9.73l0,1.17a3,3,0,0,1,2.08,3.11c0,.48-.21.62-.37.66a10.59,10.59,0,0,1-1.79.27c0,.15,0,.3,0,.43a11.29,11.29,0,0,0,6.89-2.91l1.6,1.54a13.79,13.79,0,0,1-18.48,0l1.61-1.53a11.37,11.37,0,0,0,6.79,2.87c0-.13,0-.28,0-.43a10.87,10.87,0,0,1-6.46-2.75l.42-.41.59.07.32-.32.82,0,.12-.27,0-.11a8.52,8.52,0,0,0,4.18,1.58c0-.16,0-.31,0-.43a8.1,8.1,0,0,1-4.49-2l1.61-1.54a5.64,5.64,0,0,0,1.3.83,1.4,1.4,0,0,1,.16-.4,5.47,5.47,0,0,1-1.15-.73l1.61-1.55a2.86,2.86,0,0,0,.86.46c0-.15,0-.31,0-.46a2.5,2.5,0,0,1-.53-.3l.46-.43-.48-.15-.31.29a2.57,2.57,0,0,1-.38-.55,5.43,5.43,0,0,1-.8-.4,3,3,0,0,1-1.49-2.61,3.06,3.06,0,0,1,.65-2l-1.6-1.53a8,8,0,0,1,4.29-2c0-.15,0-.29,0-.43a8.53,8.53,0,0,0-4.6,2.15l-.27-.26c-.06.1-.13.23-.21.4l.17.16a7.78,7.78,0,0,0-2.27,5.35H9.34a9.9,9.9,0,0,1,2.93-6.89l.72.69h.1a1.25,1.25,0,0,0,.41-.11l-.91-.88a10.49,10.49,0,0,1,1.58-1.21c0-.14.09-.27.11-.32a5.42,5.42,0,0,1,.35-.44,10.94,10.94,0,0,0-2.36,1.67l-1.6-1.54a13.56,13.56,0,0,1,8-3.56.27.27,0,0,1,0-.09c0-.11-.05-.22-.07-.33A13.46,13.46,0,0,0,6.17,15.89c0,7.29,6.2,13.22,13.81,13.22M23,20h0M29.66,7.07a12.45,12.45,0,0,1,3.69,8.69H31.08a10.14,10.14,0,0,0-1.18-4.64l0,0,.15.08,0-.11-.41-.68-.48-.64-.56-.45c-.19-.23-.4-.46-.61-.67ZM26.77,9.85l.54,0,.13.15-.06.22.75.45.15,0,1,1.06.4-.13a9.82,9.82,0,0,1,1,4.15H28.36a7.45,7.45,0,0,0-.21-1.65l.1-.14.14-.68-.1-.73L28,11.72l-.63-.89.16.08.07-.07-.5-.33,0,.1.51.7.29.57.2.56.07.38.1.64-.19,0s-.22-.4-.28-.56l.1-.14-.2-.27v-.26l-.13-.17-.18,0a3.37,3.37,0,0,0-.19-.32l.12.06,0,0-.07-.13.15-.08-.07-.08-.22.08.08-.33-.13-.07-.12.26a7.78,7.78,0,0,0-.82-1ZM26.31,15l.41-.22.41-.06.1-.19.23-.13.09-.19.07-.32.09.34-.22.63V15l.32-.4a6.12,6.12,0,0,1,.11,1.14h-2l0-.17.23-.18,0-.1.11-.07.26,0,0-.11Zm-2.73-1.5.21,0v-.05l-.2-.13.07-.41.24-.23a5.3,5.3,0,0,1,.42.52l-.09.26L24,13.21l-.17,0,.09.15H24l-.09.22-.07-.09Zm.87,7.22L24,20.53l-.15.06-.27-.21-.26-.09.37-.28.4.27.32.16.15.15Zm-.24-8.38,1.6-1.54a7.18,7.18,0,0,1,1,1.28l-.2.05v.34l.61.37a7.48,7.48,0,0,1,.37,1l-.1.14-.22.14-.05.32-.15.07-.12.14-.13,0H26.6l.13-.16.09-.44.15-.09-.44-.4-.32.11-.07.29-.21.22-.21-.17-.08-.18.12-.07.07.11.1,0,0-.2h-.14v.08h-.1l-.49-.55L25,12.92l.06-.06.15-.06-.14-.05-.19,0,.1.12H24.7a5,5,0,0,0-.49-.62M25,20.46l-.22-.2.17-.21.21-.41-.08-.12.14-.3,0-.27-.08-.28-.2-.07-.07.16-.12,0a6.4,6.4,0,0,0,.48-.79l.2-.09.11-.15.06.07.14-.16-.11-.14.1,0,.18.07h.35l.22-.11.55-.14-.1-.18,0-.21.3.13L27.3,17l-.06-.22-.36.13-.4-.08-.31-.59h1.74a7.44,7.44,0,0,1-2.19,4.94l-.24-.23.1-.31-.18-.67Zm.31,4.24.21-.44-.08-.19.31-.27v-.16l-.26-.16.22-.42.33-.42-.33-.34h-.25l-.16-.24a3.09,3.09,0,0,0,.39-.33l1.61,1.54a10.47,10.47,0,0,1-2,1.43m2-2,.18-.19-.17-.84-.12,0,.08-.14-.38-.12-.08.3,0,.38-.07.07-.7-.66a7.8,7.8,0,0,0,2.33-5.24h2.27a10,10,0,0,1-3,6.78Zm.63.6a10.41,10.41,0,0,0,3.12-7.08h2.27a12.49,12.49,0,0,1-3.79,8.62ZM14.29,21.16a5.68,5.68,0,0,1-.47-.51l.07-.54-.24-.53-.06-.83-.27-.5.06-.31-.33-.59-.28-.14.12-.31-.12-.26.11-.28h.31l.12-.17h.52l.09.15-.1.51-.07.09.2.42-.13.06-.09-.1,0,0,.09.24.16.29H14l0-.25-.07-.1v-.17L14,17l.11-.64L14,16.19h.38a5.32,5.32,0,0,0,1.56,3.44Zm-1.5-4.24-.22.32h-.36l0,0a5.91,5.91,0,0,1-.12-1h.69l-.17.52Zm.74-1.49.05-.44.26-.14.49.08.07.08a4.54,4.54,0,0,0-.07.75h-.55Zm2.31,1.62L16,17l.3.21-.13.1.33.21,0-.22.18-.29.19.19.19.26-.34.08.15.3.24-.13,0-.09.18-.12.1-.47a3.1,3.1,0,0,0,.52.76l-1.6,1.54a4.87,4.87,0,0,1-1.41-2.89l.33.34h.31ZM14.2,10.71l1.6,1.54A5.15,5.15,0,0,0,15,13.42h-.11l-.23.07h-.08l-.24.21.31,0,.27-.06,0,.1-.24.14h-.11l-.35.26-.35,0-.49.88.1.17-.27.29,0,.37h-1a7.42,7.42,0,0,1,2.15-5M12.12,22.3l.51.28.1.07-.36.35a6.14,6.14,0,0,1-.5-.52Zm-.51-6.11c0,.21,0,.42.05.62l-.28.07-.05.27-.58.7v1l-.59.19H9.84a9.76,9.76,0,0,1-.5-2.82ZM9.37,19l-.13,0-.13-.13-.64-.06.2.26-.59-.11.15-.13-.14-.14-.42.18-.16.27.06.62.49,1.12.24.35.13.05-.37-.68L8,20.23l.08-.08L8,20l.22,0,.35.49.08,0v-.37l.14.08,0,.2.36.09.15-.1.05,0v.27l.16.18.19,0,.42.69.25.06.08-.31a11.14,11.14,0,0,0,1.57,1.93l-1.61,1.53a12.47,12.47,0,0,1-3.82-8.65H8.89A10.15,10.15,0,0,0,9.37,19m1-12L12,8.57a10.31,10.31,0,0,0-3.06,7.19H6.62A12.44,12.44,0,0,1,10.35,7m16.44-.8L26.65,6l-.3-.14-.23.17.3.15.33.23Zm-1.38,6.13v.17l.39-.11.12-.23-.27-.34.15-.21.36.25.07-.05-.07,0-.09-.15.15-.09-.14-.18-.35.17-.12.19-.07.19.16.24-.06.11ZM9,22.11,9,22l-.21-.43-.24-.09ZM18.27,14c0,.37.24.62.66.84v-.16l-.27-.25.14-.25.12,0c0-.42,0-.9,0-1h0a.91.91,0,0,0-.61.81"/><path class="cls-1" d="M20.81,23.36a2.89,2.89,0,0,1,1.65,1.73,2.45,2.45,0,0,0-1.63-2.58l0,.85"/><path class="cls-1" d="M25.55,8.19c0-1.36-1-2.87-3.56-3.4a5.86,5.86,0,0,0-.77-.09c0,.21,0,.68,0,.68s0,.69,0,.8a3.44,3.44,0,0,1,.48.07c1.47.33,2,1.14,2,1.94,0,1.29-1.15,1.77-2.57,2.14l-.47.12-1.3.31-.47.13c-1.57.46-2.92,1.18-2.92,3s1.54,2.52,3,3l0-1.59c-.66-.3-1.13-.69-1.13-1.35s.42-1,1.08-1.31a4,4,0,0,1,.46-.18c.38-.12.8-.22,1.24-.32l.47-.11c2.11-.49,4.49-1.13,4.49-3.84"/><path class="cls-1" d="M17.94,21.16c0,.74.57,1.14,1.14,1.45,0-.13,0-1.28,0-1.3,0-.22.24-.36.43-.45s.56-.21.91-.33l.48-.16c1.15-.33,2.48-.75,2.48-2.09S22.22,16.39,21,16c0,.42,0,1,0,1.47.53.2.88.44.88.82s-.54.76-.92.9c-.15.06-.4.13-.46.15-.31.09-.64.2-.94.31a3.29,3.29,0,0,0-.47.19c-.54.26-1.1.65-1.09,1.33"/><path class="cls-1" d="M18.72,4.91a9.85,9.85,0,0,0-1.39.54,3.52,3.52,0,0,0-1.91.94,10,10,0,0,0-.67.82c-.21.3-.22.78-.38,1a.87.87,0,0,0-.18.59h0a1.1,1.1,0,0,1-.27.47,1,1,0,0,1-.93.34,1.11,1.11,0,0,0,.78-.06,4.89,4.89,0,0,0-.18.62,2.94,2.94,0,0,1,.82-1.17,1.63,1.63,0,0,0,1.09-.32,8.21,8.21,0,0,0,2-1.38,2.72,2.72,0,0,1,1.22-.88c0-.59,0-1.12,0-1.56M15.81,7.4l-.36.08.43-.67.5,0Z"/><path class="cls-1" d="M20.14,21.06a3.32,3.32,0,0,1-.35.13c-.11,0-.26.1-.26.14s.11,5.76.11,5.89c0,1.18.63,1.19.63,0,0-.09.13-6.24.13-6.24l-.26.08"/><path class="cls-1" d="M19.49,19.17l.57-.18.38-.11c0-.37.12-5.37.14-6.28-.47.11-.88.22-1.22.33,0,.69.12,5.69.13,6.24"/><path class="cls-1" d="M20,0c-1.77,0-1,2.51-.88,3.33,0,0,.15,5.68.18,7l.79-.19.54-.13c0-1.24.15-6.62.16-6.66C20.9,2.45,21.83,0,20,0"/><path class="cls-1" d="M64.94,14.46V11.6c0-1.62-.4-2.69-2.34-2.69a3.81,3.81,0,0,0-1.9.49l0,0,.1,1.42.08-.08a2.54,2.54,0,0,1,1.59-.62,1.05,1.05,0,0,1,1.06,1.19v.19h-.24c-1.48,0-3.18.26-3.18,2.28a1.84,1.84,0,0,0,1.83,2,1.91,1.91,0,0,0,1.64-.91,2.72,2.72,0,0,0,.08.77v0H65v-.07a8.84,8.84,0,0,1-.08-1.15m-1.45-1.68c0,1.24-.36,1.82-1.11,1.82a.85.85,0,0,1-.86-.95c0-.84.55-1.18,1.89-1.18h.08ZM57.76,9l0,.46s0,.33,0,.49a1.71,1.71,0,0,0-1.56-1.05c-1.41,0-2.21,1.26-2.21,3.45,0,3.08,1.64,3.32,2.14,3.32a1.6,1.6,0,0,0,1.53-1v.43c0,.93-.17,2-1.51,2a3.35,3.35,0,0,1-1.73-.56l-.08,0-.08,1.52,0,0a5.61,5.61,0,0,0,2.07.41c2.49,0,2.8-1.91,2.8-3.57V10.1l0-1.08h-1.4Zm-1.35,5.4c-.4,0-.88-.56-.88-2.14,0-1.39.31-2,1-2.06a.76.76,0,0,1,.56.23,2.5,2.5,0,0,1,.53,1.82c0,1.51-.35,2.15-1.2,2.15m12.82-5.5a1.74,1.74,0,0,0-1.56,1c0-.18,0-.45,0-.45l0-.45H66.17v.06a10.22,10.22,0,0,1,0,1.08v5.53h1.55V11.8c0-.55.12-1.48,1-1.48.55,0,.76.38.76,1.37v4H71V11.39c0-1.64-.61-2.48-1.81-2.48M98.07,6.45H96.59L95.8,8.39h1Zm-52,.1c-1.58,0-3.27,1.22-3.27,4.63s1.69,4.62,3.27,4.62,3.27-1.21,3.27-4.62-1.69-4.63-3.27-4.63m0,7.9c-1,0-1.63-1.16-1.63-3.27S45,7.91,46.08,7.91s1.63,1.16,1.63,3.27-.58,3.27-1.63,3.27m7.07-5.54a1.68,1.68,0,0,0-1.49,1.14c0-.21,0-.51,0-.51l0-.53H50.21v.06a9.75,9.75,0,0,1,0,1.08v5.53H51.8V12c0-1.45.91-1.56,1.19-1.56a1.36,1.36,0,0,1,.38.06l.08,0V9l-.12,0Zm37.94-1h1.59V6.22H91.09ZM90,14.17a2.18,2.18,0,0,1-1,.3c-1,0-1.58-.79-1.58-2.11s.49-2.15,1.51-2.15a2.06,2.06,0,0,1,1,.31l.08.05.09-1.37,0,0a3.7,3.7,0,0,0-1.27-.27c-1.84,0-2.94,1.29-2.94,3.44s1.07,3.43,2.85,3.43a3.61,3.61,0,0,0,1.44-.28h0l-.09-1.38Zm1.14,1.51h1.55V9H91.11Zm5.46-6.77c-.81,0-2.68.33-2.68,3.43s1.67,3.44,2.68,3.44,2.66-.45,2.66-3.44-1.86-3.43-2.66-3.43m0,5.64c-.9,0-1.09-1.2-1.09-2.21s.19-2.2,1.09-2.2c.71,0,1.07.74,1.07,2.2s-.36,2.21-1.07,2.21M72.43,15.68H74V9H72.43Zm0-7.79H74V6.22H72.41ZM84.7,14.46V11.6c0-1.62-.4-2.69-2.33-2.69a3.82,3.82,0,0,0-1.91.49l0,0,.09,1.42.09-.08a2.54,2.54,0,0,1,1.59-.62,1.05,1.05,0,0,1,1.06,1.19v.19H83c-1.48,0-3.19.26-3.19,2.28a1.85,1.85,0,0,0,1.84,2,1.9,1.9,0,0,0,1.63-.91,3.87,3.87,0,0,0,.08.77l0,0h1.4v-.07a8.84,8.84,0,0,1-.08-1.15m-1.45-1.68c0,1.24-.36,1.82-1.11,1.82a.85.85,0,0,1-.86-.95c0-.84.55-1.18,1.89-1.18h.08Zm-4.12-2.35V9h-4v1.31h2.42L75,14.24v1.44h4.17V14.37H76.68l2.45-3.94m24.2-1.52a1.74,1.74,0,0,0-1.56,1c0-.18,0-.45,0-.45l0-.45h-1.46v.06a9.75,9.75,0,0,1,0,1.08v5.53h1.54V11.8c0-.55.13-1.48,1-1.48.55,0,.76.38.76,1.37v4h1.55V11.39c0-1.64-.61-2.48-1.81-2.48"/><path class="cls-1" d="M78.5,26.86V24c0-1.61-.39-2.68-2.33-2.68a3.89,3.89,0,0,0-1.91.49h0l.09,1.43.09-.08A2.54,2.54,0,0,1,76,22.54a1,1,0,0,1,1,1.19v.19h-.23c-1.49,0-3.19.26-3.19,2.28a1.84,1.84,0,0,0,1.84,2,1.87,1.87,0,0,0,1.63-.91,3.14,3.14,0,0,0,.08.77v0h1.4V28a7.07,7.07,0,0,1-.09-1.15m-1.45-1.68c0,1.24-.35,1.82-1.11,1.82a.86.86,0,0,1-.86-.95c0-.84.55-1.19,1.9-1.19h.07ZM61.53,21.31a1.74,1.74,0,0,0-1.56,1c0-.17,0-.44,0-.44l0-.45H58.47v.06a9.55,9.55,0,0,1,.05,1.07v5.53h1.54V24.2c0-.55.13-1.49,1-1.49.55,0,.77.39.77,1.38v4h1.54V23.79c0-1.65-.61-2.48-1.81-2.48M47.38,25.58l-1.63-6.5H43.44v9h1.45V21l1.85,7.11h1.14l1.95-7.13v7.13h1.45v-9H49l-1.66,6.5m9.9,1.36V21.41H55.73v3.81c0,.71-.16,1.55-.93,1.55-.56,0-.79-.4-.79-1.37v-4H52.46v4.28c0,1.65.61,2.48,1.81,2.48a1.71,1.71,0,0,0,1.56-1c0,.17,0,.45,0,.45l0,.45h1.46V28a10,10,0,0,1,0-1.07M71,20.28h1.59V18.62H71ZM69.59,26.9V18.42H68.05v3.79a1.64,1.64,0,0,0-1.51-.9c-1.32,0-2.11,1.28-2.11,3.44s.8,3.42,2.15,3.42a1.61,1.61,0,0,0,1.56-1c0,.4,0,.72,0,.88v0h1.46V28a8.86,8.86,0,0,1,0-1.11m-2.62,0c-.72,0-1-.61-1-2.23,0-1.42.33-2.11,1-2.11.91,0,1,1.35,1,2.15,0,1-.19,2.19-1.08,2.19m13,1.16h1.54V18.42H79.93Zm-8.92,0h1.54V21.41H71Zm52.52-1.21V24c0-1.61-.39-2.68-2.33-2.68a3.89,3.89,0,0,0-1.91.49h0l.09,1.43.09-.08a2.54,2.54,0,0,1,1.59-.62,1,1,0,0,1,1,1.19v.19h-.23c-1.49,0-3.19.26-3.19,2.28a1.84,1.84,0,0,0,1.84,2,1.87,1.87,0,0,0,1.63-.91,3.57,3.57,0,0,0,.08.77v0h1.4V28a10.13,10.13,0,0,1-.08-1.15m-1.45-1.68c0,1.24-.35,1.82-1.11,1.82a.86.86,0,0,1-.86-.95c0-.84.55-1.19,1.9-1.19h.07Zm10.63,1.76V21.41h-1.55v3.81c0,.71-.16,1.55-.93,1.55-.56,0-.79-.4-.79-1.37v-4H127.9v4.28c0,1.65.61,2.48,1.81,2.48a1.71,1.71,0,0,0,1.55-1c0,.17,0,.46,0,.46l0,.44h1.46V28a10,10,0,0,1,0-1.07M125,28.07h1.54V18.42H125ZM139,28a7.23,7.23,0,0,1,0-1.11V18.42h-1.54v3.79a1.63,1.63,0,0,0-1.51-.9c-1.32,0-2.11,1.28-2.11,3.44s.8,3.42,2.15,3.42a1.62,1.62,0,0,0,1.56-1c0,.4,0,.72,0,.88v0H139Zm-2.67-1.1c-.73,0-1-.61-1-2.23,0-1.42.33-2.11,1-2.11.92,0,1.06,1.35,1.06,2.15,0,1-.19,2.19-1.08,2.19m-41.78-5.6c-1.48,0-2.51,1.45-2.51,3.52,0,1.62.74,3.34,2.81,3.34a4.17,4.17,0,0,0,1.8-.42l0,0-.07-1.39-.09.07a2.16,2.16,0,0,1-1.52.5c-1,0-1.44-.54-1.46-1.69H97v-.36c0-2.94-1.32-3.55-2.43-3.55m-1,2.81c0-.77.28-1.64,1-1.64s.92.88.93,1.64Zm7.72,4h1.55V18.31h-1.55ZM90.94,26.9V18.42H89.39v3.79a1.62,1.62,0,0,0-1.5-.9c-1.33,0-2.12,1.28-2.12,3.44s.81,3.42,2.15,3.42a1.63,1.63,0,0,0,1.57-1,8,8,0,0,0,0,.87v.05H91V28a9.46,9.46,0,0,1,0-1.11m-2.63,0c-.72,0-1-.61-1-2.23,0-1.42.33-2.11,1-2.11.91,0,1,1.35,1,2.15,0,1-.18,2.19-1.08,2.19M116.38,23l-.87-.53c-.44-.28-.83-.52-.83-1.15a1,1,0,0,1,1.07-1,3.34,3.34,0,0,1,1.4.34l.16.07.08-1.48-.12,0a4.61,4.61,0,0,0-1.63-.3,2.42,2.42,0,0,0-2.6,2.47,2.57,2.57,0,0,0,1.35,2.38l.75.46c.7.42,1,.69,1,1.3A1.11,1.11,0,0,1,115,26.79a3.13,3.13,0,0,1-1.68-.53l-.09-.06-.08,1.58,0,0a3.56,3.56,0,0,0,1.87.4,2.52,2.52,0,0,0,2.76-2.73A2.5,2.5,0,0,0,116.38,23m-7.61,3.83V24c0-1.61-.4-2.68-2.34-2.68a3.89,3.89,0,0,0-1.91.49h0l.09,1.43.09-.08a2.54,2.54,0,0,1,1.59-.62,1,1,0,0,1,1,1.19v.19h-.23c-1.48,0-3.19.26-3.19,2.28a1.84,1.84,0,0,0,1.84,2,1.87,1.87,0,0,0,1.63-.91,3.71,3.71,0,0,0,.08.77v0h1.41V28a7.34,7.34,0,0,1-.08-1.15m-1.46-1.68c0,1.24-.35,1.82-1.11,1.82a.86.86,0,0,1-.86-.95c0-.84.56-1.19,1.9-1.19h.07Z"/></g></g></svg>