<svg xmlns="http://www.w3.org/2000/svg" viewBox="0 0 385.43 351"><defs><style>.cls-1{fill:#fc0;}.cls-2{fill:#fff;}</style></defs><g id="Capa_2" data-name="Capa 2"><g id="Capa_1-2" data-name="Capa 1"><path class="cls-1" d="M112.58,44.1A27.57,27.57,0,1,0,61.2,48.56l-.11,0A27.59,27.59,0,1,0,78.47,63.14l.11,0A27.57,27.57,0,0,0,112.58,44.1Z"/><circle class="cls-1" cx="360.13" cy="227.86" r="25.3"/><path class="cls-1" d="M220.74,72.25A27.57,27.57,0,0,0,187.67,30.4a26.55,26.55,0,0,0,.15-2.83,27.57,27.57,0,1,0-55.13,0c0,.18,0,.37,0,.56a27.55,27.55,0,0,0-24.56,36.36,27.56,27.56,0,1,0,37,33,27.56,27.56,0,0,0,41.45,15.68,27.57,27.57,0,1,0,34.12-40.9Z"/><path class="cls-1" d="M14.34,78.86C65.37,87.37,278.08,96,278.08,96a16.8,16.8,0,0,1,15.25,14.85l0,10.09a16.79,16.79,0,0,1-16.69,18.68h0c-9.27,0-15.67,1.89-15.67,11.17,0,0,13.11,63.05,12,118.15-.53,25.9-36,62.11-61.85,63C178,333,78.44,333,78.44,333,48.5,334.75,7.73,296.63,8.72,266.66c1.77-54,8.11-130.77,9-136.07A8.59,8.59,0,0,0,11,120.47C-8.15,117.1.84,76.61,14.34,78.86Z"/><path class="cls-2" d="M52.57,256.09a6.41,6.41,0,0,1-5.47-3.61,10.5,10.5,0,0,1-.65-8.27c3.41-9.9,6.09-18.39,8.47-25.88,4.89-15.45,8.72-27.55,15.52-42.21-2.17-.12-9.43,3.95-18.74,5.93-3.64.78-7.08-2.34-7.69-7s8.13-13,11.76-13.75c10.51-2.24,11.89-2.37,15.72-2.13a92.06,92.06,0,0,0,10.84,0c2.52-.1,4.86,1.58,6.07,4.37a10.45,10.45,0,0,1-.3,8.85c-10.52,19.77-14.83,33.4-20.8,52.25-1.24,3.94-2.58,8.14-4.06,12.69,1.84-.87,10.71-5.69,18.45-6.92,3.66-.58,7,2.71,7.45,7.36S82,248.15,77.29,250.15c-6.72,2.84-10,3.79-10.47,4-3.14.67-2.47,1-13.82,1.94Z"/><path class="cls-2" d="M105.55,250.76c.25,3.17.91,7,3.19,7.87,1.59.6,3.21-.61,4.6-1.8a40.79,40.79,0,0,0,8.8-9.83c2.41-4,14.12-13.89,13.71-19-.26-3.25-1.5-6.61-3.75-7.82s-13.25,8.3-15.46,8.86c-3-5.65-.2-16.33-.2-23.25,0-1.39,11.56-.41,13.27-3.7a6.6,6.6,0,0,0,.41-1c2-5.57-1.68-11.73-6.45-11s-10.52,1.47-11.52,2.07c-2.66-5.5-2.77-18.12,2.1-18.5,5.19-.4,14.94-3.89,16.62-5.76,2.31-2.57,1.72-6-.63-8.88-2.11-2.58-12.18-2.62-16.29-3.19-3-.42-8.15,5-9.53,8.29-2.53,6.07-1.46,15.18-1.45,21.79q0,15.22.59,30.43Q104.2,233.58,105.55,250.76Z"/><path class="cls-2" d="M189.27,248.25c-7.78-4.39-15.47-26.17-17.91-33.62a7.51,7.51,0,0,0,2.67-1.69c5.32-5.84,7.17-14.23,8.46-22.22,1.45-9,2.15-19.23-3.4-26.19-5.18-6.49-14.74-6.92-21.43-2.93-7.62,4.55-6.13,13-6.34,21.27q-1,37.57-2,75.15c-.07,2.74.31,6.21,2.78,7,1.82.62,3.7-.66,5.11-2,5.72-5.54,5.95-13.71,5.9-21.91,0-5.21-1.1-11.7-.29-17.19,2,6.77,4.67,15.66,6,18.34,3.67,7.31,9.95,15.29,15.18,18.9S192.34,250,189.27,248.25Zm-26.43-72.51c7.67-10.39,10,14.36,6.58,23.44C164.12,213.07,157.17,183.43,162.84,175.74Z"/><circle class="cls-1" cx="280.6" cy="84.65" r="23.36"/><circle class="cls-1" cx="230.81" cy="324.57" r="26.43"/><path class="cls-2" d="M196,199.69c.8-10.45,2.41-27,2.77-29.25,3.49-21.78,15.2-19.44,20.74-16.88s12.6,14.73,16.53,32.32,5.89,50.06-4.3,59.82C221.85,255.19,191.05,264.16,196,199.69Zm22,37.24c4.63-5.82,5.89-30.1,5.45-43.65S221,169.78,219,167.13s-6.48-6-9.22,9.65c-.28,1.62-1.95,13.63-2.93,21.25C200.83,245,213.52,242.6,218,236.93Z"/></g></g></svg>