<svg id="Capa_1" data-name="Capa 1" xmlns="http://www.w3.org/2000/svg" viewBox="0 0 108.94 95.95"><defs><style>.cls-1{fill:#010101;}.cls-2{fill:#1d1d1b;}</style></defs><path class="cls-1" d="M36.58,18a2.84,2.84,0,1,0,5.19-2.31L37.43,5.92a2.84,2.84,0,1,0-5.19,2.31Z"/><path class="cls-1" d="M53.09,17.4a2.84,2.84,0,0,0,2.84-2.84V3.2a2.84,2.84,0,1,0-5.68,0V14.56A2.84,2.84,0,0,0,53.09,17.4Z"/><path class="cls-1" d="M65.84,19.43A2.83,2.83,0,0,0,69.59,18l4.35-9.76a2.84,2.84,0,1,0-5.19-2.31L64.4,15.68A2.85,2.85,0,0,0,65.84,19.43Z"/><path class="cls-1" d="M82,25.86l6.32-5.7a2.84,2.84,0,1,0-3.8-4.22l-6.32,5.69A2.84,2.84,0,1,0,82,25.86Z"/><path class="cls-1" d="M89.14,46.79c-6.38-12.43-20.24-23.71-36-23.71S23.34,34.5,17,46.79a2.82,2.82,0,0,0,0,2.59c6.37,12.42,20.24,23.7,36.05,23.7,17.9,0,31.1-14,36.05-23.7A2.88,2.88,0,0,0,89.14,46.79Zm-44.29-6a1.59,1.59,0,0,0,1.55.93,4.69,4.69,0,0,0,2.25-.87A4.69,4.69,0,0,1,50.59,40c3-.06,4.57.7,5,1.4a.76.76,0,0,1,.13.57,19.16,19.16,0,0,1-3.5-.18A18.16,18.16,0,0,0,47,41.7c-1.48.39-2.34,1.41-3.83,3.7a5.47,5.47,0,0,0-.07,4.13,4.69,4.69,0,0,0,2.19,2.14,6.51,6.51,0,0,0,2.63,0,5.1,5.1,0,0,1,2.19-.05c.77.49,1.29,2.56,1.29,5.14a3.79,3.79,0,0,1-.33.78,3.09,3.09,0,0,0-.49,1.9c.52,2.54,2.44,4,4,4h.21c2.32-.21,6.12-3.18,6.6-5.69a11.66,11.66,0,0,0,0-2.53,11.94,11.94,0,0,1,0-2.47A17.23,17.23,0,0,1,63,49.64a.84.84,0,0,0-.16-1.06A17.28,17.28,0,0,1,61.29,47a13.25,13.25,0,0,1-.82-1.53,2.88,2.88,0,0,1,.54.22,31.61,31.61,0,0,1,4,4,.83.83,0,0,0,.79.27c1.25-.24,1.41-1.53,1.51-2.37a3.6,3.6,0,0,1,.2-1c.49-.11,1.08.57,1.64,1.38A16.42,16.42,0,0,1,40,58,14,14,0,0,0,39.67,54a5.36,5.36,0,0,0-1.53-2.2,5.05,5.05,0,0,1-1-1.25,19.74,19.74,0,0,1-.83-3.29A16.45,16.45,0,0,1,52.72,31.17a16.09,16.09,0,0,1,3.63.41,6.37,6.37,0,0,0-.36.66,6.8,6.8,0,0,0-3.1-.57c-1.26.31-2.58,1.93-3.82,3.67a8.18,8.18,0,0,0-.65,1.21,3.32,3.32,0,0,0-2.66,1.18A3,3,0,0,0,44.85,40.75Zm-22,7.33a44.84,44.84,0,0,1,11.79-13,22,22,0,0,0,1.62,27.14A44.21,44.21,0,0,1,22.84,48.08ZM68.19,63.26A22,22,0,0,0,70,34a44.12,44.12,0,0,1,13.3,14A43.36,43.36,0,0,1,68.19,63.26Z"/><path class="cls-1" d="M17.83,20.16l6.33,5.7A2.84,2.84,0,0,0,28,21.63l-6.33-5.69a2.84,2.84,0,1,0-3.8,4.22Z"/><path class="cls-2" d="M.77,49.19A.64.64,0,0,1,1,48.55a.69.69,0,0,1,.66-.21l9.71,1.5a.69.69,0,0,1,.62.53.66.66,0,0,1-.3.76L3.73,57a.72.72,0,0,1-.67.12.68.68,0,0,1-.44-.5.78.78,0,0,1,0-.4.64.64,0,0,1,.25-.33l7.27-5.26.09.36-8.9-1.3A.63.63,0,0,1,1,49.52.72.72,0,0,1,.77,49.19Zm2.43.13,1.26.25,1.28,5.14-1,.8Z"/><path class="cls-2" d="M5,62.49a3.8,3.8,0,0,1-.34-2,3.62,3.62,0,0,1,.67-1.76,3.79,3.79,0,0,1,1.55-1.22,3.87,3.87,0,0,1,2-.37,3.37,3.37,0,0,1,1.74.63,3.67,3.67,0,0,1,1.22,1.53,3.31,3.31,0,0,1,.32,1.45,3.35,3.35,0,0,1-.34,1.46.47.47,0,0,1-.35.31.7.7,0,0,1-.49-.1.53.53,0,0,1-.25-.35.81.81,0,0,1,0-.48,2.15,2.15,0,0,0,0-1.79,2.22,2.22,0,0,0-1.93-1.37,2.85,2.85,0,0,0-1.35.29,2.69,2.69,0,0,0-1,.81,2.3,2.3,0,0,0-.47,1.14A2.26,2.26,0,0,0,6.12,62a2.71,2.71,0,0,0,.45.71,2.37,2.37,0,0,0,.59.45.84.84,0,0,1,.37.32.59.59,0,0,1,0,.43.65.65,0,0,1-.29.4.45.45,0,0,1-.45,0A3.4,3.4,0,0,1,5,62.49Z"/><path class="cls-2" d="M9.56,70.44a3.76,3.76,0,0,1-.67-1.87,3.55,3.55,0,0,1,.36-1.85,3.85,3.85,0,0,1,1.32-1.47,3.91,3.91,0,0,1,1.87-.7,3.46,3.46,0,0,1,1.83.32,3.76,3.76,0,0,1,1.46,1.3,3.44,3.44,0,0,1,.57,1.38,3.5,3.5,0,0,1-.09,1.5.52.52,0,0,1-.29.36.7.7,0,0,1-.51,0,.5.5,0,0,1-.3-.3.77.77,0,0,1,0-.48,2.18,2.18,0,0,0-.35-1.76,2.23,2.23,0,0,0-.94-.82,2.12,2.12,0,0,0-1.2-.19,2.94,2.94,0,0,0-1.27.5,2.78,2.78,0,0,0-.9,1,2.3,2.3,0,0,0,.16,2.43,2.68,2.68,0,0,0,.56.63,2.07,2.07,0,0,0,.66.34.75.75,0,0,1,.41.26.55.55,0,0,1,.13.41.68.68,0,0,1-.21.45.53.53,0,0,1-.45.1A3.46,3.46,0,0,1,9.56,70.44Z"/><path class="cls-2" d="M13.54,75.43a.68.68,0,0,1-.18-.5.7.7,0,0,1,.24-.47l4.51-4a.71.71,0,0,1,1.16.56.67.67,0,0,1-.25.48l-4.5,4a.69.69,0,0,1-.5.18A.63.63,0,0,1,13.54,75.43ZM20,69.74a.9.9,0,0,1-.22-.65.87.87,0,0,1,.3-.61.85.85,0,0,1,.65-.22.82.82,0,0,1,.61.3.88.88,0,0,1-.08,1.25.79.79,0,0,1-.64.22A.85.85,0,0,1,20,69.74Z"/><path class="cls-2" d="M18.81,80.69a3.88,3.88,0,0,1-1.16-1.62,3.6,3.6,0,0,1-.14-1.87,4,4,0,0,1,.9-1.78,3.9,3.9,0,0,1,1.64-1.17,3.47,3.47,0,0,1,1.86-.15,4.12,4.12,0,0,1,2.92,2.51A3.4,3.4,0,0,1,25,78.48a3.78,3.78,0,0,1-.91,1.79,3.85,3.85,0,0,1-1.62,1.16,3.37,3.37,0,0,1-1.86.16A3.84,3.84,0,0,1,18.81,80.69Zm.79-.92a2.38,2.38,0,0,0,1.15.56A2.21,2.21,0,0,0,22,80.2a2.72,2.72,0,0,0,1.09-.79,2.91,2.91,0,0,0,.63-1.2A2.33,2.33,0,0,0,23.63,77a2.51,2.51,0,0,0-1.89-1.62,2.27,2.27,0,0,0-1.23.13,2.72,2.72,0,0,0-1.09.79,2.77,2.77,0,0,0-.62,1.2,2.24,2.24,0,0,0,.07,1.23A2.34,2.34,0,0,0,19.6,79.77Zm4.85-5.58a.68.68,0,0,1-.07-1A.65.65,0,0,1,24.8,73l1.87-.14a.65.65,0,0,1,.5.16.64.64,0,0,1,.25.48.69.69,0,0,1-.18.5.79.79,0,0,1-.2.17.56.56,0,0,1-.26.07l-1.85.14A.65.65,0,0,1,24.45,74.19Z"/><path class="cls-2" d="M24.92,85.27a.69.69,0,0,1-.33-.42.64.64,0,0,1,.08-.52l3-5.24a.64.64,0,0,1,.42-.34.69.69,0,0,1,.52.08.65.65,0,0,1,.26.94l-3,5.24a.65.65,0,0,1-.4.33A.69.69,0,0,1,24.92,85.27ZM29.75,88a.64.64,0,0,1-.33-.41.71.71,0,0,1,.07-.53l1.65-2.88A2.46,2.46,0,0,0,31.51,83a1.73,1.73,0,0,0-.3-1,2.36,2.36,0,0,0-.84-.75,2.28,2.28,0,0,0-1-.31,2,2,0,0,0-.94.17,1.48,1.48,0,0,0-.67.64L27,81.27a2.82,2.82,0,0,1,1.11-1.11,3,3,0,0,1,1.51-.37,3.26,3.26,0,0,1,1.59.46,3.45,3.45,0,0,1,1.25,1.17A2.84,2.84,0,0,1,32.9,83a3.89,3.89,0,0,1-.56,1.86l-1.65,2.89a.7.7,0,0,1-.41.33A.67.67,0,0,1,29.75,88Z"/><path class="cls-2" d="M37.71,94.52a.71.71,0,0,1-.44-.3.69.69,0,0,1-.07-.53l1.44-6A4,4,0,0,1,39.58,86a3.8,3.8,0,0,1,5.29-.11,3.71,3.71,0,0,1,1,3.6A4,4,0,0,1,45,91.2a3.57,3.57,0,0,1-1.51,1,3.47,3.47,0,0,1-3.19-.6,3.55,3.55,0,0,1-.9-1.14L38.54,94a.71.71,0,0,1-.3.44A.64.64,0,0,1,37.71,94.52ZM41.66,91a2.41,2.41,0,0,0,1.28,0,2.3,2.3,0,0,0,1-.68,2.82,2.82,0,0,0,.61-2.52A2.44,2.44,0,0,0,44,86.71a2.32,2.32,0,0,0-1.12-.61,2.35,2.35,0,0,0-2.31.71,2.87,2.87,0,0,0-.61,2.53,2.34,2.34,0,0,0,.62,1.08A2.43,2.43,0,0,0,41.66,91Z"/><path class="cls-2" d="M51.63,93.61a3.82,3.82,0,0,1-1.91-.55,3.45,3.45,0,0,1-1.27-1.38,4.19,4.19,0,0,1,.16-3.89A3.49,3.49,0,0,1,50,86.52a3.78,3.78,0,0,1,2-.4,3.84,3.84,0,0,1,1.9.55,3.56,3.56,0,0,1,1.26,1.38,4.22,4.22,0,0,1-.15,3.89,3.46,3.46,0,0,1-1.36,1.27A3.78,3.78,0,0,1,51.63,93.61Zm0-1.21a2.38,2.38,0,0,0,1.25-.28,2.25,2.25,0,0,0,.88-.85,2.74,2.74,0,0,0,.36-1.3,2.85,2.85,0,0,0-.25-1.33,2.29,2.29,0,0,0-.81-.93,2.38,2.38,0,0,0-1.23-.38,2.49,2.49,0,0,0-1.26.28,2.27,2.27,0,0,0-.88.86,2.67,2.67,0,0,0-.37,1.31,2.72,2.72,0,0,0,.26,1.32,2.35,2.35,0,0,0,2,1.3Z"/><path class="cls-2" d="M59,93.36a.72.72,0,0,1-.52-.1.69.69,0,0,1-.23-.49l-.74-6a.6.6,0,0,1,.59-.75.66.66,0,0,1,.52.1.65.65,0,0,1,.23.48l.74,6a.68.68,0,0,1-.11.52A.63.63,0,0,1,59,93.36Zm-.58-4.58a2.75,2.75,0,0,1,.22-1.49,2.94,2.94,0,0,1,2.37-1.7,2.24,2.24,0,0,1,1.24.11.55.55,0,0,1,.37.59.54.54,0,0,1-.11.3.51.51,0,0,1-.25.16.85.85,0,0,1-.32,0,3.8,3.8,0,0,0-1.55.16,2.15,2.15,0,0,0-1,.68,1.43,1.43,0,0,0-.27,1.07Z"/><path class="cls-2" d="M73.42,90a4,4,0,0,1-2,.26,3.49,3.49,0,0,1-1.75-.75,3.78,3.78,0,0,1-1.15-1.64,4,4,0,0,1-.26-2,3.43,3.43,0,0,1,.74-1.7A3.76,3.76,0,0,1,70.57,83a3.35,3.35,0,0,1,1.85-.2,3,3,0,0,1,1.54.79,4.16,4.16,0,0,1,1,1.62.57.57,0,0,1,0,.46.62.62,0,0,1-.36.31L69.54,88l-.38-1,5-1.92-.38.55a3,3,0,0,0-.68-1,2.09,2.09,0,0,0-1-.53,2,2,0,0,0-1.18.12,2.43,2.43,0,0,0-1.11.78,2.22,2.22,0,0,0-.45,1.17,2.92,2.92,0,0,0,.21,1.34,2.61,2.61,0,0,0,.78,1.12,2.51,2.51,0,0,0,1.2.53,2.75,2.75,0,0,0,1.4-.17,2.67,2.67,0,0,0,.75-.45,2.79,2.79,0,0,0,.53-.59.75.75,0,0,1,.36-.3.58.58,0,0,1,.43,0,.72.72,0,0,1,.39.33.48.48,0,0,1-.06.47,3.58,3.58,0,0,1-.85,1A3.78,3.78,0,0,1,73.42,90Z"/><path class="cls-2" d="M80.15,86.73a1.73,1.73,0,0,1-1.08.21,2.1,2.1,0,0,1-1-.44,2.93,2.93,0,0,1-.84-1L73.68,79a.65.65,0,0,1-.07-.52.7.7,0,0,1,.34-.4.67.67,0,0,1,.92.27l3.5,6.5a1.67,1.67,0,0,0,.56.63.57.57,0,0,0,.58.06l.3-.16a.55.55,0,0,1,.48,0,.68.68,0,0,1,.37.34.57.57,0,0,1,0,.55,1,1,0,0,1-.49.48Z"/><path class="cls-2" d="M89.09,80.48a3.67,3.67,0,0,1-1.78.87,3.54,3.54,0,0,1-1.88-.15,3.88,3.88,0,0,1-1.61-1.15,4,4,0,0,1-.9-1.78A3.45,3.45,0,0,1,83,76.41a3.69,3.69,0,0,1,1.13-1.59,3.33,3.33,0,0,1,1.31-.72A3.51,3.51,0,0,1,87,74a.52.52,0,0,1,.4.25.72.72,0,0,1,0,.51.46.46,0,0,1-.26.33.8.8,0,0,1-.47.1,2.19,2.19,0,0,0-1.71.53,2.37,2.37,0,0,0-.72,1,2.16,2.16,0,0,0,0,1.21,2.8,2.8,0,0,0,.64,1.21A2.73,2.73,0,0,0,85.9,80a2.27,2.27,0,0,0,2.4-.43,2.64,2.64,0,0,0,.56-.62,2,2,0,0,0,.26-.7.87.87,0,0,1,.22-.44.54.54,0,0,1,.39-.17.65.65,0,0,1,.47.16.47.47,0,0,1,.15.43A3.43,3.43,0,0,1,89.09,80.48Z"/><path class="cls-2" d="M94.22,75.3a1.77,1.77,0,0,1-.94.56,2.12,2.12,0,0,1-1.14-.07A3.1,3.1,0,0,1,91,75.12l-5.46-5a.68.68,0,0,1-.24-.47.72.72,0,0,1,.19-.49A.68.68,0,0,1,86,69a.64.64,0,0,1,.49.19l5.46,5a1.58,1.58,0,0,0,.74.41.56.56,0,0,0,.56-.14l.23-.25a.59.59,0,0,1,.44-.2.7.7,0,0,1,.47.2.59.59,0,0,1,.19.52,1.11,1.11,0,0,1-.31.62Z"/><path class="cls-2" d="M89.7,67.25a.84.84,0,0,1-.59.34.89.89,0,0,1-.83-1.42.86.86,0,0,1,.59-.34.9.9,0,0,1,.66.17.88.88,0,0,1,.34.59A.9.9,0,0,1,89.7,67.25Zm6.83,5.22a.68.68,0,0,1-1,.13L90.78,69a.69.69,0,0,1-.28-.46.7.7,0,0,1,.15-.51.66.66,0,0,1,1-.13l4.78,3.66a.64.64,0,0,1,.27.44A.67.67,0,0,1,96.53,72.47Z"/><path class="cls-2" d="M99.55,68.45a.64.64,0,0,1-.4.34.66.66,0,0,1-.53-.05L93.28,66a.65.65,0,0,1-.35-.4.66.66,0,0,1,0-.53.73.73,0,0,1,.4-.36.67.67,0,0,1,.53.07l5.35,2.76a.7.7,0,0,1,.35.39A.66.66,0,0,1,99.55,68.45Zm2.07-4a.67.67,0,0,1-.92.29L97.26,63A1.7,1.7,0,0,0,96,62.75a1.47,1.47,0,0,0-.87.78,1.51,1.51,0,0,0-.1,1.26,1.7,1.7,0,0,0,.89,1l-.39.75a3.23,3.23,0,0,1-1.21-1A2.79,2.79,0,0,1,95,61.66a2.27,2.27,0,0,1,1.31-.36,3.47,3.47,0,0,1,1.56.43l3.44,1.78a.7.7,0,0,1,.35.39A.66.66,0,0,1,101.62,64.44Zm2.07-4a.69.69,0,0,1-.4.35.71.71,0,0,1-.53-.06L99.33,59A1.73,1.73,0,0,0,98,58.75a1.5,1.5,0,0,0-.87.78,1.53,1.53,0,0,0-.09,1.25,1.77,1.77,0,0,0,.89,1l-.51,1a3.07,3.07,0,0,1-1.2-1,2.78,2.78,0,0,1-.45-1.43,3.21,3.21,0,0,1,.38-1.56,2.73,2.73,0,0,1,.93-1,2.33,2.33,0,0,1,1.31-.37,3.47,3.47,0,0,1,1.56.43l3.44,1.78a.65.65,0,0,1,.29.93Z"/><path class="cls-2" d="M105.92,53.28a3.37,3.37,0,0,1-.91,1.59,3.55,3.55,0,0,1-1.6.88,4.11,4.11,0,0,1-2,0,3.79,3.79,0,0,1-1.74-.95,3.64,3.64,0,0,1-1-3.59,3.59,3.59,0,0,1,.94-1.71,3.65,3.65,0,0,1,1.63-1,3.69,3.69,0,0,1,2,0l-.13.51a3.91,3.91,0,0,1,1.74.9,3.43,3.43,0,0,1,1,1.53A3.28,3.28,0,0,1,105.92,53.28Zm-1.12-.56a2.31,2.31,0,0,0,0-1.28,2.28,2.28,0,0,0-.67-1,2.64,2.64,0,0,0-1.17-.62,2.77,2.77,0,0,0-1.34,0,2.31,2.31,0,0,0-1.09.61,2.25,2.25,0,0,0-.62,1.11,2.38,2.38,0,0,0,0,1.27,2.43,2.43,0,0,0,.67,1.06,2.82,2.82,0,0,0,2.51.63,2.33,2.33,0,0,0,1.09-.62A2.28,2.28,0,0,0,104.8,52.72Zm1.88-2.65a.69.69,0,0,1-.31.43.67.67,0,0,1-.52.07l-2-.51-1.33-.59.75-1,2.92.73a.66.66,0,0,1,.43.31A.65.65,0,0,1,106.68,50.07Z"/></svg>