<svg id="Capa_1" data-name="Capa 1" xmlns="http://www.w3.org/2000/svg" viewBox="0 0 34.56 42.68"><defs><style>.cls-1{fill:#1d1d1b;}</style></defs><path class="cls-1" d="M8,7.68A102.68,102.68,0,0,1,26.11,16c2.78,1.62,5.3-2.7,2.52-4.32A109.29,109.29,0,0,0,9.29,2.86,2.52,2.52,0,0,0,6.22,4.6,2.54,2.54,0,0,0,8,7.68Z"/><path class="cls-1" d="M6.41,25.56a77.51,77.51,0,0,1,15.19-.5,2.52,2.52,0,0,0,2.5-2.5,2.57,2.57,0,0,0-2.5-2.5,82.25,82.25,0,0,0-16.52.68,2.5,2.5,0,0,0-1.74,3.08,2.57,2.57,0,0,0,3.07,1.74Z"/><path class="cls-1" d="M12.15,40.7l15.79-8a2.52,2.52,0,0,0,.9-3.42,2.57,2.57,0,0,0-3.42-.9l-15.79,8a2.52,2.52,0,0,0-.9,3.42,2.57,2.57,0,0,0,3.42.9Z"/></svg>