<svg id="Capa_1" data-name="Capa 1" xmlns="http://www.w3.org/2000/svg" viewBox="0 0 34.56 42.68"><defs><style>.cls-1{fill:#1d1d1b;}</style></defs><path class="cls-1" d="M26.66,8.32A102.63,102.63,0,0,0,8.52,16.66C5.74,18.29,3.22,14,6,12.35A108.87,108.87,0,0,1,25.33,3.5a2.53,2.53,0,0,1,3.08,1.74,2.55,2.55,0,0,1-1.75,3.08Z"/><path class="cls-1" d="M28.22,26.2A77.51,77.51,0,0,0,13,25.7a2.51,2.51,0,0,1-2.5-2.5A2.56,2.56,0,0,1,13,20.7a82.12,82.12,0,0,1,16.51.68,2.51,2.51,0,0,1,1.75,3.08,2.57,2.57,0,0,1-3.07,1.74Z"/><path class="cls-1" d="M22.48,41.33l-15.8-8a2.5,2.5,0,0,1-.89-3.42A2.57,2.57,0,0,1,9.21,29L25,37a2.52,2.52,0,0,1,.9,3.42,2.56,2.56,0,0,1-3.42.89Z"/></svg>