<svg id="Capa_1" data-name="Capa 1" xmlns="http://www.w3.org/2000/svg" viewBox="0 0 77.14 77.76"><defs><style>.cls-1{fill:#d08e2b;}.cls-2{fill:#e01d84;}.cls-3{fill:#49783f;}.cls-4{fill:#ed6f2b;}.cls-5{fill:#087fbe;}.cls-6{fill:#fab71e;}.cls-7{fill:#64b44a;}.cls-8{fill:#f59d2b;}.cls-9{fill:#203867;}.cls-10{fill:#901a3a;}.cls-11{fill:#289b48;}.cls-12{fill:#c42234;}.cls-13{fill:#e8422f;}.cls-14{fill:#03578d;}.cls-15{fill:#0dafd9;}</style></defs><path class="cls-1" d="M18.59,45.75c.28-.08.31.07.36.2a20.26,20.26,0,0,0,2.24,4.46c.22.32-.08.39-.23.5l-6,4.57c-2.06,1.57-4.12,3.12-6.17,4.7-.29.22-.42.2-.62-.1A37.73,37.73,0,0,1,3.43,50.6c-.08-.25-.19-.45.22-.57l14.88-4.26Z"/><path class="cls-2" d="M33.85,59.57c-.41,2.15-.81,4.34-1.23,6.52-.53,2.85-1.08,5.71-1.6,8.57-.08.41-.17.56-.64.45a38.66,38.66,0,0,1-9.85-3.8c-.25-.14-.29-.25-.14-.51q4.08-6.55,8.13-13.13c.16-.25.27-.33.56-.18a19.65,19.65,0,0,0,4.43,1.69C33.69,59.22,34,59.21,33.85,59.57Z"/><path class="cls-3" d="M1.62,39.2c0-.78,0-1.55,0-2.33,0-.26.06-.36.36-.33l10.39.94c1.68.15,3.36.31,5.05.45.28,0,.36.09.35.39a18.74,18.74,0,0,0,.41,4.78c.06.26,0,.38-.3.46Q10.45,45.68,3,47.82c-.38.11-.43,0-.5-.33A34.05,34.05,0,0,1,1.62,39.2Z"/><path class="cls-4" d="M37.5,76c-1.1,0-2.51-.13-3.91-.32-.33,0-.43-.13-.36-.48q1.44-7.56,2.85-15.12c.06-.3.16-.41.47-.37a19.27,19.27,0,0,0,4.74-.06c.33,0,.37.08.42.34q1,5.4,2,10.81c.27,1.38.49,2.78.8,4.16.14.57-.13.61-.54.67A40.66,40.66,0,0,1,37.5,76Z"/><path class="cls-5" d="M17.61,35.64,10.33,35l-6.28-.56L2.2,34.25c-.25,0-.35-.06-.31-.37a37.17,37.17,0,0,1,3-10.32c.18-.39.35-.24.59-.13L17.63,29.5c.54.27,1.08.54,1.63.79.24.12.28.23.17.48a18.8,18.8,0,0,0-1.36,4.59C18,35.64,17.88,35.69,17.61,35.64Z"/><path class="cls-6" d="M67.66,61.92l-.23.31a38,38,0,0,1-7.73,7.19c-.29.21-.43.19-.62-.12q-4-6.52-8-13c-.2-.31-.21-.47.11-.7a16.48,16.48,0,0,0,3.17-3c.37-.44.58-.37,1-.07q5.28,4,10.6,8l1.49,1.12C67.48,61.75,67.56,61.83,67.66,61.92Z"/><path class="cls-1" d="M51.9,22.85c-.16-.12-.26-.18-.35-.26a19.35,19.35,0,0,0-3.94-2.45c-.3-.14-.32-.27-.21-.55q2.76-7.14,5.51-14.3c.14-.37.27-.42.62-.27a38.25,38.25,0,0,1,9,5.64c.23.2.22.29,0,.5l-6.43,7-3.94,4.31C52.08,22.6,52,22.73,51.9,22.85Z"/><path class="cls-7" d="M23.89,24.07c0,.17-.12.23-.2.31a19.84,19.84,0,0,0-2.85,3.67c-.16.26-.29.34-.6.18Q13.36,24.8,6.46,21.38c-.38-.19-.28-.36-.13-.63a37.55,37.55,0,0,1,6.41-8.32c.26-.26.38-.2.59,0q5.16,5.68,10.34,11.35Z"/><path class="cls-8" d="M18.17,69.85l-.29-.2a37.27,37.27,0,0,1-7.76-7c-.22-.26-.26-.4.05-.64q6.12-4.62,12.23-9.29c.28-.22.41-.15.62.08a18.88,18.88,0,0,0,3.48,3.14c.26.18.24.29.09.53l-8.1,13.09C18.42,69.66,18.38,69.84,18.17,69.85Z"/><path class="cls-9" d="M37.62,10c0,2.53,0,5.07,0,7.6,0,.38-.09.5-.47.52a17.76,17.76,0,0,0-4.41.79c-.42.13-.49,0-.61-.35L26.89,5c-.43-1.1-.43-1.1.69-1.46A37.29,37.29,0,0,1,37,1.93c.66,0,.66,0,.66.64Z"/><path class="cls-10" d="M47.1,75c-.3.06-.24-.18-.27-.33l-1.11-5.83c-.58-3.06-1.15-6.12-1.74-9.18-.08-.38,0-.57.4-.68a17.75,17.75,0,0,0,4.14-1.69c.27-.15.39-.12.56.15q4,6.55,8.08,13.09c.13.2.25.34-.07.53A37.69,37.69,0,0,1,47.25,75Z"/><path class="cls-11" d="M64.48,12.47l.24.21a37.59,37.59,0,0,1,6.4,8.48c.22.4-.07.42-.27.52l-11,5.5c-.88.44-1.76.87-2.63,1.33-.28.14-.43.15-.61-.16a18.67,18.67,0,0,0-2.76-3.67c-.22-.22-.21-.35,0-.58Q59,18.43,64.22,12.75Z"/><path class="cls-12" d="M75.35,34.1c.09.29-.16.29-.39.31l-7.82.73c-2.45.24-4.91.46-7.36.71-.42,0-.55-.06-.62-.47a18,18,0,0,0-1.22-4.26c-.11-.27-.1-.4.2-.54L72,23.69c.19-.09.34-.22.48.1A37.4,37.4,0,0,1,75.35,34.1Z"/><path class="cls-13" d="M39.93,10c0-2.53,0-5.07,0-7.6,0-.4.1-.48.5-.46A37.9,37.9,0,0,1,50.58,3.87c.31.1.34.21.22.51Q48,11.57,45.27,18.77c-.11.29-.22.34-.52.25a17.83,17.83,0,0,0-4.35-.85c-.38,0-.48-.15-.48-.53C39.94,15.09,39.93,12.54,39.93,10Z"/><path class="cls-13" d="M75.62,39.15a34.65,34.65,0,0,1-.92,8.24c-.08.37-.19.48-.6.37q-7.34-2.15-14.68-4.22c-.34-.1-.42-.24-.35-.57a17.85,17.85,0,0,0,.4-4.31c0-.36.06-.49.46-.53,4.56-.41,9.12-.86,13.68-1.29l1.65-.15c.28,0,.36.07.36.34C75.61,37.74,75.62,38.44,75.62,39.15Z"/><path class="cls-14" d="M30.08,19.63c.09.28-.06.3-.16.34a21.19,21.19,0,0,0-4.05,2.47c-.24.19-.32,0-.45-.11l-7.66-8.4c-.9-1-1.79-2-2.72-3-.27-.28-.22-.4.05-.62a37.73,37.73,0,0,1,8.83-5.41c.37-.16.46,0,.57.28Q27.13,12,29.76,18.81Z"/><path class="cls-15" d="M73.93,50.21l-.1.33a37.91,37.91,0,0,1-4.47,9.1c-.25.37-.4.38-.75.12q-6-4.56-12-9.09c-.35-.26-.47-.43-.19-.85A16.46,16.46,0,0,0,58.22,46c.12-.35.27-.4.59-.3L73.56,50C73.7,50,73.93,50,73.93,50.21Z"/></svg>